<svg width="10" height="10" viewBox="0 0 10 10" fill="none" xmlns="http://www.w3.org/2000/svg">
<path d="M5 0.375C7.55431 0.375 9.625 2.44569 9.625 5C9.625 7.55431 7.55431 9.625 5 9.625C2.44569 9.625 0.375 7.55431 0.375 5C0.375 2.44569 2.44569 0.375 5 0.375Z" stroke="#FFBB33" stroke-width="0.75"/>
<g clip-path="url(#clip0_508_9714)">
<path d="M7.5364 5.06301C7.5364 5.22361 7.49499 5.32524 7.41218 5.36791C7.32937 5.41057 7.165 5.4319 6.91908 5.4319C6.30176 5.4319 5.89523 5.43692 5.6995 5.44696C6.16123 6.11949 6.3921 6.56115 6.3921 6.77194C6.3921 7.03292 6.29674 7.16341 6.10603 7.16341C5.9906 7.16341 5.68445 6.75688 5.18758 5.94383C5.0872 5.78825 5.01443 5.68285 4.96926 5.62764C4.83877 5.82337 4.67064 6.10945 4.46487 6.48586C4.41468 6.56114 4.34693 6.66905 4.26161 6.80958C4.10101 7.09064 3.9404 7.23116 3.7798 7.23116C3.6192 7.23116 3.5389 7.15337 3.5389 6.99778C3.5389 6.85223 3.6443 6.58122 3.85509 6.18473C4.02573 5.86854 4.17128 5.63015 4.29173 5.46954C4.19637 5.46954 3.97805 5.47581 3.63677 5.48836C3.29549 5.50091 3.1123 5.50718 3.08721 5.50718C2.69574 5.50718 2.5 5.39927 2.5 5.18346C2.5 4.97267 2.56525 4.83716 2.69574 4.77693C2.80615 4.72674 3.0458 4.70165 3.41469 4.70165C3.78358 4.70165 4.11607 4.69412 4.41219 4.67907C3.76978 3.83088 3.44857 3.31896 3.44857 3.1433C3.44857 2.87228 3.56651 2.73677 3.8024 2.73677C3.93289 2.73677 4.26664 3.16839 4.80366 4.03163C4.90906 4.20227 4.97681 4.31018 5.00692 4.35535C5.06715 4.24494 5.16 4.07429 5.28547 3.84343C5.35573 3.71796 5.45862 3.53477 5.59413 3.29387C5.825 2.88734 6.00568 2.68408 6.13617 2.68408C6.30681 2.68408 6.39213 2.77944 6.39213 2.97015C6.39213 3.19098 6.11358 3.76313 5.55649 4.6866C6.10856 4.65147 6.61547 4.6339 7.0772 4.6339C7.38335 4.62888 7.53642 4.77192 7.53642 5.06301H7.5364Z" fill="#FFBB33" stroke="black" stroke-opacity="0.01" stroke-width="0.75"/>
</g>
<defs>
<clipPath id="clip0_508_9714">
<rect width="8.80093" height="8.80093" fill="white" transform="translate(9.35645 9.35693) rotate(180)"/>
</clipPath>
</defs>
</svg>
