<svg width="44" height="40" viewBox="0 0 44 40" fill="none" xmlns="http://www.w3.org/2000/svg">
<circle cx="20" cy="20" r="20" fill="url(#paint0_linear_508_9678)"/>
<g clip-path="url(#clip0_508_9678)">
<path d="M36.0524 25.2295C34.8801 23.3314 32.1199 23.3314 30.9476 25.2295L24.0336 36.4235C22.7992 38.4222 24.2369 41 26.586 41H40.414C42.7631 41 44.2008 38.4222 42.9664 36.4235L36.0524 25.2295Z" fill="url(#paint1_linear_508_9678)" stroke="#FFF8EF" stroke-width="2"/>
<path fill-rule="evenodd" clip-rule="evenodd" d="M33.4553 36.1726C33.3882 35.5743 33.3224 35.0636 33.258 34.6407C33.1935 34.2177 33.1316 33.8528 33.0723 33.5459C33.013 33.239 32.9601 32.9747 32.9137 32.7529C32.8673 32.5311 32.826 32.3209 32.7899 32.1223C32.7538 31.9237 32.7254 31.7239 32.7048 31.5227C32.6841 31.3215 32.6738 31.0869 32.6738 30.8186C32.6738 30.5711 32.7061 30.3506 32.7705 30.1571C32.835 29.9637 32.9214 29.7999 33.0297 29.6658C33.138 29.5317 33.2593 29.4286 33.3934 29.3564C33.5275 29.2842 33.6641 29.248 33.8034 29.248C33.9427 29.248 34.0807 29.2841 34.2173 29.3564C34.354 29.4286 34.4752 29.5317 34.581 29.6658C34.6867 29.7999 34.7718 29.9637 34.8363 30.1571C34.9008 30.3505 34.933 30.571 34.933 30.8186C34.933 31.0868 34.9227 31.3215 34.9021 31.5227C34.8814 31.7239 34.8543 31.9237 34.8208 32.1223C34.7873 32.3209 34.746 32.5311 34.697 32.7529C34.648 32.9747 34.5952 33.239 34.5384 33.5459C34.4817 33.8528 34.4211 34.2177 34.3566 34.6407C34.2921 35.0636 34.2264 35.5743 34.1593 36.1726H33.4553ZM32.8595 37.8437C32.8595 37.7148 32.884 37.5923 32.933 37.4762C32.982 37.3602 33.0491 37.2583 33.1342 37.1706C33.2193 37.0829 33.3186 37.0146 33.4321 36.9656C33.5455 36.9166 33.6693 36.8921 33.8034 36.8921C33.9375 36.8921 34.0626 36.9166 34.1787 36.9656C34.2947 37.0146 34.3966 37.0829 34.4843 37.1706C34.572 37.2583 34.6403 37.3602 34.6893 37.4762C34.7383 37.5923 34.7628 37.7148 34.7628 37.8437C34.7628 37.9779 34.7383 38.1016 34.6893 38.2151C34.6403 38.3286 34.572 38.4292 34.4843 38.5169C34.3966 38.6045 34.2947 38.6729 34.1787 38.7219C34.0626 38.7709 33.9375 38.7954 33.8034 38.7954C33.6693 38.7954 33.5455 38.7709 33.4321 38.7219C33.3186 38.6729 33.2193 38.6045 33.1342 38.5169C33.0491 38.4292 32.982 38.3286 32.933 38.2151C32.884 38.1016 32.8595 37.9778 32.8595 37.8437Z" fill="white"/>
</g>
<g clip-path="url(#clip1_508_9678)">
<g clip-path="url(#clip2_508_9678)">
<g clip-path="url(#clip3_508_9678)">
<path d="M24.4787 24.0967C23.5288 24.0967 22.7559 24.8695 22.7559 25.8193C22.7559 26.7693 23.5286 27.5421 24.4787 27.5421C25.4286 27.5421 26.2013 26.7693 26.2013 25.8193C26.2013 24.8695 25.4286 24.0967 24.4787 24.0967Z" fill="#FE7506"/>
<path d="M16.21 13.0708C15.2601 13.0708 14.4873 13.8436 14.4873 14.7935C14.4873 15.7433 15.2601 16.5163 16.21 16.5163C17.1599 16.5163 17.9328 15.7435 17.9328 14.7935C17.9327 13.8437 17.1599 13.0708 16.21 13.0708Z" fill="#480A00"/>
</g>
<g clip-path="url(#clip4_508_9678)">
<g clip-path="url(#clip5_508_9678)">
<g clip-path="url(#clip6_508_9678)">
<path fill-rule="evenodd" clip-rule="evenodd" d="M16.21 11.0039C18.2998 11.0039 20 12.7041 20 14.7939C20 16.8838 18.2998 18.584 16.21 18.584C14.1202 18.584 12.4199 16.8838 12.4199 14.7939C12.4199 12.7041 14.1202 11.0039 16.21 11.0039ZM14.2537 27.8592C14.0519 28.061 13.7873 28.1619 13.5229 28.1619C13.2584 28.1619 12.9938 28.0611 12.792 27.8592C12.3884 27.4555 12.3884 26.801 12.792 26.3974L26.4353 12.754C26.8389 12.3504 27.4935 12.3504 27.8971 12.754C28.3008 13.1577 28.3008 13.8122 27.8971 14.2158L14.2537 27.8592ZM24.479 29.6094C22.3892 29.6094 20.689 27.9092 20.689 25.8194C20.689 23.7296 22.3892 22.0294 24.479 22.0294C26.5688 22.0294 28.2691 23.7296 28.2691 25.8194C28.2691 27.9092 26.5688 29.6094 24.479 29.6094Z" fill="white"/>
</g>
</g>
<path d="M24.4787 24.0967C23.5288 24.0967 22.7559 24.8695 22.7559 25.8193C22.7559 26.7693 23.5286 27.5421 24.4787 27.5421C25.4286 27.5421 26.2013 26.7693 26.2013 25.8193C26.2013 24.8695 25.4286 24.0967 24.4787 24.0967Z" fill="#FE7406"/>
<path d="M16.21 13.0708C15.2601 13.0708 14.4873 13.8436 14.4873 14.7935C14.4873 15.7433 15.2601 16.5163 16.21 16.5163C17.1599 16.5163 17.9328 15.7435 17.9328 14.7935C17.9327 13.8437 17.1599 13.0708 16.21 13.0708Z" fill="#FE7506"/>
</g>
</g>
</g>
<defs>
<linearGradient id="paint0_linear_508_9678" x1="0" y1="0" x2="0" y2="40" gradientUnits="userSpaceOnUse">
<stop stop-color="#FE9411"/>
<stop offset="1" stop-color="#FF6300"/>
</linearGradient>
<linearGradient id="paint1_linear_508_9678" x1="23" y1="23" x2="23" y2="40" gradientUnits="userSpaceOnUse">
<stop stop-color="#FCA942"/>
<stop offset="1" stop-color="#FE9411"/>
</linearGradient>
<clipPath id="clip0_508_9678">
<rect width="21" height="17" fill="white" transform="translate(23 23)"/>
</clipPath>
<clipPath id="clip1_508_9678">
<rect width="15.8491" height="18.6055" fill="white" transform="translate(12.4199 11.0039)"/>
</clipPath>
<clipPath id="clip2_508_9678">
<rect width="15.8491" height="18.6055" fill="white" transform="translate(12.4199 11.0039)"/>
</clipPath>
<clipPath id="clip3_508_9678">
<rect width="11.7144" height="14.4714" fill="white" transform="translate(14.4873 13.0708)"/>
</clipPath>
<clipPath id="clip4_508_9678">
<rect width="15.8491" height="18.6055" fill="white" transform="translate(12.4199 11.0039)"/>
</clipPath>
<clipPath id="clip5_508_9678">
<rect width="15.8491" height="18.6055" fill="white" transform="translate(12.4199 11.0039)"/>
</clipPath>
<clipPath id="clip6_508_9678">
<rect width="15.8491" height="18.6055" fill="white" transform="translate(12.4199 11.0039)"/>
</clipPath>
</defs>
</svg>
