<?xml version="1.0" encoding="UTF-8"?>
<svg width="134px" height="30px" viewBox="0 0 134 30" version="1.1" xmlns="http://www.w3.org/2000/svg" xmlns:xlink="http://www.w3.org/1999/xlink">
    <!-- Generator: Sketch 52.3 (67297) - http://www.bohemiancoding.com/sketch -->
    <title>Untitled</title>
    <desc>Created with Sketch.</desc>
    <g id="Page-1" stroke="none" stroke-width="1" fill="none" fill-rule="evenodd">
        <g id="2enach">
            <polygon id="Path" fill="#008D41" points="128.4 1 133.4 11 122.4 22"></polygon>
            <path d="M52.4,1 L29.4,22 L35.4,22 L39.4,18 L53.4,18 L54.4,22 L59.4,22 L52.4,1 Z M44.4,14 L50.4,8 L52.4,14 L44.4,14 Z" id="Shape" fill="#404041" fill-rule="nonzero"></path>
            <polygon id="Path" fill="#404041" points="0.84 25.36 1.61 25.36 2.85 28.36 2.85 28.36 3.46 25.36 4.17 25.36 3.33 29.36 2.56 29.36 1.32 26.36 1.32 26.36 0.71 29.36 0 29.36"></polygon>
            <path d="M6.55,25.36 L7.29,25.36 L7.99,29.36 L7.28,29.36 L7.11,28.29 L5.51,28.29 L4.89,29.36 L4.13,29.36 L6.55,25.36 Z M6.79,26.07 L5.79,27.78 L7.02,27.78 L6.79,26.07 Z" id="Shape" fill="#404041" fill-rule="nonzero"></path>
            <polygon id="Path" fill="#404041" points="8.76 25.36 12.08 25.36 11.95 25.97 10.67 25.97 9.96 29.39 9.25 29.39 9.96 26 8.64 26"></polygon>
            <polygon id="Path" fill="#404041" points="12.92 25.36 13.63 25.36 12.79 29.36 12.08 29.36"></polygon>
            <path d="M14.2,27.72 C14.1902041,27.3443937 14.2547758,26.9705574 14.39,26.62 C14.501632,26.3344611 14.6719733,26.0755424 14.89,25.86 C15.080154,25.6563235 15.3169449,25.5018947 15.58,25.41 C15.8284924,25.3122143 16.0929631,25.2613545 16.36,25.26 C16.6095095,25.254971 16.8575656,25.2991454 17.09,25.39 C17.2957502,25.471652 17.482841,25.5941115 17.64,25.75 C17.7984104,25.9089802 17.9211342,26.099884 18,26.31 C18.0908275,26.5354616 18.1350498,26.7769834 18.13,27.02 C18.1392411,27.3946915 18.0781875,27.7677968 17.95,28.12 C17.8452425,28.4072316 17.6817661,28.669475 17.47,28.89 C17.273718,29.0862549 17.0387343,29.2395052 16.78,29.34 C16.527978,29.4365244 16.2598439,29.4840419 15.99,29.48 C15.7274102,29.4859107 15.4660945,29.4417924 15.22,29.35 C15.0120091,29.2624511 14.8221138,29.1369846 14.66,28.98 C14.5110158,28.8174539 14.3954862,28.6271699 14.32,28.42 C14.2385596,28.1956942 14.1979189,27.9586238 14.2,27.72 Z M14.91,27.72 C14.8887948,28.0428991 14.9926343,28.361579 15.2,28.61 C15.4069323,28.8348136 15.705291,28.9526837 16.01,28.93 C16.2271103,28.931866 16.440905,28.8766932 16.63,28.77 C16.8026319,28.6558958 16.9519579,28.5099636 17.07,28.34 C17.1927727,28.1576611 17.2809098,27.9542679 17.33,27.74 C17.3879833,27.497847 17.4115483,27.2487303 17.4,27 C17.4185051,26.683772 17.3226742,26.3714344 17.13,26.12 C16.9230677,25.8951864 16.624709,25.7773163 16.32,25.8 C16.0991622,25.793302 15.8808799,25.8487388 15.69,25.96 C15.5108005,26.0657499 15.3598409,26.2132785 15.25,26.39 C15.127494,26.5737232 15.0362597,26.776466 14.98,26.99 C14.9231136,27.2221494 14.8995441,27.4612113 14.91,27.7 L14.91,27.72 Z" id="Shape" fill="#404041" fill-rule="nonzero"></path>
            <polygon id="Path" fill="#404041" points="19.55 25.36 20.32 25.36 21.56 28.36 21.56 28.36 22.18 25.36 22.88 25.36 22.05 29.36 21.27 29.36 20.03 26.36 20.03 26.36 19.42 29.36 18.71 29.36"></polygon>
            <path d="M25.26,25.36 L26.01,25.36 L26.71,29.36 L25.99,29.36 L25.83,28.29 L24.22,28.29 L23.6,29.36 L22.84,29.36 L25.26,25.36 Z M25.5,26.07 L24.5,27.78 L25.73,27.78 L25.5,26.07 Z" id="Shape" fill="#404041" fill-rule="nonzero"></path>
            <polygon id="Path" fill="#404041" points="28.31 25.36 29.01 25.36 28.3 28.78 30.3 28.78 30.18 29.39 27.47 29.39"></polygon>
            <path d="M35.13,25.36 L35.88,25.36 L36.58,29.36 L35.86,29.36 L35.69,28.29 L34.09,28.29 L33.47,29.36 L32.71,29.36 L35.13,25.36 Z M35.37,26.07 L34.37,27.78 L35.6,27.78 L35.37,26.07 Z" id="Shape" fill="#404041" fill-rule="nonzero"></path>
            <path d="M38.16,25.36 L38.87,25.36 L38.4,27.82 L38.4,27.99 C38.4,27.99 38.4,28.09 38.4,28.15 C38.3959468,28.2662861 38.416389,28.3821252 38.46,28.49 C38.5036694,28.5809883 38.5688907,28.6599404 38.65,28.72 C38.7342504,28.7718531 38.8250546,28.8122106 38.92,28.84 C39.0364101,28.850942 39.1535899,28.850942 39.27,28.84 C39.3949806,28.8394606 39.5193591,28.8226527 39.64,28.79 C39.757259,28.7611847 39.8665924,28.7065181 39.96,28.63 C40.0607346,28.5405852 40.1423675,28.4317414 40.2,28.31 C40.2814265,28.1483389 40.3419139,27.9769577 40.38,27.8 L40.91,25.32 L41.61,25.32 L41.08,27.85 C41.0437067,28.0292452 40.9969602,28.206214 40.94,28.38 C40.8700442,28.5711703 40.7648977,28.7475451 40.63,28.9 C40.4775048,29.0687826 40.2897295,29.2019324 40.08,29.29 C39.7966585,29.4001401 39.4937896,29.4511854 39.19,29.44 C38.9977045,29.4426281 38.8059455,29.4190788 38.62,29.37 C38.447791,29.3219665 38.2853332,29.2441221 38.14,29.14 C38.0050625,29.0360271 37.8956198,28.9026438 37.82,28.75 C37.7362142,28.5790325 37.6950427,28.3903296 37.7,28.2 C37.695037,28.1100684 37.695037,28.0199316 37.7,27.93 C37.7118244,27.8391703 37.7285151,27.7490407 37.75,27.66 L38.16,25.36 Z" id="Path" fill="#404041"></path>
            <polygon id="Path" fill="#404041" points="42.34 25.36 45.66 25.36 45.53 25.97 44.25 25.97 43.54 29.39 42.83 29.39 43.55 26 42.22 26"></polygon>
            <path d="M45.82,27.72 C45.8102041,27.3443937 45.8747758,26.9705574 46.01,26.62 C46.1181518,26.3350683 46.2851096,26.0761134 46.5,25.86 C46.6956795,25.658234 46.9352051,25.5042532 47.2,25.41 C47.4484924,25.3122143 47.7129631,25.2613545 47.98,25.26 C48.2261975,25.255764 48.4708293,25.2999336 48.7,25.39 C48.9086895,25.4716831 49.099049,25.594057 49.26,25.75 C49.4116934,25.9142797 49.5335244,26.1037946 49.62,26.31 C49.7026256,26.5374576 49.7432844,26.7780224 49.74,27.02 C49.7492411,27.3946915 49.6881875,27.7677968 49.56,28.12 C49.4552425,28.4072316 49.2917661,28.669475 49.08,28.89 C48.8866409,29.0851055 48.6551641,29.2382887 48.4,29.34 C48.1477204,29.4355925 47.8797656,29.4830782 47.61,29.48 C47.3472847,29.4876819 47.0856315,29.4435067 46.84,29.35 C46.6307237,29.2648717 46.4403913,29.1391163 46.28,28.98 C46.1275627,28.8200717 46.0115706,28.6290259 45.94,28.42 C45.8585596,28.1956942 45.8179189,27.9586238 45.82,27.72 Z M46.52,27.72 C46.5037597,28.0422576 46.6070241,28.3591724 46.81,28.61 C47.0240316,28.8304775 47.3232052,28.9472282 47.63,28.93 C47.8439616,28.9320048 48.0545679,28.8767638 48.24,28.77 C48.4169439,28.6613312 48.5672928,28.5143993 48.68,28.34 C48.802506,28.1562768 48.8937403,27.953534 48.95,27.74 C49.0093326,27.5181895 49.0395859,27.2896085 49.04,27.06 C49.0603995,26.7419236 48.9604527,26.4278052 48.76,26.18 C48.5553182,25.9580285 48.2613017,25.8404219 47.96,25.86 C47.7391622,25.853302 47.5208799,25.9087388 47.33,26.02 C47.1500463,26.1282911 46.9963547,26.2751519 46.88,26.45 C46.757494,26.6337232 46.6662597,26.836466 46.61,27.05 C46.5517979,27.2618179 46.5215415,27.4803368 46.52,27.7 L46.52,27.72 Z" id="Shape" fill="#404041" fill-rule="nonzero"></path>
            <polygon id="Path" fill="#404041" points="51.18 25.36 52.18 25.36 52.63 28.43 52.63 28.43 54.4 25.36 55.4 25.36 54.57 29.36 53.89 29.36 54.59 26.13 54.59 26.13 52.76 29.36 52.21 29.36 51.7 26.13 51.7 26.13 51.09 29.36 50.4 29.36"></polygon>
            <path d="M57.82,25.36 L58.57,25.36 L59.27,29.36 L58.55,29.36 L58.4,28.32 L56.78,28.32 L56.16,29.39 L55.4,29.39 L57.82,25.36 Z M58.06,26.07 L57.06,27.78 L58.29,27.78 L58.06,26.07 Z" id="Shape" fill="#404041" fill-rule="nonzero"></path>
            <polygon id="Path" fill="#404041" points="60.03 25.36 63.4 25.36 63.27 25.97 61.94 25.97 61.23 29.39 60.53 29.39 61.24 26 59.91 26"></polygon>
            <polygon id="Path" fill="#404041" points="64.18 25.36 67.11 25.36 66.99 25.97 64.75 25.97 64.53 27 66.6 27 66.49 27.58 64.4 27.58 64.16 28.76 66.4 28.76 66.27 29.37 63.27 29.37"></polygon>
            <path d="M68.14,25.36 L69.62,25.36 C70.0547341,25.3290175 70.4826066,25.4813111 70.8,25.78 C71.0830825,26.1213032 71.2260464,26.557343 71.2,27 C71.2140453,27.1363058 71.2140453,27.2736942 71.2,27.41 C71.1788059,27.5643939 71.1384967,27.7155535 71.08,27.86 C71.0312593,28.0125464 70.9676191,28.1599238 70.89,28.3 C70.8129713,28.4375364 70.7151502,28.5623426 70.6,28.67 C70.4935367,28.7813234 70.3762964,28.8818151 70.25,28.97 C70.138447,29.0589768 70.0135863,29.1298437 69.88,29.18 C69.7257439,29.2422819 69.5646035,29.2859241 69.4,29.31 C69.1836731,29.3271599 68.9663269,29.3271599 68.75,29.31 L67.29,29.31 L68.14,25.36 Z M68.14,28.81 L69.02,28.81 C69.205139,28.8164498 69.3894477,28.7823185 69.56,28.71 C69.7048126,28.6435407 69.83682,28.5521509 69.95,28.44 C70.0572335,28.3314881 70.1512229,28.2106446 70.23,28.08 C70.2974829,27.9515271 70.3543393,27.8177473 70.4,27.68 C70.4382729,27.5588271 70.4683409,27.4352141 70.49,27.31 C70.4977532,27.220167 70.4977532,27.129833 70.49,27.04 C70.5105533,26.7467698 70.4254131,26.4558742 70.25,26.22 C70.091619,26.0256762 69.850407,25.9180586 69.6,25.93 L68.72,25.93 L68.14,28.81 Z" id="Shape" fill="#404041" fill-rule="nonzero"></path>
            <path d="M76.95,26.7 C76.9657348,26.4639555 76.8823872,26.2320319 76.72,26.06 C76.5311401,25.8999962 76.2867916,25.8209422 76.04,25.84 C75.8157937,25.8314023 75.5937831,25.8869049 75.4,26 C75.2230561,26.1086688 75.0727072,26.2556007 74.96,26.43 C74.837494,26.6137232 74.7462597,26.816466 74.69,27.03 C74.6300444,27.2482775 74.5997721,27.4736381 74.6,27.7 C74.5787948,28.0228991 74.6826343,28.341579 74.89,28.59 C75.0991656,28.8176974 75.4018948,28.9358356 75.71,28.91 C75.8671322,28.9141815 76.0225163,28.8761987 76.16,28.8 C76.2790496,28.7382937 76.3844732,28.6532747 76.47,28.55 C76.5461769,28.4551095 76.610019,28.3509461 76.66,28.24 C76.66,28.14 76.73,28.05 76.75,27.98 L77.46,27.98 C77.4119081,28.2164478 77.3239903,28.4430053 77.2,28.65 C77.0940795,28.82807 76.9588442,28.9869715 76.8,29.12 C76.6433844,29.2390779 76.4674997,29.3304027 76.28,29.39 C76.0857406,29.4503376 75.8834131,29.4806867 75.68,29.48 C75.4174102,29.4859107 75.1560945,29.4417924 74.91,29.35 C74.7195734,29.266316 74.5465706,29.1475886 74.4,29 C74.2447076,28.8404488 74.1253673,28.6495044 74.05,28.44 C73.9685596,28.2156942 73.9279189,27.9786238 73.93,27.74 C73.9239572,27.3646756 73.988406,26.9915508 74.12,26.64 C74.231632,26.3544611 74.4019733,26.0955424 74.62,25.88 C74.810154,25.6763235 75.0469449,25.5218947 75.31,25.43 C75.5616888,25.3312202 75.8296214,25.2803469 76.1,25.28 C76.3207003,25.2772384 76.5403356,25.3110284 76.75,25.38 C76.9371279,25.4330535 77.1109271,25.5250649 77.26,25.65 C77.4025043,25.7732164 77.5153151,25.9270493 77.59,26.1 C77.6658458,26.2975287 77.6998964,26.5086419 77.69,26.72 L76.95,26.7 Z" id="Path" fill="#404041"></path>
            <polygon id="Path" fill="#404041" points="79.06 25.36 79.77 25.36 79.05 28.78 81.05 28.78 80.92 29.39 78.22 29.39"></polygon>
            <polygon id="Path" fill="#404041" points="82.68 25.36 85.62 25.36 85.49 25.97 83.25 25.97 83.03 27 85.11 27 84.99 27.58 82.91 27.58 82.66 28.76 84.92 28.76 84.8 29.37 81.8 29.37"></polygon>
            <path d="M87.87,25.36 L88.62,25.36 L89.32,29.36 L88.6,29.36 L88.4,28.32 L86.83,28.32 L86.21,29.39 L85.45,29.39 L87.87,25.36 Z M88.11,26.07 L87.11,27.78 L88.4,27.78 L88.11,26.07 Z" id="Shape" fill="#404041" fill-rule="nonzero"></path>
            <path d="M90.9,25.36 L92.64,25.36 C92.7565072,25.3513736 92.8734928,25.3513736 92.99,25.36 C93.1365662,25.3717869 93.27933,25.4125766 93.41,25.48 C93.7453429,25.6399465 93.9479351,25.9895174 93.92,26.36 C93.9334592,26.6324764 93.8442532,26.9000944 93.67,27.11 C93.4939749,27.3007847 93.257145,27.4245019 93,27.46 C93.1486642,27.5052999 93.2718174,27.6103424 93.34,27.75 C93.4029727,27.8879458 93.4337488,28.0384066 93.43,28.19 C93.439812,28.3298281 93.439812,28.4701719 93.43,28.61 C93.4101695,28.7492978 93.4101695,28.8907022 93.43,29.03 C93.425028,29.0832175 93.425028,29.1367825 93.43,29.19 C93.4393139,29.2498898 93.4596582,29.3075318 93.49,29.36 L92.75,29.36 C92.7454727,29.3101025 92.7454727,29.2598975 92.75,29.21 L92.75,29.05 C92.7400626,28.9001646 92.7400626,28.7498354 92.75,28.6 C92.7599208,28.4568383 92.7599208,28.3131617 92.75,28.17 C92.7563428,28.0761056 92.7355128,27.9823709 92.69,27.9 C92.6483948,27.837576 92.5892436,27.7888632 92.52,27.76 C92.4373418,27.7449985 92.3526582,27.7449985 92.27,27.76 L91.12,27.76 L90.78,29.42 L90.06,29.42 L90.9,25.36 Z M91.24,27.19 L92.24,27.19 C92.4882596,27.2092566 92.7355469,27.1421357 92.94,27 C93.1032853,26.8699173 93.1928617,26.6683702 93.18,26.46 C93.1837789,26.3663173 93.1631006,26.273265 93.12,26.19 C93.0827309,26.1227142 93.0272858,26.0672691 92.96,26.03 C92.8892658,25.988629 92.8111399,25.9614548 92.73,25.95 L92.46,25.95 L91.46,25.95 L91.24,27.19 Z" id="Shape" fill="#404041" fill-rule="nonzero"></path>
            <polygon id="Path" fill="#404041" points="95.29 25.36 96 25.36 95.16 29.36 94.45 29.36"></polygon>
            <polygon id="Path" fill="#404041" points="97.24 25.36 98.01 25.36 99.25 28.36 99.25 28.36 99.86 25.36 100.57 25.36 99.73 29.36 98.96 29.36 97.72 26.36 97.72 26.36 97.11 29.36 96.4 29.36"></polygon>
            <path d="M104.4,29.39 L103.95,29.39 L103.95,29 C103.883023,29.0920411 103.802041,29.1730226 103.71,29.24 L103.43,29.4 C103.336384,29.439069 103.239286,29.469203 103.14,29.49 L102.87,29.49 C102.610633,29.4963715 102.352503,29.4522178 102.11,29.36 C101.899413,29.2773781 101.7086,29.1513056 101.55,28.99 C101.398055,28.827848 101.279172,28.637635 101.2,28.43 C101.11856,28.2056942 101.077919,27.9686238 101.08,27.73 C101.073957,27.3546756 101.138406,26.9815508 101.27,26.63 C101.381632,26.3444611 101.551973,26.0855424 101.77,25.87 C101.965679,25.668234 102.205205,25.5142532 102.47,25.42 C102.717951,25.3203601 102.982778,25.2694316 103.25,25.27 C103.472408,25.2701697 103.693992,25.2970284 103.91,25.35 C104.100939,25.4038947 104.280514,25.4919883 104.44,25.61 C104.59577,25.7191336 104.719956,25.8674679 104.8,26.04 C104.891811,26.229902 104.936409,26.4391659 104.93,26.65 L104.22,26.65 C104.221978,26.4151552 104.119365,26.1916057 103.94,26.04 C103.72931,25.9033358 103.480786,25.8368293 103.23,25.85 C103.008923,25.8410663 102.790023,25.8966598 102.6,26.01 C102.420046,26.1182911 102.266355,26.2651519 102.15,26.44 C102.027494,26.6237232 101.93626,26.826466 101.88,27.04 C101.820044,27.2582775 101.789772,27.4836381 101.79,27.71 C101.77376,28.0322576 101.877024,28.3491724 102.08,28.6 C102.289166,28.8276974 102.591895,28.9458356 102.9,28.92 C103.056905,28.9213129 103.212751,28.8942092 103.36,28.84 C103.490678,28.7871369 103.609623,28.7089733 103.71,28.61 C103.813086,28.5087873 103.897691,28.3903391 103.96,28.26 C104.034001,28.1181705 104.087853,27.9667108 104.12,27.81 L103.02,27.81 L103.13,27.27 L104.86,27.27 L104.4,29.39 Z" id="Path" fill="#404041"></path>
            <polygon id="Path" fill="#404041" points="108.32 25.36 109.02 25.36 108.69 26.96 110.58 26.96 110.91 25.36 111.62 25.36 110.78 29.36 110.08 29.36 110.45 27.54 108.57 27.54 108.19 29.36 107.48 29.36"></polygon>
            <path d="M112.17,27.72 C112.160204,27.3443937 112.224776,26.9705574 112.36,26.62 C112.468152,26.3350683 112.63511,26.0761134 112.85,25.86 C113.045679,25.658234 113.285205,25.5042532 113.55,25.41 C113.798492,25.3122143 114.062963,25.2613545 114.33,25.26 C114.576198,25.255764 114.820829,25.2999336 115.05,25.39 C115.25869,25.4716831 115.449049,25.594057 115.61,25.75 C115.761945,25.912152 115.880828,26.102365 115.96,26.31 C116.050827,26.5354616 116.09505,26.7769834 116.09,27.02 C116.099241,27.3946915 116.038188,27.7677968 115.91,28.12 C115.805242,28.4072316 115.641766,28.669475 115.43,28.89 C115.236641,29.0851055 115.005164,29.2382887 114.75,29.34 C114.49772,29.4355925 114.229766,29.4830782 113.96,29.48 C113.697285,29.4876819 113.435631,29.4435067 113.19,29.35 C112.766439,29.1862006 112.434554,28.8470213 112.28,28.42 C112.207078,28.193825 112.169963,27.95764 112.17,27.72 Z M112.87,27.72 C112.85376,28.0422576 112.957024,28.3591724 113.16,28.61 C113.374032,28.8304775 113.673205,28.9472282 113.98,28.93 C114.193962,28.9320048 114.404568,28.8767638 114.59,28.77 C114.764801,28.6586069 114.914618,28.5121945 115.03,28.34 C115.152506,28.1562768 115.24374,27.953534 115.3,27.74 C115.368094,27.4992897 115.401761,27.2501502 115.4,27 C115.414768,26.6826393 115.315443,26.3704757 115.12,26.12 C114.915318,25.8980285 114.621302,25.7804219 114.32,25.8 C114.099162,25.793302 113.88088,25.8487388 113.69,25.96 C113.510046,26.0682911 113.356355,26.2151519 113.24,26.39 C113.117494,26.5737232 113.02626,26.776466 112.97,26.99 C112.902996,27.2206906 112.869322,27.4597767 112.87,27.7 L112.87,27.72 Z" id="Shape" fill="#404041" fill-rule="nonzero"></path>
            <path d="M117.52,25.36 L118.23,25.36 L117.71,27.82 L117.71,27.99 C117.71,27.99 117.71,28.09 117.71,28.15 C117.705947,28.2662861 117.726389,28.3821252 117.77,28.49 C117.81014,28.5803224 117.871972,28.6593296 117.95,28.72 C118.037756,28.7719301 118.131874,28.8122662 118.23,28.84 C118.34641,28.850942 118.46359,28.850942 118.58,28.84 C118.704981,28.8394606 118.829359,28.8226527 118.95,28.79 C119.065032,28.7632779 119.171581,28.7082846 119.26,28.63 C119.364342,28.5415539 119.449429,28.4326421 119.51,28.31 C119.592017,28.1495271 119.64933,27.9775885 119.68,27.8 L120.21,25.32 L120.92,25.32 L120.39,27.85 C120.354722,28.0305059 120.304551,28.2077788 120.24,28.38 C120.177643,28.5724848 120.075422,28.749668 119.94,28.9 C119.785465,29.0664713 119.598223,29.1992429 119.39,29.29 C119.106437,29.3993323 118.803735,29.4503494 118.5,29.44 C118.307704,29.4426281 118.115946,29.4190788 117.93,29.37 C117.757791,29.3219665 117.595333,29.2441221 117.45,29.14 C117.315063,29.0360271 117.20562,28.9026438 117.13,28.75 C117.046214,28.5790325 117.005043,28.3903296 117.01,28.2 C117.000092,28.1102727 117.000092,28.0197273 117.01,27.93 C117.005156,27.8400652 117.005156,27.7499348 117.01,27.66 L117.52,25.36 Z" id="Path" fill="#404041"></path>
            <path d="M122.01,28.06 C121.967584,28.3049538 122.054533,28.5544597 122.24,28.72 C122.444785,28.8532366 122.685877,28.9196243 122.93,28.91 L123.23,28.91 C123.333347,28.8885743 123.431731,28.8478638 123.52,28.79 C123.606354,28.7435299 123.681455,28.6786702 123.74,28.6 C123.85441,28.4199726 123.85441,28.1900274 123.74,28.01 C123.678567,27.9340701 123.604063,27.8697259 123.52,27.82 C123.423566,27.7688621 123.323256,27.7253945 123.22,27.69 L122.85,27.59 L122.53,27.49 C122.401238,27.4541319 122.279506,27.3966472 122.17,27.32 C122.053246,27.2382888 121.951711,27.1367538 121.87,27.02 C121.784918,26.8747688 121.743272,26.7081836 121.75,26.54 C121.752217,26.3685929 121.786121,26.1990746 121.85,26.04 C121.920009,25.8866072 122.022345,25.7501585 122.15,25.64 C122.28987,25.5259419 122.449054,25.4378824 122.62,25.38 C122.827446,25.3173119 123.043311,25.2869559 123.26,25.29 C123.458884,25.2873842 123.657249,25.310919 123.85,25.36 C124.023184,25.4002574 124.18645,25.4750876 124.33,25.58 C124.46592,25.6845489 124.572671,25.8222929 124.64,25.98 C124.722307,26.1688835 124.759949,26.374203 124.75,26.58 L124.07,26.58 C124.087104,26.3742961 124.009848,26.1719584 123.86,26.03 C123.676456,25.9101542 123.458617,25.8539378 123.24,25.87 L123.04,25.87 C122.949675,25.8828685 122.861936,25.9098651 122.78,25.95 C122.692161,25.9896858 122.616294,26.0517589 122.56,26.13 C122.487599,26.2202891 122.451892,26.3345516 122.46,26.45 C122.453915,26.5357934 122.478746,26.6209306 122.53,26.69 C122.574458,26.7611408 122.636437,26.819676 122.71,26.86 C122.796663,26.9043758 122.886999,26.9411794 122.98,26.97 L123.3,27.05 L123.73,27.18 C123.872948,27.2207111 124.008127,27.2849211 124.13,27.37 C124.251205,27.4515498 124.350737,27.5613781 124.42,27.69 C124.498186,27.8483197 124.535976,28.0235279 124.53,28.2 C124.529112,28.3608637 124.498603,28.5201882 124.44,28.67 C124.372512,28.8305867 124.270018,28.9740778 124.14,29.09 C123.990695,29.2216192 123.817582,29.3234505 123.63,29.39 C123.37826,29.4712483 123.114391,29.5084606 122.85,29.5 C122.630577,29.5054673 122.411549,29.47851 122.2,29.42 C122.023301,29.3736539 121.859265,29.2882186 121.72,29.17 C121.580864,29.0521435 121.474154,28.900685 121.41,28.73 C121.336784,28.5215442 121.306179,28.3005071 121.32,28.08 L122.01,28.06 Z" id="Path" fill="#404041"></path>
            <polygon id="Path" fill="#404041" points="126.15 25.36 129.09 25.36 128.96 25.97 126.72 25.97 126.5 27 128.58 27 128.46 27.58 126.4 27.58 126.16 28.76 128.4 28.76 128.28 29.37 125.28 29.37"></polygon>
            <polygon id="Path" fill="#404041" points="24.4 14 28.4 1 32.4 1 26.4 22 9.4 9 6.4 22 1.4 22 7.4 1"></polygon>
            <path d="M90.4,5 L69.4,5 L66.4,18 L86.4,18 C86.6830906,18.7951038 86.6297545,19.6712603 86.2523077,20.4261538 C85.8748609,21.1810474 85.2059374,21.7494101 84.4,22 L62.4,22 C62.4,22 60.4,21 61.4,18 L65.4,3 C66.2592296,1.64308919 67.7989336,0.873237173 69.4,1 L89.4,1 C89.4,1 92.4,1 90.4,5 Z" id="Path" fill="#404041"></path>
            <polygon id="Path" fill="#404041" points="95.4 1 99.4 1 97.4 10 113.4 10 116.4 1 121.4 1 115.4 22 110.4 22 112.4 14 95.4 14 93.4 22 89.4 22"></polygon>
            <polygon id="Path" fill="#F67900" points="124.4 1 129.4 11 118.4 22"></polygon>
        </g>
    </g>
</svg>