<svg xmlns="http://www.w3.org/2000/svg" viewBox="0 0 59.79 59.79">
    <defs>
        <style>
            .cls-1{fill:#ffb000}.cls-2{fill:none;stroke:#421000;stroke-linecap:round;stroke-linejoin:round;stroke-miterlimit:10;stroke-width:2px}
        </style>
    </defs>
    <g id="No_Pay" data-name="No Pay">
        <path id="Path_7" d="M53.811 59.79H5.979A5.981 5.981 0 0 1 0 53.811V5.979A5.981 5.981 0 0 1 5.979 0h47.832a5.981 5.981 0 0 1 5.979 5.979v47.832a5.981 5.981 0 0 1-5.979 5.979z" class="cls-1" data-name="Path 7"/>
        <g id="Credit_Card_1_" transform="translate(9.042 15.012)">
            <path id="Path_10" d="M39.671 30.617H5.186A3.686 3.686 0 0 1 1.5 26.931V5.186A3.687 3.687 0 0 1 5.186 1.5h34.485a3.687 3.687 0 0 1 3.686 3.686v21.745a3.682 3.682 0 0 1-3.686 3.686z" class="cls-2" data-name="Path 10" transform="translate(-1.5 -1.5)"/>
            <path id="Line_7" d="M0 0h41.857" class="cls-2" data-name="Line 7" transform="translate(0 9.1)"/>
            <path id="Line_8" d="M0 0h9.1" class="cls-2" data-name="Line 8" transform="translate(4.55 16.378)"/>
        </g>
        <g id="Group_11" data-name="Group 11" transform="translate(32.048 27.932)">
            <path id="Path_11" d="M46.523 22.516a6.414 6.414 0 1 0 .007 9.073 6.409 6.409 0 0 0-.007-9.073z" class="cls-2" data-name="Path 11" transform="translate(-35.577 -20.638)"/>
            <path id="Line_9" d="M0 4.179L3.909 0" class="cls-2" data-name="Line 9" transform="translate(5.362 4.714)"/>
            <path id="Line_10" d="M1.816 1.938L0 0" class="cls-2" data-name="Line 10" transform="translate(3.546 6.955)"/>
        </g>
    </g>
</svg>
