<svg xmlns="http://www.w3.org/2000/svg" viewBox="0 0 59.79 59.79">
    <defs>
        <style>
            .cls-1{fill:#ffb000}.cls-2,.cls-3{fill:none;stroke:#421000;stroke-linecap:round;stroke-linejoin:round;stroke-miterlimit:10}.cls-3{stroke-width:2px}
        </style>
    </defs>
    <g id="Password">
        <g id="Group_12" data-name="Group 12">
            <path id="Path_7" d="M53.811 59.79H5.979A5.981 5.981 0 0 1 0 53.811V5.979A5.981 5.981 0 0 1 5.979 0h47.832a5.981 5.981 0 0 1 5.979 5.979v47.832a5.981 5.981 0 0 1-5.979 5.979z" class="cls-1" data-name="Path 7"/>
        </g>
        <g id="Group_13" data-name="Group 13" transform="translate(7.911 12.761)">
            <g id="Group_18" data-name="Group 18">
                <g id="Group_13-2" data-name="Group 13" transform="translate(4.966 5.209)">
                    <path id="Line_11" d="M0 0v5.794" class="cls-2" data-name="Line 11" transform="translate(2.526)"/>
                    <path id="Line_12" d="M0 0l5.058 2.9" class="cls-2" data-name="Line 12" transform="translate(0 1.447)"/>
                    <path id="Line_13" d="M0 2.9L5.058 0" class="cls-2" data-name="Line 13" transform="translate(0 1.447)"/>
                </g>
                <g id="Group_14" data-name="Group 14" transform="translate(13.884 5.209)">
                    <path id="Line_14" d="M0 0v5.794" class="cls-2" data-name="Line 14" transform="translate(2.532)"/>
                    <path id="Line_15" d="M0 0l5.058 2.9" class="cls-2" data-name="Line 15" transform="translate(0 1.447)"/>
                    <path id="Line_16" d="M0 2.9L5.058 0" class="cls-2" data-name="Line 16" transform="translate(0 1.447)"/>
                </g>
                <g id="Group_15" data-name="Group 15" transform="translate(22.809 5.209)">
                    <path id="Line_17" d="M0 0v5.794" class="cls-2" data-name="Line 17" transform="translate(2.526)"/>
                    <path id="Line_18" d="M0 0l5.058 2.9" class="cls-2" data-name="Line 18" transform="translate(0 1.447)"/>
                    <path id="Line_19" d="M0 2.9L5.058 0" class="cls-2" data-name="Line 19" transform="translate(0 1.447)"/>
                </g>
                <g id="Group_16" data-name="Group 16" transform="translate(33.214 5.209)">
                    <path id="Line_20" d="M0 0v5.794" class="cls-2" data-name="Line 20" transform="translate(2.532)"/>
                    <path id="Line_21" d="M0 0l5.058 2.9" class="cls-2" data-name="Line 21" transform="translate(0 1.447)"/>
                    <path id="Line_22" d="M0 2.9L5.058 0" class="cls-2" data-name="Line 22" transform="translate(0 1.447)"/>
                </g>
                <g id="Group_17" data-name="Group 17" transform="translate(17.983 12.724)">
                    <path id="Line_23" d="M0 0l8.524 8.524" class="cls-3" data-name="Line 23" transform="translate(6.128 6.119)"/>
                    <path id="Line_24" d="M0 8.524L8.524 0" class="cls-3" data-name="Line 24" transform="translate(6.128 6.119)"/>
                    <path id="Path_12" d="M46.573 23.887a10.385 10.385 0 1 0 0 14.687 10.387 10.387 0 0 0 0-14.687z" class="cls-3" data-name="Path 12" transform="translate(-28.842 -20.846)"/>
                </g>
                <path id="Path_13" d="M17.693 17.857H1.5V1.5h43.119v16.357h-1.552" class="cls-3" data-name="Path 13" transform="translate(-1.5 -1.5)"/>
            </g>
        </g>
    </g>
</svg>
