<svg xmlns="http://www.w3.org/2000/svg" width="360" height="238" viewBox="0 0 360 238">
    <defs>
        <linearGradient id="prefix__linear-gradient" x1=".5" x2=".5" y2="1" gradientUnits="objectBoundingBox">
            <stop offset="0" stop-color="#6cb9f5"/>
            <stop offset="1" stop-color="#1287e5"/>
        </linearGradient>
        <clipPath id="prefix__clip-path">
            <path id="prefix__Rectangle_7547" d="M0 0H207V176H0z" data-name="Rectangle 7547" transform="translate(0 331)" style="stroke:#707070;fill:#fff"/>
        </clipPath>
        <style>
            .prefix__cls-4{fill:#f8bd83}.prefix__cls-5{fill:#f7ac6f}.prefix__cls-8{fill:#727272}.prefix__cls-16{stroke:transparent;font-family:Gilroy-Bold,Gilroy;font-weight:700}.prefix__cls-11{fill:#facc9f}.prefix__cls-14{fill:#f59a50}.prefix__cls-15{fill:#fff8ef}.prefix__cls-16{fill:#484848;stroke-miterlimit:10;font-size:12px}.prefix__cls-17{fill:none;stroke:#7e493a;stroke-linecap:round;stroke-linejoin:round;stroke-dasharray:5;opacity:.308}.prefix__cls-18{fill:#d7bba8}
        </style>
    </defs>
    <g id="prefix__Group_11173" data-name="Group 11173" transform="translate(0 -269)">
        <path id="prefix__Rectangle_7366" d="M7 0h346a7 7 0 0 1 7 7v231H0V7a7 7 0 0 1 7-7z" data-name="Rectangle 7366" transform="translate(0 269)" style="fill:#ffeed9"/>
        <g id="prefix__Group_11100" data-name="Group 11100" transform="translate(-32)">
            <g id="prefix__Group_11099" data-name="Group 11099">
                <g id="prefix__Mask_Group_77" data-name="Mask Group 77" transform="translate(156)">
                    <g id="prefix__Group_11094" data-name="Group 11094" transform="translate(-41.779 275.923)">
                        <g id="prefix__Group_11090" data-name="Group 11090" transform="translate(44.779 55.077)">
                            <g id="prefix__Group_11082" data-name="Group 11082" transform="translate(61.25 38.809)">
                                <path id="prefix__Path_18300" d="M85.006 120.729c.081 6.323 12.07 18.112 22.648 19.881s42.562-19.31 41.958-23.272-17.048-36.638-25.439-34.871-39.302 27.642-39.167 38.262z" class="prefix__cls-4" data-name="Path 18300" transform="translate(-85.006 -79.607)"/>
                                <path id="prefix__Path_18301" d="M142.5 103.951s-40.857 5.016-43.363 7.736.844 17.481 4.469 17.659 33.667-11.714 38.894-25.395z" class="prefix__cls-5" data-name="Path 18301" transform="translate(-78.076 -68.343)"/>
                                <path id="prefix__Path_18302" d="M136.635 82.1l-6.226 4.6 9.7 4.425-9.953 8.545 9.349 1.871-9.139 8.419s5.944 3.791 5.119 4.123-9.992 8.183-9.992 8.183l.988-41.693z" class="prefix__cls-5" data-name="Path 18302" transform="translate(-63.845 -80.565)"/>
                            </g>
                            <g id="prefix__Group_11087" data-name="Group 11087" transform="translate(80.957)">
                                <g id="prefix__Group_11084" data-name="Group 11084">
                                    <path id="prefix__Path_18336" d="M0 0h42.858v74H0z" data-name="Path 18336" transform="translate(2.691 4.84)" style="fill:#fafafa"/>
                                    <g id="prefix__Group_11083" data-name="Group 11083">
                                        <path id="prefix__Path_18303" d="M142.713 55.077h-41.194a3.667 3.667 0 0 0-3.571 3.759v75.469a3.669 3.669 0 0 0 3.571 3.758h41.195a3.67 3.67 0 0 0 3.571-3.758V58.836a3.668 3.668 0 0 0-3.572-3.759zm-.049 74.417H101.57V64.28h41.094z" data-name="Path 18303" transform="translate(-97.948 -55.077)" style="fill:#272727"/>
                                        <path id="prefix__Path_18305" d="M120.474 57.575h-9.349a1.053 1.053 0 1 0 0 2.074h9.349a1.053 1.053 0 1 0 0-2.074z" class="prefix__cls-8" data-name="Path 18305" transform="translate(-91.708 -53.771)"/>
                                        <path id="prefix__Rectangle_7546" d="M.93 0h6.875a.929.929 0 0 1 .929.929v2.832a.93.93 0 0 1-.93.93H.93a.93.93 0 0 1-.93-.93V.93A.93.93 0 0 1 .93 0z" class="prefix__cls-8" data-name="Rectangle 7546" transform="translate(19.801 76.359)"/>
                                    </g>
                                    <g id="prefix__Group_11095" data-name="Group 11095" transform="translate(-83.957 -324)">
                                        <rect id="prefix__Rectangle_7548" width="34" height="10" data-name="Rectangle 7548" rx="5" transform="translate(91 373)"/>
                                        <text id="prefix__Pay" transform="translate(101 380)" style="font-family:Gilroy-Bold,Gilroy;font-weight:700;font-size:8px;stroke:transparent;fill:#fff">
                                            <tspan x="0" y="0">Pay</tspan>
                                        </text>
                                    </g>
                                </g>
                            </g>
                            <g id="prefix__Group_11088" data-name="Group 11088" transform="translate(127.562 31.304)">
                                <path id="prefix__Path_18310" d="M133.42 75.639c-.691-.081-4.638 1.334-4.7 5.16a4.774 4.774 0 0 0 4.7 4.871c1.3 0 2.832-2.506 2.911-5.017.076-2.407-1.237-4.814-2.911-5.014z" class="prefix__cls-4" data-name="Path 18310" transform="translate(-128.47 -75.636)"/>
                                <path id="prefix__Path_18311" d="M132.917 76.265c-.311-.024.477 1.789.44 4.059-.027 1.763-.869 3.909-.516 4.02.556.177 1.638-1.826 1.638-4.02s-.927-4.009-1.562-4.059z" class="prefix__cls-11" data-name="Path 18311" transform="translate(-126.363 -75.307)"/>
                                <path id="prefix__Path_18312" d="M133.336 82.682c-.691-.082-4.638 1.334-4.7 5.16a4.775 4.775 0 0 0 4.7 4.871c1.3 0 5.711-1.186 5.711-4.726 0-3.269-4.036-5.107-5.711-5.305z" class="prefix__cls-4" data-name="Path 18312" transform="translate(-128.513 -71.955)"/>
                                <path id="prefix__Path_18313" d="M132.835 83.308c-.312-.024.475 1.788.44 4.059-.027 1.763-.871 3.907-.516 4.02.554.177 2.273-1.841 2.273-4.035s-1.564-3.994-2.197-4.044z" class="prefix__cls-11" data-name="Path 18313" transform="translate(-126.406 -71.626)"/>
                                <path id="prefix__Path_18314" d="M133 89.905a5.226 5.226 0 0 0-4.438 4.877 4.511 4.511 0 0 0 4.438 4.6c1.23 0 5.515-1.41 5.515-4.741-.004-3.229-3.937-4.549-5.515-4.736z" class="prefix__cls-4" data-name="Path 18314" transform="translate(-128.557 -68.18)"/>
                                <path id="prefix__Path_18315" d="M132.521 90.5c-.294-.023.451 1.69.417 3.836-.026 1.667-.822 3.694-.489 3.8.525.167 1.786-1.739 1.786-3.813s-1.115-3.779-1.714-3.823z" class="prefix__cls-11" data-name="Path 18315" transform="translate(-126.565 -67.869)"/>
                                <path id="prefix__Path_18316" d="M132.989 96.767a5.056 5.056 0 0 0-4.294 4.719 4.364 4.364 0 0 0 4.294 4.454c1.192 0 2.592-2.292 2.663-4.588.07-2.202-1.131-4.404-2.663-4.585z" class="prefix__cls-4" data-name="Path 18316" transform="translate(-128.484 -64.594)"/>
                                <path id="prefix__Path_18317" d="M132.531 97.339c-.285-.023.434 1.635.4 3.712-.024 1.612-.795 3.574-.472 3.676.509.161 1.5-1.669 1.5-3.676s-.848-3.666-1.428-3.712z" class="prefix__cls-11" data-name="Path 18317" transform="translate(-126.557 -64.293)"/>
                            </g>
                            <g id="prefix__Group_11089" data-name="Group 11089" transform="translate(0 16.706)">
                                <path id="prefix__Path_18318" d="M106.04 102.3L44.779 206.171h46.57s37.76-73.918 40.21-75.962S106.04 102.3 106.04 102.3z" class="prefix__cls-4" data-name="Path 18318" transform="translate(-44.779 -47.102)"/>
                                <path id="prefix__Path_18319" d="M102.415 137.357c2.477-1.153 7.268-5.684 6.649-19.549-.238-5.338-4.757-10.531-4.609-15.7.123-4.379-1.115-15.246-1.115-15.931 0-1.113 3.344-7.9 2.722-12.472s-3.169-8.2-4.33-7.584c-2.228 1.183-2.12 4.9-4.207 9.434s-4.882 8.863-5.073 10.622c-1.113 10.2-8.958 26.381-8.843 38.6.049 5.023 10.091 16.636 18.806 12.58z" class="prefix__cls-4" data-name="Path 18319" transform="translate(-24.486 -66.049)"/>
                                <path id="prefix__Path_18320" d="M113.044 110.667s-1.873 2.071-7.246 2.473a25.616 25.616 0 0 0-8.3 1.742c-1.022.317 16.463 9.521 15.488 13.879s-42.9 73.039-42.9 73.039h8.024l44.645-84.451z" class="prefix__cls-5" data-name="Path 18320" transform="translate(-31.549 -42.73)"/>
                                <path id="prefix__Path_18321" d="M93.263 73.673c.224.58 2.276-.03 2.77-.434s2.06-6.094 1.658-6.407a3.1 3.1 0 0 0-1.524-.783c-.142.002-3.254 6.715-2.904 7.624z" class="prefix__cls-11" data-name="Path 18321" transform="translate(-19.454 -66.049)"/>
                            </g>
                        </g>
                        <g id="prefix__Group_11093" data-name="Group 11093" transform="translate(140.764 111.11)">
                            <path id="prefix__Path_18322" d="M155.821 222.538s-9.241-28.487-11.851-31.18-6.448-7.036-8.221-8.892c-2.412-2.528-10.623-15.95-11.047-17.2-2.834-8.382-8.1-18.034-9.445-19.765-2.419-3.121-7.54-4.773-6.993-6.876.533-2.053 7.609-4.866 12.734-.566s11.033 15.471 11.033 15.471a103.166 103.166 0 0 0-2-10.665c-1.661-5.931-5.874-20.414-7.033-24.073-1.474-4.652-5.6-16.242-6.042-18.573s-1.973-6.5 1.807-8.018c3.507-1.41 5.573 2.086 7.137 5.81s6.237 15.51 7.974 20.149c1.692 4.51 5.459 12.336 6.7 14.052a7.078 7.078 0 0 0 3.692 2.281s.537-5.178.773-7.6c.107-1.1.469-5.59 4.97-5.8 4.216-.2 5.551 4.993 5.551 4.993a4.671 4.671 0 0 1 3.207-.988c2.024.164 3.261 1.335 4.011 3.644.286.883.784 3.219.784 3.219a3.7 3.7 0 0 1 3.086-.726c1.861.385 2.77 2.954 3.26 4.371s3.764 11.724 4.279 15.514-.556 22.878.061 25.745 17.23 45.679 17.23 45.679z" class="prefix__cls-4" data-name="Path 18322" transform="translate(-107.605 -91.877)"/>
                            <path id="prefix__Path_18323" d="M116.339 92.192a3.349 3.349 0 0 1 3.819.719c.83.815 2.406 5.855 2.123 6.73s-4.266 2.674-5.213 2.293c-1.267-.509-2.744-4.964-2.952-6.273s.273-2.661 2.223-3.469z" class="prefix__cls-11" data-name="Path 18323" transform="translate(-104.551 -91.872)"/>
                            <path id="prefix__Path_18324" d="M118.106 123.692a88.427 88.427 0 0 1 7.406 10.779c.487.848 1.355 2.427 1.355 2.427a51.016 51.016 0 0 0-1.166 6.875 30.014 30.014 0 0 0 1.2 6.523 13.869 13.869 0 0 1-2.875-8.321 65.784 65.784 0 0 0-.148-7.129c-.508-3.669-5.772-11.154-5.772-11.154z" class="prefix__cls-5" data-name="Path 18324" transform="translate(-102.441 -75.25)"/>
                            <path id="prefix__Path_18325" d="M139.315 114.341s.215 9.057.735 10.87c.582 2.024 1.584 3.338 2.334 3.274 1.054-.09 1.013-1.731.26-4.062s-3.329-10.082-3.329-10.082z" class="prefix__cls-5" data-name="Path 18325" transform="translate(-91.357 -80.137)"/>
                            <path id="prefix__Path_18326" d="M144.57 118.2s.521 6.013 1.2 7.87 1.139 2.846 1.97 2.945.988-.84.557-2.241a88.939 88.939 0 0 0-3.727-8.574z" class="prefix__cls-5" data-name="Path 18326" transform="translate(-88.61 -78.121)"/>
                            <path id="prefix__Path_18327" d="M129.242 117.95a7.708 7.708 0 0 0 1.818 3.4 4.068 4.068 0 0 0 2.206 1.267l.018-1.751a17.443 17.443 0 0 1-2.072-.86 4.668 4.668 0 0 1-1.97-2.056z" class="prefix__cls-5" data-name="Path 18327" transform="translate(-96.621 -78.251)"/>
                            <path id="prefix__Path_18328" d="M116.035 99.268c.921.37 4.7-1.314 5.171-2.214a5.606 5.606 0 0 0-3.045.356 3.86 3.86 0 0 0-2.126 1.858z" data-name="Path 18328" transform="translate(-103.523 -89.209)" style="fill:#ffd3b9"/>
                            <path id="prefix__Path_18329" d="M150.439 175.271c-3.782-4.049-9.389-7.176-14.148-11.522s-10.665-14.17-11.543-16.559c-2.936-7.979-7.586-16.026-9.18-17.859-3.229-3.718.6-5.1-4.02-3.213a11.579 11.579 0 0 1 1.973 1.922c1.341 1.731 6.611 11.383 9.445 19.765.423 1.255 8.635 14.677 11.047 17.2 1.772 1.856 5.611 6.2 8.221 8.892s11.851 31.18 11.851 31.18h6.829c-1.423-4.815-7.797-26.938-10.475-29.806z" class="prefix__cls-5" data-name="Path 18329" transform="translate(-105.868 -74.421)"/>
                            <path id="prefix__Path_18330" d="M114.749 128.525a3.816 3.816 0 0 0 1.3-1.929c-.094-.3-3.9-3.837-5.453-4.009s-2.747.309-2.782.688 6.599 5.312 6.935 5.25z" class="prefix__cls-11" data-name="Path 18330" transform="translate(-107.818 -75.846)"/>
                            <path id="prefix__Path_18331" d="M160.789 139.99c-.515-3.79-3.79-14.095-4.279-15.514s-1.4-3.986-3.26-4.371a3.7 3.7 0 0 0-3.086.726s-.5-2.336-.784-3.219c-.749-2.308-1.987-3.479-4.011-3.644a4.671 4.671 0 0 0-3.207.988 9.362 9.362 0 0 0-.732-1.792 62.736 62.736 0 0 0-7.319 35.419c1.707 19.511 15.566 51.264 29.576 62.83h14.393s-16.613-42.81-17.23-45.679.45-21.954-.061-25.744z" data-name="Path 18331" transform="translate(-94.204 -80.752)" style="opacity:0;fill:#f8bd83"/>
                            <g id="prefix__Group_11091" data-name="Group 11091" transform="translate(15.1 12.028)">
                                <path id="prefix__Path_18332" d="M117.735 101.157a4.008 4.008 0 0 1 1.829-1.185 3.74 3.74 0 0 1 2.132-.081 7.71 7.71 0 0 0-3.96 1.265z" class="prefix__cls-14" data-name="Path 18332" transform="translate(-117.735 -99.777)"/>
                                <path id="prefix__Path_18333" d="M117.867 101.573a4.008 4.008 0 0 1 1.83-1.185 3.74 3.74 0 0 1 2.132-.081 7.721 7.721 0 0 0-3.962 1.265z" class="prefix__cls-14" data-name="Path 18333" transform="translate(-117.666 -99.56)"/>
                            </g>
                            <g id="prefix__Group_11092" data-name="Group 11092" transform="translate(19.647 23.462)">
                                <path id="prefix__Path_18334" d="M120.721 108.666a4.008 4.008 0 0 1 1.829-1.185 3.74 3.74 0 0 1 2.132-.081 6.191 6.191 0 0 0-2.068.361 6.124 6.124 0 0 0-1.893.905z" class="prefix__cls-14" data-name="Path 18334" transform="translate(-120.721 -107.286)"/>
                                <path id="prefix__Path_18335" d="M120.853 109.082a4.008 4.008 0 0 1 1.83-1.185 3.74 3.74 0 0 1 2.132-.081 7.721 7.721 0 0 0-3.962 1.265z" class="prefix__cls-14" data-name="Path 18335" transform="translate(-120.652 -107.069)"/>
                            </g>
                        </g>
                    </g>
                </g>
                <g id="prefix__Group_11098" data-name="Group 11098" transform="translate(-147)">
                    <g id="prefix__Group_11040" data-name="Group 11040" transform="translate(191 -8)">
                        <g id="prefix__Group_11035" data-name="Group 11035">
                            <rect id="prefix__Rectangle_7460" width="102" height="20" class="prefix__cls-15" data-name="Rectangle 7460" rx="3" transform="translate(35 336)"/>
                            <text id="prefix__Net_Banking" class="prefix__cls-16" data-name="Net Banking" transform="translate(112 349)">
                                <tspan x="-67.98" y="0">Net Banking</tspan>
                            </text>
                        </g>
                        <g id="prefix__Group_11036" data-name="Group 11036" transform="translate(0 3)">
                            <rect id="prefix__Rectangle_7461" width="102" height="20" class="prefix__cls-15" data-name="Rectangle 7461" rx="3" transform="translate(35 360)"/>
                            <text id="prefix__NBFC" class="prefix__cls-16" transform="translate(74 373)">
                                <tspan x="-30.276" y="0">NBFC</tspan>
                            </text>
                        </g>
                        <g id="prefix__Group_11037" data-name="Group 11037" transform="translate(0 5)">
                            <rect id="prefix__Rectangle_7462" width="102" height="20" class="prefix__cls-15" data-name="Rectangle 7462" rx="3" transform="translate(35 384)"/>
                            <text id="prefix__RTGS" class="prefix__cls-16" transform="translate(73 397)">
                                <tspan x="-29.304" y="0">RTGS</tspan>
                            </text>
                        </g>
                    </g>
                    <g id="prefix__Group_11097" data-name="Group 11097" transform="translate(325.5 336)">
                        <g id="prefix__Group_11041" data-name="Group 11041" transform="translate(0 2)">
                            <path id="prefix__Line_204" d="M36 0L0 0" class="prefix__cls-17" data-name="Line 204" transform="translate(23 8)"/>
                            <path id="prefix__Line_209" d="M0 0L0 51" class="prefix__cls-17" data-name="Line 209" transform="translate(21 1)"/>
                            <path id="prefix__Line_211" d="M18 0L0 0" class="prefix__cls-17" data-name="Line 211" transform="translate(1)"/>
                            <path id="prefix__Line_212" d="M19 0L0 0" class="prefix__cls-17" data-name="Line 212" transform="translate(0 53)"/>
                            <path id="prefix__Line_213" d="M19 0L0 0" class="prefix__cls-17" data-name="Line 213" transform="translate(0 27)"/>
                        </g>
                        <g id="prefix__Group_11096" data-name="Group 11096" transform="translate(.5)">
                            <circle id="prefix__Ellipse_583" cx="2" cy="2" r="2" class="prefix__cls-18" data-name="Ellipse 583" transform="translate(0 27)"/>
                            <circle id="prefix__Ellipse_588" cx="2" cy="2" r="2" class="prefix__cls-18" data-name="Ellipse 588" transform="translate(0 53)"/>
                            <circle id="prefix__Ellipse_589" cx="2" cy="2" r="2" class="prefix__cls-18" data-name="Ellipse 589"/>
                        </g>
                    </g>
                </g>
            </g>
            <path id="prefix__Union_39" d="M-3053.5 4366a1.5 1.5 0 0 1-1.5-1.5 1.5 1.5 0 0 1 1.5-1.5h17a1.5 1.5 0 0 1 1.5 1.5 1.5 1.5 0 0 1-1.5 1.5zm0-5a1.5 1.5 0 0 1-1.5-1.5 1.5 1.5 0 0 1 1.5-1.5h27a1.5 1.5 0 0 1 1.5 1.5 1.5 1.5 0 0 1-1.5 1.5zm0-5a1.5 1.5 0 0 1-1.5-1.5 1.5 1.5 0 0 1 1.5-1.5h27a1.5 1.5 0 0 1 1.5 1.5 1.5 1.5 0 0 1-1.5 1.5z" data-name="Union 39" transform="translate(3304 -4000)" style="fill:#b3b3b3"/>
        </g>
        <g id="prefix__Group_11110" data-name="Group 11110">
            <path id="prefix__Rectangle_7557" d="M3 0h354a3 3 0 0 1 3 3v28H0V3a3 3 0 0 1 3-3z" data-name="Rectangle 7557" transform="translate(0 476)" style="fill:#ffe3c0"/>
            <text id="prefix__We_do_not_accept_cash_payments" data-name="We do not accept cash payments" transform="translate(222 495)" style="font-size:10px;font-family:Gilroy-Semibold,Gilroy;font-weight:600;fill:#484848;stroke:transparent">
                <tspan x="-156.04" y="0">We do not accept cash payments</tspan>
            </text>
            <text id="prefix__Smart_Tips" data-name="Smart Tips" transform="translate(45 491)" style="font-size:11px;fill:#ff6300;stroke-miterlimit:10;font-family:Gilroy-Bold,Gilroy;font-weight:700;stroke:transparent">
                <tspan x="-30.976" y="0">Smart</tspan><tspan x="-20.537" y="9">Tips</tspan>
            </text>
            <path id="prefix__Polygon_4" d="M4 0l4 7H0z" data-name="Polygon 4" transform="rotate(90 -214.5 274)" style="fill:#ff6300"/>
        </g>
    </g>
</svg>
