<svg xmlns="http://www.w3.org/2000/svg" width="360" height="238" viewBox="0 0 360 238">
    <defs>
        <linearGradient id="prefix__linear-gradient" x1=".5" x2=".5" y2="1" gradientUnits="objectBoundingBox">
            <stop offset="0" stop-color="#6cb9f5"/>
            <stop offset="1" stop-color="#1287e5"/>
        </linearGradient>
        <clipPath id="prefix__clip-path">
            <path id="prefix__Rectangle_7547" d="M0 0H258V203H0z" data-name="Rectangle 7547" transform="translate(0 307.288)" style="stroke:#707070;fill:#fff"/>
        </clipPath>
        <style>
            .prefix__cls-3{fill:#fff8ef}.prefix__cls-4{fill:#484848;stroke:transparent;stroke-miterlimit:10;font-size:12px;font-family:Gilroy-Bold,Gilroy;font-weight:700}.prefix__cls-5{fill:none;stroke:#7e493a;stroke-linecap:round;stroke-linejoin:round;stroke-dasharray:5;opacity:.308}.prefix__cls-6{fill:#d7bba8}.prefix__cls-13{fill:#f8bd83}.prefix__cls-14{fill:#f7ac6f}.prefix__cls-17{fill:#727272}.prefix__cls-18{fill:#facc9f}.prefix__cls-21{fill:#f59a50}
        </style>
    </defs>
    <g id="prefix__Group_11169" data-name="Group 11169" transform="translate(0 -269)">
        <path id="prefix__Rectangle_7366" d="M7 0h346a7 7 0 0 1 7 7v231H0V7a7 7 0 0 1 7-7z" data-name="Rectangle 7366" transform="translate(0 269)" style="fill:#ffeed9"/>
        <g id="prefix__Group_11042" data-name="Group 11042" transform="translate(219 -1)">
            <g id="prefix__Group_11040" data-name="Group 11040" transform="translate(-15 -14)">
                <g id="prefix__Group_11035" data-name="Group 11035" transform="translate(-215 -12)">
                    <rect id="prefix__Rectangle_7460" width="86" height="22" class="prefix__cls-3" data-name="Rectangle 7460" rx="3" transform="translate(40 332)"/>
                    <text id="prefix__Pay_Interest" class="prefix__cls-4" data-name="Pay Interest" transform="translate(115 346)">
                        <tspan x="-65.688" y="0">Pay Interest</tspan>
                    </text>
                </g>
                <g id="prefix__Group_11036" data-name="Group 11036" transform="translate(-6 -36)">
                    <rect id="prefix__Rectangle_7461" width="76" height="22" class="prefix__cls-3" data-name="Rectangle 7461" rx="3" transform="translate(35 358)"/>
                    <text id="prefix__Close_loan" class="prefix__cls-4" data-name="Close loan" transform="translate(103 373)">
                        <tspan x="-58.608" y="0">Close loan</tspan>
                    </text>
                </g>
                <g id="prefix__Group_11037" data-name="Group 11037" transform="translate(-240 -7)">
                    <rect id="prefix__Rectangle_7462" width="95" height="22" class="prefix__cls-3" data-name="Rectangle 7462" rx="3" transform="translate(271 384)"/>
                    <text id="prefix__Part_payment" class="prefix__cls-4" data-name="Part payment" transform="translate(358 398)">
                        <tspan x="-76.32" y="0">Part payment</tspan>
                    </text>
                </g>
                <g id="prefix__Group_11038" data-name="Group 11038" transform="translate(0 -34)">
                    <rect id="prefix__Rectangle_7463" width="66" height="22" class="prefix__cls-3" data-name="Rectangle 7463" rx="3" transform="translate(-171 428)"/>
                    <text id="prefix__Renewal" class="prefix__cls-4" transform="translate(-116 443)">
                        <tspan x="-47.172" y="0">Renewal</tspan>
                    </text>
                </g>
            </g>
        </g>
        <path id="prefix__Line_202" d="M21 0L0 0" class="prefix__cls-5" data-name="Line 202" transform="translate(212 373)"/>
        <circle id="prefix__Ellipse_594" cx="4" cy="4" r="4" class="prefix__cls-6" data-name="Ellipse 594" transform="translate(231 369)"/>
        <path id="prefix__Line_214" d="M22 14L0 0" class="prefix__cls-5" data-name="Line 214" transform="translate(115 315)"/>
        <circle id="prefix__Ellipse_595" cx="4" cy="4" r="4" class="prefix__cls-6" data-name="Ellipse 595" transform="translate(111 311)"/>
        <path id="prefix__Line_215" d="M0 15L23 0" class="prefix__cls-5" data-name="Line 215" transform="translate(210 318)"/>
        <circle id="prefix__Ellipse_596" cx="4" cy="4" r="4" class="prefix__cls-6" data-name="Ellipse 596" transform="translate(229 314)"/>
        <path id="prefix__Line_216" d="M21 0L0 0" class="prefix__cls-5" data-name="Line 216" transform="translate(99 390)"/>
        <circle id="prefix__Ellipse_597" cx="4" cy="4" r="4" class="prefix__cls-6" data-name="Ellipse 597" transform="translate(95 386)"/>
        <path id="prefix__Rectangle_7557" d="M3 0h354a3 3 0 0 1 3 3v28H0V3a3 3 0 0 1 3-3z" data-name="Rectangle 7557" transform="translate(0 476)" style="fill:#fca942;opacity:.161"/>
        <text id="prefix__You_can_pay_for_multiple_loans_from_the_same_lender_bank" data-name="You can pay for multiple loans from the same lender bank" transform="translate(336 495)" style="font-size:10px;font-family:Gilroy-Semibold,Gilroy;font-weight:600;stroke:transparent;fill:#484848">
            <tspan x="-265.59" y="0">You can pay for multiple loans from the same lender bank</tspan>
        </text>
        <text id="prefix__Smart_Tips" data-name="Smart Tips" transform="translate(45 491)" style="font-size:11px;fill:#ff6300;font-family:Gilroy-Bold,Gilroy;font-weight:700;stroke-miterlimit:10;stroke:transparent">
            <tspan x="-30.976" y="0">Smart</tspan><tspan x="-20.537" y="9">Tips</tspan>
        </text>
        <path id="prefix__Polygon_4" d="M4 0l4 7H0z" data-name="Polygon 4" transform="rotate(90 -214.5 274)" style="fill:#ff6300"/>
        <g id="prefix__Group_11109" data-name="Group 11109">
            <g id="prefix__Group_11107" data-name="Group 11107" transform="translate(0 -31)">
                <g id="prefix__Mask_Group_77" data-name="Mask Group 77" transform="translate(44 -3.288)">
                    <g id="prefix__Group_11094" data-name="Group 11094" transform="translate(3.738 331)" style="opacity:.8">
                        <g id="prefix__Group_11090" data-name="Group 11090">
                            <g id="prefix__Group_11082" data-name="Group 11082" transform="translate(76.315 48.354)">
                                <path id="prefix__Path_18300" d="M85.006 130.157c.1 7.879 15.038 22.566 28.218 24.771s53.03-24.059 52.277-29-21.24-45.654-31.7-43.448-48.964 34.444-48.795 47.677z" class="prefix__cls-13" data-name="Path 18300" transform="translate(-85.006 -78.921)"/>
                                <path id="prefix__Path_18301" d="M153.378 103.951s-50.906 6.249-54.028 9.639 1.051 21.781 5.568 22 41.949-14.59 48.46-31.639z" class="prefix__cls-14" data-name="Path 18301" transform="translate(-73.11 -59.585)"/>
                                <path id="prefix__Path_18302" d="M139.374 82.473l-7.757 5.727 12.088 5.513-12.4 10.647 11.648 2.332-11.387 10.489s7.406 4.724 6.378 5.137-12.449 10.2-12.449 10.2l1.231-51.947z" class="prefix__cls-14" data-name="Path 18302" transform="translate(-48.682 -80.565)"/>
                            </g>
                            <g id="prefix__Group_11087" data-name="Group 11087" transform="translate(100.868)">
                                <g id="prefix__Group_11084" data-name="Group 11084">
                                    <path id="prefix__Path_18336" d="M0 0h53.4v92.207H0z" data-name="Path 18336" transform="translate(3.353 6.031)" style="fill:#fafafa"/>
                                    <g id="prefix__Group_11083" data-name="Group 11083">
                                        <path id="prefix__Path_18303" d="M153.723 55.077H102.4a4.569 4.569 0 0 0-4.449 4.684v94.031a4.571 4.571 0 0 0 4.449 4.682h51.327a4.573 4.573 0 0 0 4.449-4.682V59.761a4.571 4.571 0 0 0-4.453-4.684zm-.061 92.72h-51.2V66.543h51.2z" data-name="Path 18303" transform="translate(-97.948 -55.077)" style="fill:#272727"/>
                                        <path id="prefix__Path_18305" d="M123.078 57.575h-11.649a1.312 1.312 0 1 0 0 2.584h11.648a1.312 1.312 0 1 0 0-2.584z" class="prefix__cls-17" data-name="Path 18305" transform="translate(-87.237 -52.836)"/>
                                        <path id="prefix__Rectangle_7546" d="M.93 0h9.023a.929.929 0 0 1 .929.929v3.986a.93.93 0 0 1-.93.93H.93a.93.93 0 0 1-.93-.93V.93A.93.93 0 0 1 .93 0z" class="prefix__cls-17" data-name="Rectangle 7546" transform="translate(24.671 95.14)"/>
                                    </g>
                                </g>
                            </g>
                            <g id="prefix__Group_11088" data-name="Group 11088" transform="translate(158.936 39.003)">
                                <path id="prefix__Path_18310" d="M134.575 75.64c-.861-.1-5.779 1.662-5.853 6.429s4.257 6.065 5.853 6.069c1.622.006 3.529-3.123 3.627-6.251.098-2.999-1.54-5.999-3.627-6.247z" class="prefix__cls-13" data-name="Path 18310" transform="translate(-128.409 -75.636)"/>
                                <path id="prefix__Path_18311" d="M132.957 76.265c-.387-.03.594 2.229.548 5.058-.034 2.2-1.083 4.87-.643 5.008.692.22 2.041-2.275 2.041-5.008s-1.155-4.995-1.946-5.058z" class="prefix__cls-18" data-name="Path 18311" transform="translate(-124.791 -75.072)"/>
                                <path id="prefix__Path_18312" d="M134.491 82.683c-.861-.1-5.779 1.662-5.851 6.429s4.255 6.063 5.851 6.069c1.622 0 7.116-1.478 7.116-5.889 0-4.073-5.029-6.362-7.116-6.609z" class="prefix__cls-13" data-name="Path 18312" transform="translate(-128.482 -69.317)"/>
                                <path id="prefix__Path_18313" d="M132.875 83.308c-.389-.03.592 2.227.548 5.058-.034 2.2-1.085 4.868-.643 5.008.691.22 2.832-2.294 2.832-5.027s-1.948-4.976-2.737-5.039z" class="prefix__cls-18" data-name="Path 18313" transform="translate(-124.865 -68.753)"/>
                                <path id="prefix__Path_18314" d="M134.088 89.906c-.814-.095-5.462 1.571-5.53 6.077a5.621 5.621 0 0 0 5.53 5.735c1.533.006 6.871-1.757 6.871-5.908 0-4.026-4.9-5.671-6.871-5.904z" class="prefix__cls-13" data-name="Path 18314" transform="translate(-128.557 -62.837)"/>
                                <path id="prefix__Path_18315" d="M132.558 90.5c-.366-.028.562 2.106.52 4.779-.032 2.077-1.024 4.6-.609 4.733.655.209 2.225-2.167 2.225-4.75s-1.388-4.706-2.136-4.762z" class="prefix__cls-18" data-name="Path 18315" transform="translate(-125.138 -62.304)"/>
                                <path id="prefix__Path_18316" d="M134.045 96.768c-.785-.093-5.284 1.52-5.35 5.879a5.438 5.438 0 0 0 5.35 5.549c1.485 0 3.229-2.855 3.318-5.716.088-2.743-1.409-5.486-3.318-5.712z" class="prefix__cls-13" data-name="Path 18316" transform="translate(-128.433 -56.681)"/>
                                <path id="prefix__Path_18317" d="M132.568 97.339c-.355-.028.541 2.038.5 4.625-.03 2.009-.99 4.453-.588 4.58.634.2 1.867-2.079 1.867-4.58s-1.056-4.564-1.779-4.625z" class="prefix__cls-18" data-name="Path 18317" transform="translate(-125.125 -56.166)"/>
                            </g>
                            <g id="prefix__Group_11089" data-name="Group 11089" transform="translate(0 20.815)">
                                <path id="prefix__Path_18318" d="M121.108 102.3L44.779 231.717H102.8s47.047-92.1 50.1-94.646-31.792-34.771-31.792-34.771z" class="prefix__cls-13" data-name="Path 18318" transform="translate(-44.779 -33.525)"/>
                                <path id="prefix__Path_18319" d="M107.041 154.9c3.087-1.436 9.055-7.082 8.285-24.357-.3-6.651-5.927-13.121-5.743-19.565.154-5.456-1.389-19-1.389-19.85 0-1.387 4.166-9.842 3.392-15.539s-3.948-10.218-5.4-9.45c-2.775 1.474-2.641 6.1-5.242 11.755s-6.082 11.043-6.321 13.234c-1.387 12.707-11.161 32.87-11.018 48.094.065 6.252 12.571 20.727 23.436 15.678z" class="prefix__cls-13" data-name="Path 18319" transform="translate(-9.944 -66.049)"/>
                                <path id="prefix__Path_18320" d="M123.608 110.667s-2.333 2.58-9.028 3.081a31.916 31.916 0 0 0-10.337 2.17c-1.273.395 20.512 11.863 19.3 17.292s-53.446 91-53.446 91h10l55.626-105.222z" class="prefix__cls-14" data-name="Path 18320" transform="translate(-22.068 -26.021)"/>
                                <path id="prefix__Path_18321" d="M93.27 75.548c.279.723 2.836-.038 3.451-.541s2.567-7.592 2.066-7.983a3.865 3.865 0 0 0-1.9-.975c-.175.002-4.053 8.366-3.617 9.499z" class="prefix__cls-18" data-name="Path 18321" transform="translate(-1.307 -66.049)"/>
                            </g>
                        </g>
                        <g id="prefix__Group_11093" data-name="Group 11093" transform="translate(119.593 69.815)">
                            <path id="prefix__Path_18322" d="M167.528 254.675s-11.514-35.493-14.765-38.849-8.034-8.767-10.243-11.079c-3.005-3.149-13.236-19.872-13.764-21.436-3.531-10.444-10.1-22.47-11.768-24.627-3.015-3.889-9.395-5.947-8.714-8.567.664-2.557 9.48-6.063 15.866-.706s13.747 19.277 13.747 19.277a128.538 128.538 0 0 0-2.495-13.287c-2.07-7.389-7.319-25.435-8.763-29.994-1.836-5.8-6.983-20.237-7.528-23.141s-2.459-8.1 2.252-9.99c4.369-1.757 6.943 2.6 8.892 7.239s7.771 19.324 9.935 25.1c2.108 5.619 6.8 15.37 8.353 17.509a8.819 8.819 0 0 0 4.6 2.842s.67-6.452.964-9.47c.133-1.374.584-6.964 6.192-7.226 5.253-.247 6.917 6.221 6.917 6.221a5.82 5.82 0 0 1 4-1.231c2.521.2 4.064 1.664 5 4.54.357 1.1.977 4.011.977 4.011a4.607 4.607 0 0 1 3.845-.9c2.318.48 3.451 3.68 4.062 5.447s4.69 14.608 5.331 19.33-.692 28.5.076 32.077 21.468 56.914 21.468 56.914z" class="prefix__cls-13" data-name="Path 18322" transform="translate(-107.453 -91.877)"/>
                            <path id="prefix__Path_18323" d="M116.9 92.267a4.172 4.172 0 0 1 4.758.9c1.034 1.015 3 7.294 2.645 8.385s-5.316 3.331-6.5 2.857c-1.578-.634-3.419-6.185-3.679-7.816s.343-3.323 2.776-4.326z" class="prefix__cls-18" data-name="Path 18323" transform="translate(-102.21 -91.869)"/>
                            <path id="prefix__Path_18324" d="M118.106 123.692a110.177 110.177 0 0 1 9.228 13.43c.607 1.057 1.688 3.024 1.688 3.024a63.564 63.564 0 0 0-1.453 8.566c-.082 2.728 1.5 8.127 1.5 8.127a17.28 17.28 0 0 1-3.582-10.368 81.96 81.96 0 0 0-.184-8.882c-.639-4.571-7.197-13.897-7.197-13.897z" class="prefix__cls-14" data-name="Path 18324" transform="translate(-98.588 -63.335)"/>
                            <path id="prefix__Path_18325" d="M139.315 114.341s.267 11.284.916 13.544c.725 2.521 1.973 4.158 2.908 4.079 1.313-.112 1.262-2.157.324-5.062s-4.148-12.561-4.148-12.561z" class="prefix__cls-14" data-name="Path 18325" transform="translate(-79.561 -71.724)"/>
                            <path id="prefix__Path_18326" d="M144.57 118.2s.649 7.492 1.491 9.806 1.419 3.546 2.455 3.669 1.231-1.047.694-2.793a110.811 110.811 0 0 0-4.64-10.682z" class="prefix__cls-14" data-name="Path 18326" transform="translate(-74.847 -68.263)"/>
                            <path id="prefix__Path_18327" d="M129.242 117.95a9.6 9.6 0 0 0 2.265 4.232 5.068 5.068 0 0 0 2.749 1.578l.023-2.182a21.733 21.733 0 0 1-2.582-1.072 5.817 5.817 0 0 1-2.455-2.556z" class="prefix__cls-14" data-name="Path 18327" transform="translate(-88.598 -68.487)"/>
                            <path id="prefix__Path_18328" d="M116.035 99.83h.006c1.148.461 5.851-1.637 6.443-2.758a6.984 6.984 0 0 0-3.794.444 4.809 4.809 0 0 0-2.655 2.314z" data-name="Path 18328" transform="translate(-100.446 -87.296)" style="fill:#ffd3b9"/>
                            <path id="prefix__Path_18329" d="M160 187.566c-4.712-5.044-11.7-8.941-17.628-14.355s-13.287-17.655-14.382-20.631c-3.658-9.941-9.451-19.967-11.438-22.251-4.024-4.633.749-6.353-5.008-4a14.427 14.427 0 0 1 2.459 2.394c1.671 2.157 8.237 14.183 11.768 24.627.527 1.563 10.759 18.286 13.764 21.436 2.208 2.313 6.991 7.723 10.243 11.079s14.765 38.849 14.765 38.849h8.509c-1.769-6.014-9.711-33.573-13.052-37.148z" class="prefix__cls-14" data-name="Path 18329" transform="translate(-104.472 -61.913)"/>
                            <path id="prefix__Path_18330" d="M116.454 129.994a4.754 4.754 0 0 0 1.624-2.4c-.118-.374-4.855-4.781-6.794-5s-3.422.385-3.466.857 8.217 6.621 8.636 6.543z" class="prefix__cls-18" data-name="Path 18330" transform="translate(-107.818 -64.36)"/>
                            <path id="prefix__Path_18331" d="M167.41 146.588c-.641-4.722-4.722-17.562-5.331-19.33s-1.743-4.967-4.062-5.447a4.607 4.607 0 0 0-3.845.9s-.62-2.91-.977-4.011c-.933-2.876-2.476-4.335-5-4.54a5.82 5.82 0 0 0-4 1.231 11.665 11.665 0 0 0-.913-2.233 78.166 78.166 0 0 0-9.119 44.131c2.127 24.31 19.394 63.872 36.85 78.283h17.934s-20.7-53.34-21.468-56.914.572-27.349-.069-32.07z" data-name="Path 18331" transform="translate(-84.448 -72.78)" style="opacity:0;fill:#f8bd83"/>
                            <g id="prefix__Group_11091" data-name="Group 11091" transform="translate(18.814 14.987)">
                                <path id="prefix__Path_18332" d="M117.735 101.5a4.994 4.994 0 0 1 2.278-1.476 4.66 4.66 0 0 1 2.656-.1 9.606 9.606 0 0 0-4.934 1.577z" class="prefix__cls-21" data-name="Path 18332" transform="translate(-117.735 -99.777)"/>
                                <path id="prefix__Path_18333" d="M117.867 101.912a4.994 4.994 0 0 1 2.28-1.476 4.66 4.66 0 0 1 2.656-.1 9.62 9.62 0 0 0-4.936 1.577z" class="prefix__cls-21" data-name="Path 18333" transform="translate(-117.617 -99.404)"/>
                            </g>
                            <g id="prefix__Group_11092" data-name="Group 11092" transform="translate(24.479 29.232)">
                                <path id="prefix__Path_18334" d="M120.721 109a4.994 4.994 0 0 1 2.279-1.471 4.66 4.66 0 0 1 2.656-.1 7.714 7.714 0 0 0-2.576.45 7.631 7.631 0 0 0-2.359 1.121z" class="prefix__cls-21" data-name="Path 18334" transform="translate(-120.721 -107.286)"/>
                                <path id="prefix__Path_18335" d="M120.853 109.421a4.994 4.994 0 0 1 2.28-1.476 4.66 4.66 0 0 1 2.656-.1 9.62 9.62 0 0 0-4.936 1.577z" class="prefix__cls-21" data-name="Path 18335" transform="translate(-120.603 -106.913)"/>
                            </g>
                        </g>
                    </g>
                </g>
                <path id="prefix__Union_39" d="M-3054 4380a1 1 0 0 1-1-1 1 1 0 0 1 1-1h24a1 1 0 0 1 1 1 1 1 0 0 1-1 1zm0-5a1 1 0 0 1-1-1 1 1 0 0 1 1-1h37a1 1 0 0 1 1 1 1 1 0 0 1-1 1zm0-5a1 1 0 0 1-1-1 1 1 0 0 1 1-1h37a1 1 0 0 1 1 1 1 1 0 0 1-1 1zm0-5a1 1 0 0 1-1-1 1 1 0 0 1 1-1h37a1 1 0 0 1 1 1 1 1 0 0 1-1 1zm0-5a1 1 0 0 1-1-1 1 1 0 0 1 1-1h37a1 1 0 0 1 1 1 1 1 0 0 1-1 1zm0-5a1 1 0 0 1-1-1 1 1 0 0 1 1-1h37a1 1 0 0 1 1 1 1 1 0 0 1-1 1z" data-name="Union 39" transform="translate(3214 -4005)" style="fill:#d9d9d9"/>
            </g>
            <g id="prefix__Group_11108" data-name="Group 11108" transform="translate(69 -19)">
                <rect id="prefix__Rectangle_7548" width="39" height="10" data-name="Rectangle 7548" rx="5" transform="translate(91 373)"/>
                <text id="prefix__Pay" transform="translate(104 380)" style="font-size:8px;font-family:Gilroy-Bold,Gilroy;font-weight:700;stroke:transparent;fill:#fff">
                    <tspan x="0" y="0">Pay</tspan>
                </text>
            </g>
        </g>
    </g>
</svg>
