<svg width="395" height="213" viewBox="0 0 395 213" fill="none" xmlns="http://www.w3.org/2000/svg">
<g opacity="0.2" clip-path="url(#clip0)">
<path d="M280.608 196.376C282.748 198.508 284.399 200.342 284.488 203.507C284.565 206.245 283.877 208.953 283.827 211.691C283.796 213.438 286.508 213.438 286.54 211.691C286.604 208.151 287.756 204.471 286.917 200.956C286.273 198.258 284.434 196.359 282.526 194.459C281.288 193.225 279.369 195.142 280.608 196.376L280.608 196.376Z" fill="#FE9411"/>
<path d="M272.628 142.011C272.986 141.085 274.289 140.344 275.066 139.823C276.031 139.176 277.04 138.601 278.031 137.999C279.522 137.095 278.161 134.749 276.663 135.657C274.308 137.086 271.068 138.56 270.012 141.29C269.382 142.918 272.004 143.624 272.628 142.011L272.628 142.011Z" fill="#FE9411"/>
<path d="M109.519 193.686C109.327 193.627 109.134 193.567 108.941 193.507C108.663 193.421 108.373 193.448 108.112 193.551C108.048 193.518 107.99 193.488 107.973 193.477C107.84 193.386 107.822 193.373 107.922 193.44C107.855 193.382 107.792 193.319 107.731 193.253C107.221 192.728 106.326 192.741 105.814 193.253C105.287 193.779 105.303 194.644 105.814 195.172C106.736 196.123 108.208 196.738 109.519 196.302C110.787 195.881 110.827 194.092 109.519 193.686V193.686Z" fill="#FE9411"/>
<path d="M66.0333 81.6811C66.8723 81.6558 67.6571 81.3439 68.1977 80.6812C68.6597 80.1143 68.752 79.3178 68.1977 78.7636C67.7203 78.2853 66.7448 78.1931 66.2792 78.7636C66.2277 78.8323 66.1698 78.8974 66.1084 78.958L66.1038 78.9607L66.0839 78.967L66.0333 78.9688C65.3245 78.9905 64.6437 79.5773 64.6771 80.325C64.7088 81.041 65.2738 81.7037 66.0333 81.6811L66.0333 81.6811Z" fill="#FE9411"/>
<path d="M281.32 92.7497L282.526 91.5445C283.044 91.0265 283.044 90.1441 282.526 89.626C282.006 89.1071 281.127 89.1071 280.607 89.626C280.206 90.0283 279.804 90.4298 279.402 90.8321C278.884 91.3501 278.884 92.2317 279.402 92.7497C279.922 93.2696 280.801 93.2696 281.32 92.7497L281.32 92.7497Z" fill="#FE9411"/>
<path d="M30.2286 199.136C33.1751 198.03 36.5944 196.172 37.5709 192.909C38.5238 189.723 35.1976 188.061 32.6399 187.48C30.9401 187.094 30.2151 189.708 31.9193 190.095C32.7131 190.276 33.5856 190.468 34.2673 190.937C35.2853 191.635 35.0059 192.302 34.3631 193.231C33.2149 194.893 31.3461 195.831 29.508 196.521C27.8888 197.129 28.5904 199.752 30.2286 199.136H30.2286Z" fill="#FE9411"/>
<path d="M23.157 158.787C23.7582 159.139 24.684 158.958 25.0122 158.301C25.2138 157.899 25.4145 157.497 25.6153 157.096C25.9425 156.44 25.7897 155.626 25.1288 155.24C24.5276 154.889 23.6018 155.069 23.2736 155.727C23.072 156.128 22.8713 156.53 22.6705 156.932C22.3433 157.587 22.4961 158.401 23.157 158.787V158.787Z" fill="#FE9411"/>
<path d="M110.499 33.6698C110.486 33.6616 110.471 33.6589 110.458 33.6508C110.466 33.6589 110.475 33.667 110.486 33.6761L110.495 33.6716L110.499 33.6698Z" fill="#FE9411"/>
<path d="M127.75 128.412C128.483 127.738 130.111 128.186 131.01 128.205C132.757 128.245 132.756 125.533 131.01 125.493C129.17 125.452 127.315 125.131 125.833 126.493C124.545 127.677 126.466 129.591 127.75 128.412V128.412Z" fill="#FE9411"/>
<path d="M382.374 198.581C384.073 198.641 385.628 197.934 387.341 197.955C389.275 197.978 391.175 197.827 392.934 198.762C394.248 199.46 395.749 197.719 394.578 196.632C394.446 196.51 394.315 196.389 394.183 196.267C393.854 195.961 393.482 195.864 393.133 195.904C391.76 195.407 390.386 195.285 388.834 195.269C387.711 195.257 386.574 195.164 385.457 195.318C384.402 195.464 383.455 195.907 382.374 195.869C380.628 195.808 380.631 198.521 382.374 198.581V198.581Z" fill="#FE9411"/>
<path d="M387.881 104.489C390.028 103.029 392.866 102.022 393.929 99.4594C394.212 98.7777 393.623 97.9748 392.982 97.7913C392.205 97.568 391.593 98.0652 391.313 98.7379C390.985 99.529 389.822 100.127 389.142 100.552C388.273 101.096 387.36 101.57 386.513 102.147C385.077 103.123 386.433 105.474 387.881 104.489Z" fill="#FE9411"/>
<path d="M371.767 2.75837C373.549 3.00157 375.089 4.23478 376.949 4.01236C377.682 3.92466 378.297 3.45182 378.305 2.65621C378.313 1.98987 377.676 1.21326 376.949 1.30004C375.4 1.4854 374.002 0.348918 372.488 0.142788C371.757 0.0433443 371.041 0.319988 370.82 1.09029C370.639 1.72137 371.042 2.65982 371.767 2.75837Z" fill="#FE9411"/>
<path d="M18.6026 23.2221C19.7201 21.337 21.2083 19.7422 22.6096 18.0714C23.7244 16.7423 21.8158 14.8148 20.692 16.1538C19.1442 17.9991 17.4942 19.772 16.261 21.8533C15.3686 23.3577 17.713 24.7238 18.6026 23.2221V23.2221Z" fill="#FE9411"/>
<path d="M1.89532 95.1261C3.3202 93.7129 2.90972 91.7465 2.89526 89.9473C2.8817 88.2033 0.169355 88.1988 0.182951 89.9473C0.190169 90.8189 0.665712 92.5258 -0.0223153 93.2075C-1.26274 94.4389 0.65489 96.3565 1.89532 95.1261Z" fill="#FE9411"/>
</g>
<defs>
<clipPath id="clip0">
<rect width="395" height="213" fill="white" transform="translate(395 213) rotate(-180)"/>
</clipPath>
</defs>
</svg>
