<svg width="55" height="55" viewBox="0 0 55 55" fill="none" xmlns="http://www.w3.org/2000/svg">
<g id="Group 8146" clip-path="url(#clip0)">
<path id="Path 6713" d="M27.2824 54.5648C24.9184 54.5648 22.8542 52.5235 20.674 51.9406C18.4181 51.3378 15.6139 52.0557 13.6387 50.9129C11.6351 49.7536 10.8611 46.9551 9.23543 45.3285C7.60907 43.7029 4.81086 42.9289 3.65175 40.9258C2.50898 38.9507 3.22712 36.1459 2.62412 33.8906C2.0412 31.7105 0 29.6462 0 27.2824C0 24.9184 2.0412 22.854 2.62412 20.674C3.22713 18.4181 2.50898 15.6132 3.65175 13.6381C4.81085 11.6343 7.60968 10.8612 9.23619 9.23463C10.8617 7.60917 11.6359 4.8102 13.6387 3.65158C15.6139 2.50881 18.4187 3.22647 20.674 2.62353C22.8542 2.0411 24.9184 0 27.2824 0C29.6463 0 31.7105 2.0411 33.8905 2.62353C36.1466 3.22647 38.9515 2.50881 40.9266 3.65158C42.9302 4.81083 43.7035 7.60955 45.3293 9.23532C46.9556 10.8616 49.7544 11.6351 50.913 13.6387C52.0557 15.6138 51.3382 18.4181 51.9411 20.674C52.524 22.854 54.5647 24.9184 54.5647 27.2824C54.5647 29.6462 52.524 31.7097 51.9411 33.8906C51.3382 36.1466 52.0557 38.9507 50.913 40.9263C49.7539 42.9295 46.9549 43.7035 45.3293 45.3291C43.703 46.9551 42.9296 49.7536 40.926 50.9129C38.9515 52.0557 36.1466 51.3378 33.8905 51.9406C31.7105 52.5235 29.6463 54.5648 27.2824 54.5648Z" fill="#50BB7D"/>
<path id="Path 6714" d="M39.4737 19.7772L37.1831 17.509C36.8694 17.198 36.4877 17.0423 36.0383 17.0423C35.5891 17.0423 35.2071 17.198 34.8934 17.509L23.8474 28.465L18.8964 23.5459C18.5816 23.2342 18.2005 23.0783 17.7512 23.0783C17.3019 23.0783 16.9208 23.2342 16.6065 23.5459L14.3158 25.8134C14.0016 26.1251 13.8447 26.503 13.8447 26.9474C13.8447 27.3918 14.0016 27.7698 14.3158 28.0816L20.412 34.1177L22.7014 36.386C23.0159 36.6968 23.3978 36.8528 23.8474 36.8528C24.2957 36.8528 24.6777 36.6968 24.992 36.386L27.2826 34.1177L39.4737 22.0446C39.7871 21.7337 39.9448 21.3556 39.9448 20.9105C39.9448 20.4661 39.7871 20.0881 39.4737 19.7772Z" fill="white"/>
</g>
<defs>
<clipPath id="clip0">
<rect width="54.5647" height="54.5648" fill="white"/>
</clipPath>
</defs>
</svg>
