<svg xmlns="http://www.w3.org/2000/svg" id="icon_info_Orange" width="16" height="16" viewBox="0 0 16 16">
    <defs>
        <style>
            .cls-1{fill:#d1281e}.cls-2{fill:#fff}
        </style>
    </defs>
    <circle id="Ellipse_267" cx="8" cy="8" r="8" class="cls-1" data-name="Ellipse 267"/>
    <path id="Path_17967" d="M6.322 10.433a.95.95 0 0 1-1.053-.894.952.952 0 0 1 1.053-.894.906.906 0 1 1 0 1.788zm.414-3.414a.424.424 0 0 1-.828 0 13.486 13.486 0 0 1-.877-3.739 1.3 1.3 0 0 1 2.593 0 13.814 13.814 0 0 1-.887 3.739z" class="cls-2" data-name="Path 17967" transform="translate(1.64 1.646)"/>
</svg>
