<svg xmlns="http://www.w3.org/2000/svg" width="24.571" height="32" viewBox="0 0 24.571 32">
    <defs>
        <style>
            .cls-1{fill:#f2f2f2}.cls-2{fill:#d9d9d9}.cls-3{fill:#cc4b4c}.cls-4{fill:#fff}
        </style>
    </defs>
    <g id="pdf" transform="translate(-6.5)">
        <path id="Path_16395" d="M23.92 0H7.336C6.874 0 6.5.374 6.5 1.1v30.329a.861.861 0 0 0 .836.571h22.9a.861.861 0 0 0 .836-.571V7.416c0-.4-.053-.526-.147-.62L24.275.147A.5.5 0 0 0 23.92 0z" class="cls-1" data-name="Path 16395"/>
        <path id="Path_16396" d="M37.5.151V5.66h5.509z" class="cls-2" data-name="Path 16396" transform="translate(-12.008 -.081)"/>
        <path id="Path_16397" d="M18.393 19.189a.746.746 0 0 1-.45-.152A1.114 1.114 0 0 1 17.425 18c.085-.757 1.021-1.549 2.783-2.356a31.208 31.208 0 0 0 1.761-5c-.464-1.01-.915-2.32-.586-3.088a.892.892 0 0 1 .527-.565 2.283 2.283 0 0 1 .472-.08c.234 0 .44.3.586.488s.448.545-.173 3.162a14.856 14.856 0 0 0 2.366 3.516 9.045 9.045 0 0 1 1.561-.166c.728 0 1.169.17 1.349.519a.941.941 0 0 1-.181 1 1.236 1.236 0 0 1-1.032.554 3.091 3.091 0 0 1-1.958-1.062 22.277 22.277 0 0 0-4.1 1.312 13.192 13.192 0 0 1-1.108 1.976c-.482.668-.892.979-1.299.979zm1.238-2.383c-.994.558-1.4 1.017-1.428 1.276 0 .043-.017.155.2.322.069-.022.474-.204 1.227-1.598zm6.34-2.065c.379.292.471.439.719.439a.7.7 0 0 0 .563-.205.736.736 0 0 0 .107-.193c-.057-.03-.133-.092-.546-.092a6.8 6.8 0 0 0-.844.051zm-3.471-3.06a33.145 33.145 0 0 1-1.246 3.519 23.23 23.23 0 0 1 3.02-.939 15.915 15.915 0 0 1-1.774-2.58zm-.282-3.934a1.115 1.115 0 0 0 .045 1.5c.437-.988-.028-1.507-.048-1.5z" class="cls-3" data-name="Path 16397" transform="translate(-4.332 .304)"/>
        <path id="Path_16398" d="M30.235 46.9H7.336a.77.77 0 0 1-.836-.68V39h24.571v7.224a.77.77 0 0 1-.836.676z" class="cls-3" data-name="Path 16398" transform="translate(0 -14.904)"/>
        <g id="Group_9828" data-name="Group 9828" transform="translate(13.17 25.921)">
            <path id="Path_16399" d="M16.507 47.609h-.763v-4.685h1.347a1.891 1.891 0 0 1 .591.1 1.607 1.607 0 0 1 .524.286 1.493 1.493 0 0 1 .375.461 1.277 1.277 0 0 1 .143.607 1.661 1.661 0 0 1-.121.645 1.349 1.349 0 0 1-.337.486 1.519 1.519 0 0 1-.521.3 2.006 2.006 0 0 1-.674.108h-.566v1.691zm0-4.106v1.856h.7a.831.831 0 0 0 .277-.048.7.7 0 0 0 .251-.156.761.761 0 0 0 .184-.3 1.429 1.429 0 0 0 .07-.48 1.3 1.3 0 0 0-.032-.264.761.761 0 0 0-.13-.286.77.77 0 0 0-.277-.229 1.028 1.028 0 0 0-.471-.092h-.572z" class="cls-4" data-name="Path 16399" transform="translate(-15.744 -42.924)"/>
            <path id="Path_16400" d="M27.866 45.136a3.442 3.442 0 0 1-.124.988 2.457 2.457 0 0 1-.315.687 1.617 1.617 0 0 1-.429.436 2.152 2.152 0 0 1-.461.239 1.9 1.9 0 0 1-.407.1 2.709 2.709 0 0 1-.273.021h-1.773v-4.683H25.5a2.681 2.681 0 0 1 1.039.187 2.157 2.157 0 0 1 .744.5 2.048 2.048 0 0 1 .442.709 2.346 2.346 0 0 1 .141.816zM25.6 47.049a1.263 1.263 0 0 0 1.119-.5 2.516 2.516 0 0 0 .343-1.437 2.433 2.433 0 0 0-.07-.578 1.237 1.237 0 0 0-.27-.518 1.426 1.426 0 0 0-.543-.375 2.34 2.34 0 0 0-.89-.143h-.445v3.547h.756z" class="cls-4" data-name="Path 16400" transform="translate(-20.207 -42.924)"/>
            <path id="Path_16401" d="M35.373 43.5v1.475h1.958v.525h-1.958v2.11H34.6v-4.686h2.93v.576z" class="cls-4" data-name="Path 16401" transform="translate(-25.832 -42.924)"/>
        </g>
    </g>
</svg>
