<svg xmlns="http://www.w3.org/2000/svg" width="15" height="15" viewBox="0 0 15 15">
    <defs>
        <style>
            .cls-1{fill:#484848}
        </style>
    </defs>
    <g id="refresh-round-symbol" transform="translate(-.293)">
        <g id="Group_7979" data-name="Group 7979" transform="translate(.293)">
            <path id="Path_13136" d="M4.3 4.131a5.111 5.111 0 0 1 6.229-.73 267.89 267.89 0 0 0-1.425 1.406c-.535.634.066 1 .371.991h4.948a.342.342 0 0 0 .343-.34V.6a.544.544 0 0 0-.98-.379s-.842.812-1.424 1.383a7.66 7.66 0 0 0-9.854.753A7.453 7.453 0 0 0 .3 8h2.54A4.966 4.966 0 0 1 4.3 4.131z" class="cls-1" data-name="Path 13136" transform="translate(-.293)"/>
            <path id="Path_13137" d="M13.226 13.75a4.966 4.966 0 0 1-1.465 3.87 5.11 5.11 0 0 1-6.229.73c.661-.648 1.425-1.407 1.425-1.407.534-.634-.066-1-.371-.99h-4.95a.342.342 0 0 0-.343.339v4.858a.544.544 0 0 0 .981.379s.842-.812 1.424-1.382a7.66 7.66 0 0 0 9.855-.752 7.459 7.459 0 0 0 2.212-5.644z" class="cls-1" data-name="Path 13137" transform="translate(-.772 -6.751)"/>
        </g>
    </g>
</svg>
