<svg xmlns="http://www.w3.org/2000/svg" id="Group_10141" width="360" height="235.891" data-name="Group 10141" viewBox="0 0 360 235.891">
    <defs>
        <style>
            .cls-1{fill:#fff8ef}.cls-2{opacity:.2}.cls-3{fill:#fe9411}
        </style>
    </defs>
    <path id="Path_6726" d="M0 0h360v235.891H0z" class="cls-1" data-name="Path 6726"/>
    <g id="Group_6937" class="cls-2" data-name="Group 6937" transform="translate(-30.322 -15.313)">
        <path id="Path_10327" d="M158.564 42.843c-1.883-1.875-3.335-3.488-3.414-6.273-.068-2.408.538-4.791.581-7.2a1.194 1.194 0 0 0-2.386 0c-.056 3.114-1.07 6.352-.332 9.444.566 2.373 2.184 4.043 3.862 5.715a1.194 1.194 0 0 0 1.689-1.686z" class="cls-3" data-name="Path 10327" transform="translate(-21.908 -.268)"/>
        <path id="Path_10328" d="M167.518 99.061c-.315.814-1.462 1.466-2.145 1.925-.849.569-1.736 1.074-2.609 1.6a1.194 1.194 0 0 0 1.2 2.06c2.071-1.257 4.922-2.553 5.85-4.955.559-1.428-1.748-2.049-2.296-.63z" class="cls-3" data-name="Path 10328" transform="translate(-23.843 -14.603)"/>
        <path id="Path_10330" d="M349.076 48.958l.509.157a1.1 1.1 0 0 0 .729-.038c.056.029.107.055.122.064q.177.121.045.033a2.191 2.191 0 0 1 .168.165 1.193 1.193 0 0 0 1.687-1.688 3.294 3.294 0 0 0-3.26-.994 1.2 1.2 0 0 0 0 2.301z" class="cls-3" data-name="Path 10330" transform="translate(-61.917 -4.017)"/>
        <path id="Path_10333" d="M385.757 169.5a2.485 2.485 0 0 0-1.9.88 1.229 1.229 0 0 0 0 1.687 1.2 1.2 0 0 0 1.688 0 1.526 1.526 0 0 1 .15-.171l.017-.006h.045a1.193 1.193 0 0 0 0-2.386z" class="cls-3" data-name="Path 10333" transform="translate(-69.139 -29.184)"/>
        <path id="Path_10335" d="M158.912 156.518l-1.061 1.06a1.193 1.193 0 0 0 1.688 1.688l1.06-1.061a1.193 1.193 0 1 0-1.687-1.687z" class="cls-3" data-name="Path 10335" transform="translate(-22.883 -26.457)"/>
        <path id="Path_10336" d="M424.235 43.533c-2.592.973-5.6 2.608-6.459 5.478-.838 2.8 2.088 4.265 4.338 4.775 1.5.34 2.133-1.96.634-2.3a5.965 5.965 0 0 1-2.065-.74c-.9-.614-.65-1.2-.084-2.019a8.666 8.666 0 0 1 4.271-2.894c1.423-.533.806-2.842-.635-2.3z" class="cls-3" data-name="Path 10336" transform="translate(-76.121 -3.386)"/>
        <path id="Path_10337" d="M433.163 79.665a1.2 1.2 0 0 0-1.632.428l-.53 1.06a1.222 1.222 0 0 0 .428 1.632 1.2 1.2 0 0 0 1.632-.428l.531-1.06a1.222 1.222 0 0 0-.429-1.632z" class="cls-3" data-name="Path 10337" transform="translate(-78.828 -10.766)"/>
        <path id="Path_10340" d="M348.211 216.7c.011.007.025.01.036.017a.239.239 0 0 0-.025-.022h-.008z" class="cls-3" data-name="Path 10340" transform="translate(-61.913 -38.843)"/>
        <path id="Path_10342" d="M138.238 265.855c-.645.592-2.077.2-2.868.181a1.194 1.194 0 0 0 0 2.386c1.619.036 3.251.319 4.555-.88 1.133-1.042-.557-2.725-1.687-1.687z" class="cls-3" data-name="Path 10342" transform="translate(-18.116 -48.838)"/>
        <path id="Path_12374" d="M138.238 265.855c-.645.592-2.077.2-2.868.181a1.194 1.194 0 0 0 0 2.386c1.619.036 3.251.319 4.555-.88 1.133-1.042-.557-2.725-1.687-1.687z" class="cls-3" data-name="Path 12374" transform="translate(132.884 -168.838)"/>
        <path id="Path_10345" d="M56.809 44.09c-1.494-.052-2.862.569-4.37.551-1.7-.021-3.372.112-4.92-.71-1.156-.614-2.477.918-1.446 1.874l.348.321a1.137 1.137 0 0 0 .923.319 11.108 11.108 0 0 0 3.782.555 20.123 20.123 0 0 0 2.974-.04 15.553 15.553 0 0 1 2.712-.484c1.533.053 1.53-2.333-.003-2.386z" class="cls-3" data-name="Path 10345" transform="translate(0 -3.455)"/>
        <path id="Path_10346" d="M52.19 142.985c-1.888 1.284-4.385 2.17-5.32 4.424a1.2 1.2 0 0 0 .834 1.467 1.222 1.222 0 0 0 1.467-.833c.289-.7 1.312-1.222 1.91-1.6.764-.479 1.568-.9 2.313-1.4 1.264-.857.071-2.925-1.204-2.058z" class="cls-3" data-name="Path 10346" transform="translate(-.226 -23.715)"/>
        <path id="Path_10347" d="M69.919 250.6c-1.568-.214-2.923-1.3-4.559-1.1a1.232 1.232 0 0 0-1.193 1.193 1.2 1.2 0 0 0 1.193 1.193c1.363-.163 2.593.837 3.924 1.018a1.236 1.236 0 0 0 1.467-.834 1.2 1.2 0 0 0-.832-1.47z" class="cls-3" data-name="Path 10347" transform="translate(-3.779 -45.551)"/>
        <path id="Path_10350" d="M422.721 283.429a35.173 35.173 0 0 1-3.525 4.531c-.981 1.169.7 2.865 1.687 1.687a38.936 38.936 0 0 0 3.9-5.014 1.194 1.194 0 0 0-2.062-1.204z" class="cls-3" data-name="Path 10350" transform="translate(-64.381 -96.384)"/>
        <path id="Path_10351" d="M457.032 153.849c-1.253 1.243-.892 2.973-.88 4.556a1.194 1.194 0 0 0 2.386 0c-.006-.767-.425-2.268.181-2.868a1.194 1.194 0 0 0-1.687-1.688z" class="cls-3" data-name="Path 10351" transform="translate(-83.994 -25.91)"/>
    </g>
</svg>
