<svg xmlns="http://www.w3.org/2000/svg" width="49" height="49" viewBox="0 0 49 49">
    <defs>
        <style>
            .cls-1{fill:#50bb7d}.cls-2{fill:#fff}
        </style>
    </defs>
    <g id="Group_8146" data-name="Group 8146" transform="translate(-143 -75)">
        <path id="Path_6713" d="M477.266 554.26c-2.123 0-3.977-1.833-5.934-2.357-2.026-.541-4.544.1-6.318-.923-1.8-1.041-2.494-3.554-3.954-5.015s-3.973-2.155-5.014-3.954c-1.026-1.774-.381-4.292-.923-6.318-.523-1.958-2.357-3.812-2.357-5.934s1.833-3.977 2.357-5.934c.542-2.026-.1-4.545.923-6.318 1.041-1.8 3.554-2.494 5.015-3.954s2.155-3.973 3.954-5.014c1.774-1.026 4.292-.382 6.318-.923 1.958-.523 3.812-2.356 5.934-2.356s3.977 1.833 5.934 2.356c2.026.541 4.545-.1 6.318.923 1.8 1.041 2.494 3.554 3.954 5.014s3.974 2.155 5.014 3.954c1.026 1.774.382 4.292.923 6.318.523 1.958 2.356 3.812 2.356 5.934s-1.833 3.976-2.356 5.934c-.541 2.026.1 4.544-.923 6.318-1.041 1.8-3.554 2.494-5.014 3.954s-2.155 3.973-3.954 5.014c-1.773 1.026-4.292.382-6.318.923-1.958.523-3.811 2.357-5.934 2.357" class="cls-1" data-name="Path 6713" transform="translate(-309.766 -430.26)"/>
        <path id="Path_6714" d="M504.808 541.387l-2.015-2a1.44 1.44 0 0 0-2.014 0l-9.717 9.638-4.355-4.327a1.439 1.439 0 0 0-2.014 0l-2.015 1.995a1.408 1.408 0 0 0 0 2l5.363 5.31 2.014 2a1.441 1.441 0 0 0 2.015 0l2.015-2 10.724-10.621a1.407 1.407 0 0 0 0-1.995z" class="cls-2" data-name="Path 6714" transform="translate(-326.597 -448.497)"/>
    </g>
</svg>
