<svg width="330" height="128" viewBox="0 0 330 128" fill="none" xmlns="http://www.w3.org/2000/svg">
<mask id="path-1-inside-1_2825_53346" fill="white">
<path fill-rule="evenodd" clip-rule="evenodd" d="M0 12C0 5.37258 5.37258 0 12 0H318C324.627 0 330 5.37258 330 12V127.005C330 127.555 329.555 128 329.005 128C328.732 128 328.471 127.888 328.284 127.69L318.876 117.78C318.087 116.949 316.764 116.949 315.975 117.78L306.596 127.66C306.39 127.877 306.104 128 305.804 128C305.512 128 305.232 127.883 305.026 127.674L295.207 117.7C294.424 116.904 293.14 116.904 292.357 117.7L282.538 127.674C282.332 127.882 282.052 128 281.759 128C281.459 128 281.172 127.877 280.965 127.659L271.587 117.78C270.798 116.949 269.475 116.949 268.686 117.78L259.272 127.697C259.088 127.89 258.833 128 258.566 128C258.299 128 258.044 127.89 257.86 127.697L248.446 117.78C247.658 116.949 246.334 116.949 245.545 117.78L236.166 127.66C235.96 127.877 235.674 128 235.375 128C235.082 128 234.802 127.883 234.597 127.674L224.777 117.7C223.994 116.904 222.71 116.904 221.927 117.7L212.107 127.675C211.902 127.883 211.623 128 211.331 128C211.032 128 210.746 127.877 210.541 127.661L201.161 117.78C200.373 116.949 199.049 116.949 198.26 117.78L188.812 127.733C188.65 127.903 188.425 128 188.19 128C187.949 128 187.72 127.899 187.557 127.721L178.549 117.867C177.756 116.999 176.39 116.999 175.597 117.867L166.895 127.387C166.537 127.777 166.032 128 165.503 128C164.973 128 164.468 127.777 164.111 127.387L155.409 117.867C154.616 116.999 153.249 116.999 152.456 117.867L143.448 127.722C143.286 127.899 143.056 128 142.816 128C142.582 128 142.357 127.904 142.196 127.734L132.747 117.78C131.959 116.949 130.635 116.949 129.846 117.78L120.467 127.66C120.261 127.877 119.975 128 119.675 128C119.383 128 119.103 127.883 118.897 127.674L109.078 117.7C108.295 116.904 107.011 116.904 106.228 117.7L96.409 127.674C96.2034 127.882 95.9226 128 95.6296 128C95.3296 128 95.0429 127.877 94.8364 127.659L85.4581 117.78C84.6695 116.949 83.3456 116.949 82.557 117.78L73.1418 127.698C72.9589 127.891 72.7049 128 72.4392 128C72.1735 128 71.9195 127.891 71.7366 127.698L62.3214 117.78C61.5328 116.949 60.2089 116.949 59.4203 117.78L50.0414 127.66C49.8353 127.877 49.5491 128 49.2497 128C48.9572 128 48.6769 127.883 48.4717 127.674L38.6524 117.7C37.8689 116.904 36.5854 116.904 35.8019 117.7L25.9832 127.674C25.7776 127.882 25.4968 128 25.2038 128C24.9039 128 24.6171 127.877 24.4106 127.659L15.0323 117.78C14.2437 116.949 12.9198 116.949 12.1312 117.78L2.93211 127.471C2.61123 127.809 2.1656 128 1.69951 128C0.760898 128 0 127.239 0 126.3V12Z"/>
</mask>
<path fill-rule="evenodd" clip-rule="evenodd" d="M0 12C0 5.37258 5.37258 0 12 0H318C324.627 0 330 5.37258 330 12V127.005C330 127.555 329.555 128 329.005 128C328.732 128 328.471 127.888 328.284 127.69L318.876 117.78C318.087 116.949 316.764 116.949 315.975 117.78L306.596 127.66C306.39 127.877 306.104 128 305.804 128C305.512 128 305.232 127.883 305.026 127.674L295.207 117.7C294.424 116.904 293.14 116.904 292.357 117.7L282.538 127.674C282.332 127.882 282.052 128 281.759 128C281.459 128 281.172 127.877 280.965 127.659L271.587 117.78C270.798 116.949 269.475 116.949 268.686 117.78L259.272 127.697C259.088 127.89 258.833 128 258.566 128C258.299 128 258.044 127.89 257.86 127.697L248.446 117.78C247.658 116.949 246.334 116.949 245.545 117.78L236.166 127.66C235.96 127.877 235.674 128 235.375 128C235.082 128 234.802 127.883 234.597 127.674L224.777 117.7C223.994 116.904 222.71 116.904 221.927 117.7L212.107 127.675C211.902 127.883 211.623 128 211.331 128C211.032 128 210.746 127.877 210.541 127.661L201.161 117.78C200.373 116.949 199.049 116.949 198.26 117.78L188.812 127.733C188.65 127.903 188.425 128 188.19 128C187.949 128 187.72 127.899 187.557 127.721L178.549 117.867C177.756 116.999 176.39 116.999 175.597 117.867L166.895 127.387C166.537 127.777 166.032 128 165.503 128C164.973 128 164.468 127.777 164.111 127.387L155.409 117.867C154.616 116.999 153.249 116.999 152.456 117.867L143.448 127.722C143.286 127.899 143.056 128 142.816 128C142.582 128 142.357 127.904 142.196 127.734L132.747 117.78C131.959 116.949 130.635 116.949 129.846 117.78L120.467 127.66C120.261 127.877 119.975 128 119.675 128C119.383 128 119.103 127.883 118.897 127.674L109.078 117.7C108.295 116.904 107.011 116.904 106.228 117.7L96.409 127.674C96.2034 127.882 95.9226 128 95.6296 128C95.3296 128 95.0429 127.877 94.8364 127.659L85.4581 117.78C84.6695 116.949 83.3456 116.949 82.557 117.78L73.1418 127.698C72.9589 127.891 72.7049 128 72.4392 128C72.1735 128 71.9195 127.891 71.7366 127.698L62.3214 117.78C61.5328 116.949 60.2089 116.949 59.4203 117.78L50.0414 127.66C49.8353 127.877 49.5491 128 49.2497 128C48.9572 128 48.6769 127.883 48.4717 127.674L38.6524 117.7C37.8689 116.904 36.5854 116.904 35.8019 117.7L25.9832 127.674C25.7776 127.882 25.4968 128 25.2038 128C24.9039 128 24.6171 127.877 24.4106 127.659L15.0323 117.78C14.2437 116.949 12.9198 116.949 12.1312 117.78L2.93211 127.471C2.61123 127.809 2.1656 128 1.69951 128C0.760898 128 0 127.239 0 126.3V12Z" fill="white"/>
<path d="M2.93211 127.471L2.20684 126.782L2.93211 127.471ZM15.0323 117.78L14.307 118.468L15.0323 117.78ZM12.1312 117.78L12.8565 118.468L12.1312 117.78ZM24.4106 127.659L25.1359 126.971L24.4106 127.659ZM25.9832 127.674L25.2706 126.972L25.9832 127.674ZM38.6524 117.7L39.3651 116.998L38.6524 117.7ZM35.8019 117.7L36.5145 118.401L35.8019 117.7ZM48.4717 127.674L49.1843 126.973L48.4717 127.674ZM50.0414 127.66L50.7667 128.348L50.0414 127.66ZM62.3214 117.78L63.0466 117.091L62.3214 117.78ZM59.4203 117.78L60.1456 118.468L59.4203 117.78ZM71.7366 127.698L72.4619 127.01L71.7366 127.698ZM85.4581 117.78L84.7328 118.468L85.4581 117.78ZM82.557 117.78L83.2823 118.468L82.557 117.78ZM94.8364 127.659L95.5616 126.971L94.8364 127.659ZM96.409 127.674L97.1216 128.375L96.409 127.674ZM109.078 117.7L108.366 118.401L109.078 117.7ZM106.228 117.7L106.94 118.401L106.228 117.7ZM118.897 127.674L119.61 126.973L118.897 127.674ZM120.467 127.66L121.192 128.348L120.467 127.66ZM132.747 117.78L132.022 118.468L132.747 117.78ZM129.846 117.78L130.571 118.468L129.846 117.78ZM142.196 127.734L141.471 128.422L142.196 127.734ZM143.448 127.722L144.186 128.396L143.448 127.722ZM155.409 117.867L156.147 117.192L155.409 117.867ZM152.456 117.867L151.718 117.192L152.456 117.867ZM164.111 127.387L163.373 128.061L164.111 127.387ZM166.895 127.387L166.157 126.712L166.895 127.387ZM178.549 117.867L179.287 117.192L178.549 117.867ZM175.597 117.867L176.335 118.541L175.597 117.867ZM187.557 127.721L186.819 128.396L187.557 127.721ZM188.812 127.733L188.087 127.044L188.812 127.733ZM201.161 117.78L200.436 118.468L201.161 117.78ZM198.26 117.78L198.985 118.468L198.26 117.78ZM210.541 127.661L211.266 126.972L210.541 127.661ZM212.107 127.675L212.819 128.376L212.107 127.675ZM224.777 117.7L225.49 116.998L224.777 117.7ZM221.927 117.7L221.214 116.998L221.927 117.7ZM234.597 127.674L235.309 126.973L234.597 127.674ZM236.166 127.66L235.441 126.971L236.166 127.66ZM248.446 117.78L247.721 118.468L248.446 117.78ZM257.86 127.697L257.135 128.385L257.86 127.697ZM259.272 127.697L259.997 128.385L259.272 127.697ZM271.587 117.78L270.862 118.468L271.587 117.78ZM268.686 117.78L269.411 118.468L268.686 117.78ZM280.965 127.659L281.691 126.971L280.965 127.659ZM282.538 127.674L281.825 126.972L282.538 127.674ZM295.207 117.7L295.92 116.998L295.207 117.7ZM292.357 117.7L291.644 116.998L292.357 117.7ZM305.026 127.674L304.314 128.376L305.026 127.674ZM306.596 127.66L305.871 126.971L306.596 127.66ZM318.876 117.78L319.601 117.091L318.876 117.78ZM315.975 117.78L315.25 117.091L315.975 117.78ZM328.284 127.69L329.009 127.002L328.284 127.69ZM12 -1C4.8203 -1 -1 4.8203 -1 12H1C1 5.92487 5.92487 1 12 1V-1ZM318 -1H12V1H318V-1ZM331 12C331 4.8203 325.18 -1 318 -1V1C324.075 1 329 5.92487 329 12H331ZM331 127.005V12H329V127.005H331ZM318.151 118.468L327.558 128.379L329.009 127.002L319.601 117.091L318.151 118.468ZM307.321 128.348L316.7 118.468L315.25 117.091L305.871 126.971L307.321 128.348ZM294.495 118.401L304.314 128.376L305.739 126.973L295.92 116.998L294.495 118.401ZM283.251 128.375L293.069 118.401L291.644 116.998L281.825 126.972L283.251 128.375ZM281.691 126.971L272.312 117.091L270.862 118.468L280.24 128.348L281.691 126.971ZM267.961 117.091L258.547 127.008L259.997 128.385L269.411 118.468L267.961 117.091ZM247.721 118.468L257.135 128.385L258.586 127.008L249.172 117.091L247.721 118.468ZM236.892 128.348L246.271 118.468L244.82 117.091L235.441 126.971L236.892 128.348ZM224.065 118.401L233.884 128.376L235.309 126.973L225.49 116.998L224.065 118.401ZM212.819 128.376L222.64 118.401L221.214 116.998L211.394 126.973L212.819 128.376ZM200.436 118.468L209.816 128.349L211.266 126.972L201.886 117.091L200.436 118.468ZM189.537 128.421L198.985 118.468L197.535 117.091L188.087 127.044L189.537 128.421ZM177.811 118.541L186.819 128.396L188.295 127.046L179.287 117.192L177.811 118.541ZM167.633 128.061L176.335 118.541L174.859 117.192L166.157 126.712L167.633 128.061ZM154.671 118.541L163.373 128.061L164.849 126.712L156.147 117.192L154.671 118.541ZM144.186 128.396L153.194 118.541L151.718 117.192L142.71 127.047L144.186 128.396ZM132.022 118.468L141.471 128.422L142.921 127.045L133.472 117.091L132.022 118.468ZM121.192 128.348L130.571 118.468L129.121 117.091L119.742 126.971L121.192 128.348ZM108.366 118.401L118.185 128.376L119.61 126.973L109.791 116.998L108.366 118.401ZM97.1216 128.375L106.94 118.401L105.515 116.998L95.6964 126.972L97.1216 128.375ZM84.7328 118.468L94.1111 128.348L95.5616 126.971L86.1833 117.091L84.7328 118.468ZM73.867 128.387L83.2823 118.468L81.8317 117.091L72.4165 127.01L73.867 128.387ZM61.5961 118.468L71.0113 128.387L72.4619 127.01L63.0466 117.091L61.5961 118.468ZM50.7667 128.348L60.1456 118.468L58.695 117.091L49.3162 126.971L50.7667 128.348ZM37.9398 118.401L47.7591 128.376L49.1843 126.973L39.3651 116.998L37.9398 118.401ZM26.6958 128.375L36.5145 118.401L35.0893 116.998L25.2706 126.972L26.6958 128.375ZM14.307 118.468L23.6853 128.348L25.1359 126.971L15.7576 117.091L14.307 118.468ZM3.65737 128.159L12.8565 118.468L11.406 117.091L2.20684 126.782L3.65737 128.159ZM-1 12V126.3H1V12H-1ZM1.69951 127C1.31318 127 1 126.687 1 126.3H-1C-1 127.791 0.208615 129 1.69951 129V127ZM2.20684 126.782C2.07477 126.921 1.89135 127 1.69951 127V129C2.43984 129 3.14768 128.696 3.65737 128.159L2.20684 126.782ZM15.7576 117.091C14.5747 115.845 12.5889 115.845 11.406 117.091L12.8565 118.468C13.2508 118.053 13.9127 118.053 14.307 118.468L15.7576 117.091ZM25.2038 127C25.1781 127 25.1535 126.989 25.1359 126.971L23.6853 128.348C24.0806 128.764 24.6296 129 25.2038 129V127ZM25.2706 126.972C25.253 126.99 25.2289 127 25.2038 127V129C25.7648 129 26.3023 128.775 26.6958 128.375L25.2706 126.972ZM39.3651 116.998C38.1898 115.804 36.2645 115.804 35.0893 116.998L36.5145 118.401C36.9063 118.003 37.548 118.003 37.9398 118.401L39.3651 116.998ZM49.2497 127C49.2251 127 49.2016 126.99 49.1843 126.973L47.7591 128.376C48.1522 128.775 48.6892 129 49.2497 129V127ZM49.3162 126.971C49.2988 126.99 49.2748 127 49.2497 127V129C49.8233 129 50.3718 128.764 50.7667 128.348L49.3162 126.971ZM63.0466 117.091C61.8637 115.845 59.8779 115.845 58.695 117.091L60.1456 118.468C60.5399 118.053 61.2018 118.053 61.5961 118.468L63.0466 117.091ZM72.4392 127C72.4478 127 72.456 127.004 72.4619 127.01L71.0113 128.387C71.383 128.778 71.8993 129 72.4392 129V127ZM72.4165 127.01C72.4224 127.004 72.4306 127 72.4392 127V129C72.9791 129 73.4953 128.778 73.867 128.387L72.4165 127.01ZM86.1833 117.091C85.0004 115.845 83.0146 115.845 81.8317 117.091L83.2823 118.468C83.6766 118.053 84.3385 118.053 84.7328 118.468L86.1833 117.091ZM95.6296 127C95.6039 127 95.5793 126.989 95.5616 126.971L94.1111 128.348C94.5064 128.764 95.0554 129 95.6296 129V127ZM95.6964 126.972C95.6787 126.99 95.6547 127 95.6296 127V129C96.1906 129 96.7281 128.775 97.1216 128.375L95.6964 126.972ZM109.791 116.998C108.616 115.804 106.69 115.804 105.515 116.998L106.94 118.401C107.332 118.003 107.974 118.003 108.366 118.401L109.791 116.998ZM119.675 127C119.651 127 119.627 126.99 119.61 126.973L118.185 128.376C118.578 128.775 119.115 129 119.675 129V127ZM119.742 126.971C119.725 126.99 119.701 127 119.675 127V129C120.249 129 120.798 128.764 121.192 128.348L119.742 126.971ZM133.472 117.091C132.29 115.845 130.304 115.845 129.121 117.091L130.571 118.468C130.966 118.053 131.628 118.053 132.022 118.468L133.472 117.091ZM142.816 127C142.856 127 142.894 127.016 142.921 127.045L141.471 128.422C141.821 128.791 142.307 129 142.816 129V127ZM142.71 127.047C142.737 127.017 142.776 127 142.816 127V129C143.337 129 143.834 128.781 144.186 128.396L142.71 127.047ZM156.147 117.192C154.957 115.891 152.908 115.891 151.718 117.192L153.194 118.541C153.591 118.108 154.274 118.108 154.671 118.541L156.147 117.192ZM165.503 127C165.254 127 165.017 126.895 164.849 126.712L163.373 128.061C163.92 128.659 164.692 129 165.503 129V127ZM166.157 126.712C165.989 126.895 165.751 127 165.503 127V129C166.313 129 167.086 128.659 167.633 128.061L166.157 126.712ZM179.287 117.192C178.098 115.891 176.048 115.891 174.859 117.192L176.335 118.541C176.731 118.108 177.415 118.108 177.811 118.541L179.287 117.192ZM188.19 127C188.23 127 188.268 127.017 188.295 127.046L186.819 128.396C187.171 128.781 187.669 129 188.19 129V127ZM188.087 127.044C188.114 127.016 188.151 127 188.19 127V129C188.7 129 189.187 128.791 189.537 128.421L188.087 127.044ZM201.886 117.091C200.704 115.845 198.718 115.845 197.535 117.091L198.985 118.468C199.38 118.053 200.042 118.053 200.436 118.468L201.886 117.091ZM211.331 127C211.306 127 211.283 126.99 211.266 126.972L209.816 128.349C210.21 128.765 210.758 129 211.331 129V127ZM211.394 126.973C211.377 126.99 211.355 127 211.331 127V129C211.89 129 212.427 128.775 212.819 128.376L211.394 126.973ZM225.49 116.998C224.315 115.804 222.39 115.804 221.214 116.998L222.64 118.401C223.031 118.003 223.673 118.003 224.065 118.401L225.49 116.998ZM235.375 127C235.35 127 235.327 126.99 235.309 126.973L233.884 128.376C234.277 128.775 234.814 129 235.375 129V127ZM235.441 126.971C235.424 126.99 235.4 127 235.375 127V129C235.948 129 236.497 128.764 236.892 128.348L235.441 126.971ZM249.172 117.091C247.989 115.845 246.003 115.845 244.82 117.091L246.271 118.468C246.665 118.053 247.327 118.053 247.721 118.468L249.172 117.091ZM258.566 127C258.573 127 258.581 127.003 258.586 127.008L257.135 128.385C257.508 128.778 258.025 129 258.566 129V127ZM258.547 127.008C258.552 127.003 258.559 127 258.566 127V129C259.107 129 259.625 128.778 259.997 128.385L258.547 127.008ZM272.312 117.091C271.129 115.845 269.144 115.845 267.961 117.091L269.411 118.468C269.806 118.053 270.467 118.053 270.862 118.468L272.312 117.091ZM281.759 127C281.733 127 281.708 126.989 281.691 126.971L280.24 128.348C280.635 128.764 281.184 129 281.759 129V127ZM281.825 126.972C281.808 126.99 281.784 127 281.759 127V129C282.319 129 282.857 128.775 283.251 128.375L281.825 126.972ZM295.92 116.998C294.745 115.804 292.819 115.804 291.644 116.998L293.069 118.401C293.461 118.003 294.103 118.003 294.495 118.401L295.92 116.998ZM305.804 127C305.78 127 305.756 126.99 305.739 126.973L304.314 128.376C304.707 128.775 305.244 129 305.804 129V127ZM305.871 126.971C305.854 126.99 305.829 127 305.804 127V129C306.378 129 306.926 128.764 307.321 128.348L305.871 126.971ZM319.601 117.091C318.418 115.845 316.433 115.845 315.25 117.091L316.7 118.468C317.095 118.053 317.757 118.053 318.151 118.468L319.601 117.091ZM329.005 127C329.007 127 329.008 127.001 329.009 127.002L327.558 128.379C327.935 128.775 328.458 129 329.005 129V127ZM329 127.005C329 127.006 329 127.006 329 127.005C329 127.004 329 127.004 329.001 127.003C329.001 127.001 329.002 127.001 329.001 127.001C329.001 127.002 329.001 127.001 329.003 127.001C329.004 127.001 329.004 127 329.005 127C329.006 127 329.006 127 329.005 127V129C330.107 129 331 128.107 331 127.005H329Z" fill="black" fill-opacity="0.12" mask="url(#path-1-inside-1_2825_53346)"/>
</svg>
