<svg xmlns="http://www.w3.org/2000/svg" width="298" height="165" viewBox="0 0 298 165">
    <defs>
        <style>
            .cls-1,.cls-8,.cls-9{fill:#484848}.cls-1,.cls-17,.cls-8{font-size:9px}.cls-1{font-family:Gilroy-Bold,Gilroy;font-weight:700}.cls-2{fill:#efefef}.cls-3{fill:#fff}.cls-11,.cls-12,.cls-15,.cls-4{fill:none}.cls-15,.cls-4{stroke:#fff}.cls-11,.cls-15,.cls-4{stroke-linecap:round}.cls-12,.cls-4{stroke-width:2px}.cls-5{fill:#f2f2f2}.cls-6{fill:#b3b3b3}.cls-7{fill:#fafafa}.cls-17,.cls-8{font-family:Gilroy-Semibold,Gilroy;font-weight:600}.cls-10{fill:rgba(18,135,229,.2)}.cls-11{stroke:#dedede;stroke-width:3px}.cls-11,.cls-15{stroke-linejoin:round}.cls-12{stroke:#efefef;stroke-linecap:square}.cls-13{opacity:.923}.cls-14{fill:#55bb7d}.cls-15{stroke-width:1.5px}.cls-16{fill:#ffeed9}.cls-17{fill:#ff9c17}
        </style>
    </defs>
    <g id="Group_10833" data-name="Group 10833" transform="translate(-32 -171)">
        <g id="Group_10664" data-name="Group 10664" transform="translate(0 -96)">
            <g id="Group_10751" data-name="Group 10751" transform="translate(0 -237)">
                <text id="Your_New_Pledge_Card_" class="cls-1" data-name="Your New Pledge Card" transform="translate(62 549)">
                    <tspan x="-20.484" y="0">Your New </tspan><tspan x="-26.132" y="11">Pledge Card</tspan>
                </text>
                <text id="Sign_Pledge_card_by_E-Sign" class="cls-1" data-name="Sign Pledge card by E-Sign" transform="translate(180 549)">
                    <tspan x="-36.644" y="0">Sign Pledge card </tspan><tspan x="-19.971" y="11">by E-Sign</tspan>
                </text>
                <g id="Group_10752" data-name="Group 10752" transform="translate(8 76)">
                    <text id="Signed_New_Pledge_Card" class="cls-1" data-name="Signed New Pledge Card" transform="translate(291 473)">
                        <tspan x="-24.705" y="0">Signed New</tspan><tspan x="-26.132" y="11">Pledge Card</tspan>
                    </text>
                </g>
                <g id="Group_10835" data-name="Group 10835">
                    <g id="Group_10750" data-name="Group 10750" transform="translate(0 31)">
                        <g id="Group_10743" data-name="Group 10743" transform="translate(-492 -5306)">
                            <rect id="Rectangle_5914" width="58" height="96" class="cls-2" data-name="Rectangle 5914" rx="4" transform="translate(524 5848)"/>
                            <path id="Rectangle_5916" d="M0 0h50v82H0z" class="cls-3" data-name="Rectangle 5916" transform="translate(528 5855)"/>
                            <path id="Path_16420" d="M219.338 562.5h12.853" class="cls-4" data-name="Path 16420" transform="translate(328.162 5351)"/>
                            <g id="Group_10755" data-name="Group 10755" transform="translate(493 5370)">
                                <g id="Group_10737" data-name="Group 10737" transform="translate(41 490)">
                                    <g id="Group_10117" data-name="Group 10117" transform="translate(0 2)">
                                        <g id="invoice">
                                            <path id="Union_30" d="M-1555.556-8556.268a.529.529 0 0 1-.245-.086l-2.34-1.518-2.336 1.518a.539.539 0 0 1-.377.084.534.534 0 0 1-.262-.087l-2.34-1.52-2.336 1.52a.555.555 0 0 1-.377.085.637.637 0 0 1-.216-.062.521.521 0 0 1-.145-.113l-2.223-1.443-2.353 1.53a.547.547 0 0 1-.554.026.531.531 0 0 1-.286-.468c-.017-3.851-.03-4.68-.04-4.281.008-2.769.018-7.231.03-14.165-.067-39.984-.058-33.461.01-49.208a.531.531 0 0 1 .286-.468.543.543 0 0 1 .554.026l2.353 1.527 2.223-1.443a.511.511 0 0 1 .145-.11.528.528 0 0 1 .216-.062.57.57 0 0 1 .377.082l2.336 1.52 2.34-1.52a.566.566 0 0 1 .262-.087.566.566 0 0 1 .377.085l2.336 1.52 2.338-1.52a.572.572 0 0 1 .247-.087.566.566 0 0 1 .3.032.377.377 0 0 1 .05.024.322.322 0 0 1 .089.059l1.485.988.786.512 2.329-1.512a.316.316 0 0 1 .073-.047.545.545 0 0 1 .461-.024l.052.024a.4.4 0 0 1 .089.059l.621.415 1.66 1.078 2.34-1.52a.566.566 0 0 1 .264-.087.557.557 0 0 1 .372.085l2.338 1.52 2.333-1.518a.575.575 0 0 1 .258-.089.519.519 0 0 1 .078 0 .587.587 0 0 1 .258.064.5.5 0 0 1 .167.135l2.191 1.424 2.364-1.535a.562.562 0 0 1 .3-.086.588.588 0 0 1 .258.064.531.531 0 0 1 .286.468v67.668a.531.531 0 0 1-.286.467.617.617 0 0 1-.258.065.556.556 0 0 1-.3-.089l-2.364-1.532-2.191 1.422a.554.554 0 0 1-.167.137.629.629 0 0 1-.255.064.426.426 0 0 1-.08-.007.538.538 0 0 1-.258-.086l-2.333-1.518-2.338 1.518a.53.53 0 0 1-.372.084.535.535 0 0 1-.264-.087l-2.34-1.52-1.66 1.081-.621.415a.844.844 0 0 1-.089.059c-.017.009-.035.015-.052.021a.555.555 0 0 1-.461-.021.646.646 0 0 1-.073-.048l-2.329-1.511-.786.509-1.485.991a.548.548 0 0 1-.089.059.369.369 0 0 1-.05.021.532.532 0 0 1-.2.041.51.51 0 0 1-.101-.011zm-16.444-2.852c0-.846.007-1.691.014-1.963-.008 3.009-.013 4.017-.016 4.017s.002-1.028.002-2.054z" class="cls-5" data-name="Union 30" transform="translate(1572 8625)"/>
                                        </g>
                                    </g>
                                </g>
                                <path id="Union_29" d="M1 36a1 1 0 0 1 0-2h23a1 1 0 0 1 0 2zm0-5a1 1 0 0 1 0-2h23a1 1 0 0 1 0 2zm0-5a1 1 0 1 1 0-2h23a1 1 0 0 1 0 2zm0-5a1 1 0 1 1 0-2h23a1 1 0 0 1 0 2zm0-5a1 1 0 1 1 0-2h23a1 1 0 0 1 0 2zm4.605-9.333a1 1 0 1 1 0-2H19.4a1 1 0 1 1 0 2zM10.526 0A1.987 1.987 0 0 1 12.5-2a1.987 1.987 0 0 1 1.974 2 1.974 1.974 0 1 1-3.947 0z" class="cls-6" data-name="Union 29" transform="translate(48 502)"/>
                            </g>
                        </g>
                    </g>
                    <g id="Group_10117-2" data-name="Group 10117" transform="translate(-372 -5275)">
                        <rect id="Rectangle_5914-2" width="58" height="96" class="cls-2" data-name="Rectangle 5914" rx="4" transform="translate(524 5848)"/>
                        <rect id="Rectangle_5916-2" width="50" height="82" class="cls-7" data-name="Rectangle 5916" rx="2" transform="translate(528 5855)"/>
                        <rect id="Rectangle_7301" width="50" height="82" class="cls-3" data-name="Rectangle 7301" rx="2" transform="translate(528 5855)"/>
                        <text id="Verify_OTP" class="cls-8" data-name="Verify OTP" transform="translate(553 5882)">
                            <tspan x="-11.682" y="0">Verify</tspan><tspan x="-8.487" y="9">OTP</tspan>
                        </text>
                        <path id="Path_16418" d="M3.321 9.24V7.58h-.779v1.66L.984 8.653l-.264.705 1.558.558-.955 1.337.661.456.955-1.409 1.014 1.411.6-.456-.97-1.337 1.6-.558-.294-.705zm6.612 0V7.58h-.779v1.66L7.6 8.653l-.264.705 1.558.558-.955 1.337.661.456.951-1.409 1.014 1.411.6-.456-.965-1.339 1.6-.558-.294-.705zm6.612 0V7.58h-.779v1.66l-1.558-.588-.264.705 1.558.558-.955 1.337.661.456.955-1.411 1.014 1.411.6-.456-.97-1.337 1.6-.558-.294-.705zm6.612 0V7.58h-.779v1.66l-1.558-.588-.264.705 1.558.558-.955 1.337.661.456.955-1.411 1.014 1.411.6-.456-.97-1.337 1.6-.558-.294-.705z" class="cls-9" data-name="Path 16418" transform="translate(540.28 5896.42)"/>
                        <g id="Group_10746" data-name="Group 10746" transform="translate(1 10)">
                            <rect id="Rectangle_5934" width="34" height="10" class="cls-10" data-name="Rectangle 5934" rx="5" transform="translate(535 5907)"/>
                            <path id="Path_16420-2" d="M219.338 562.5h11.81" class="cls-4" data-name="Path 16420" transform="translate(327.148 5349.5)"/>
                        </g>
                    </g>
                    <path id="Path_16408" d="M191.61 536.046l4.338 4.526-4.338 4.484" class="cls-11" data-name="Path 16408" transform="translate(-73 82)"/>
                    <path id="Path_16410" d="M191.61 536.046l4.338 4.526-4.338 4.484" class="cls-11" data-name="Path 16410" transform="translate(48 82)"/>
                    <g id="Group_10817" data-name="Group 10817">
                        <g id="Group_10749" data-name="Group 10749" transform="translate(0 31)">
                            <g id="Group_10744" data-name="Group 10744" transform="translate(-252 -5306)">
                                <rect id="Rectangle_5914-3" width="58" height="96" class="cls-2" data-name="Rectangle 5914" rx="4" transform="translate(524 5848)"/>
                                <path id="Rectangle_5916-3" d="M0 0h50v82H0z" class="cls-3" data-name="Rectangle 5916" transform="translate(528 5855)"/>
                            </g>
                            <g id="Group_10748" data-name="Group 10748" transform="translate(241 64)">
                                <g id="Group_10737-2" data-name="Group 10737" transform="translate(41 490)">
                                    <g id="Group_10117-3" data-name="Group 10117" transform="translate(0 2)">
                                        <g id="invoice-2" data-name="invoice">
                                            <path id="Union_30-2" d="M-1555.556-8556.268a.529.529 0 0 1-.245-.086l-2.34-1.518-2.336 1.518a.539.539 0 0 1-.377.084.534.534 0 0 1-.262-.087l-2.34-1.52-2.336 1.52a.555.555 0 0 1-.377.085.637.637 0 0 1-.216-.062.521.521 0 0 1-.145-.113l-2.223-1.443-2.353 1.53a.547.547 0 0 1-.554.026.531.531 0 0 1-.286-.468c-.017-3.851-.03-4.68-.04-4.281.008-2.769.018-7.231.03-14.165-.067-39.984-.058-33.461.01-49.208a.531.531 0 0 1 .286-.468.543.543 0 0 1 .554.026l2.353 1.527 2.223-1.443a.511.511 0 0 1 .145-.11.528.528 0 0 1 .216-.062.57.57 0 0 1 .377.082l2.336 1.52 2.34-1.52a.566.566 0 0 1 .262-.087.566.566 0 0 1 .377.085l2.336 1.52 2.338-1.52a.572.572 0 0 1 .247-.087.566.566 0 0 1 .3.032.377.377 0 0 1 .05.024.322.322 0 0 1 .089.059l1.485.988.786.512 2.329-1.512a.316.316 0 0 1 .073-.047.545.545 0 0 1 .461-.024l.052.024a.4.4 0 0 1 .089.059l.621.415 1.66 1.078 2.34-1.52a.566.566 0 0 1 .264-.087.557.557 0 0 1 .372.085l2.338 1.52 2.333-1.518a.575.575 0 0 1 .258-.089.519.519 0 0 1 .078 0 .587.587 0 0 1 .258.064.5.5 0 0 1 .167.135l2.191 1.424 2.364-1.535a.562.562 0 0 1 .3-.086.588.588 0 0 1 .258.064.531.531 0 0 1 .286.468v67.668a.531.531 0 0 1-.286.467.617.617 0 0 1-.258.065.556.556 0 0 1-.3-.089l-2.364-1.532-2.191 1.422a.554.554 0 0 1-.167.137.629.629 0 0 1-.255.064.426.426 0 0 1-.08-.007.538.538 0 0 1-.258-.086l-2.333-1.518-2.338 1.518a.53.53 0 0 1-.372.084.535.535 0 0 1-.264-.087l-2.34-1.52-1.66 1.081-.621.415a.844.844 0 0 1-.089.059c-.017.009-.035.015-.052.021a.555.555 0 0 1-.461-.021.646.646 0 0 1-.073-.048l-2.329-1.511-.786.509-1.485.991a.548.548 0 0 1-.089.059.369.369 0 0 1-.05.021.532.532 0 0 1-.2.041.51.51 0 0 1-.101-.011zm-16.444-2.852c0-.846.007-1.691.014-1.963-.008 3.009-.013 4.017-.016 4.017s.002-1.028.002-2.054z" class="cls-5" data-name="Union 30" transform="translate(1572 8625)"/>
                                        </g>
                                    </g>
                                </g>
                                <path id="Union_29-2" d="M1 36a1 1 0 0 1 0-2h23a1 1 0 0 1 0 2zm0-5a1 1 0 0 1 0-2h23a1 1 0 0 1 0 2zm0-5a1 1 0 1 1 0-2h23a1 1 0 0 1 0 2zm0-5a1 1 0 1 1 0-2h23a1 1 0 0 1 0 2zm0-5a1 1 0 1 1 0-2h23a1 1 0 0 1 0 2zm4.605-9.333a1 1 0 1 1 0-2H19.4a1 1 0 1 1 0 2zM10.526 0A1.987 1.987 0 0 1 12.5-2a1.987 1.987 0 0 1 1.974 2 1.974 1.974 0 1 1-3.947 0z" class="cls-6" data-name="Union 29" transform="translate(48 502)"/>
                            </g>
                            <path id="Line_177" d="M0 0h38" class="cls-12" data-name="Line 177" transform="translate(282 632.001)"/>
                        </g>
                        <g id="Group_10815" class="cls-13" data-name="Group 10815" transform="translate(-5 75)">
                            <path id="Polygon_2" d="M5.282 1.183a1.748 1.748 0 0 1 2.436 0l.006.006a1.748 1.748 0 0 0 1.333.49h.013a1.748 1.748 0 0 1 1.853 1.556l.007.064a1.748 1.748 0 0 0 .693 1.214l.055.041a1.748 1.748 0 0 1 .416 2.362l-.048.072a1.748 1.748 0 0 0-.239 1.369l.02.083a1.748 1.748 0 0 1-1.2 2.085l-.038.011a1.748 1.748 0 0 0-1.075.912l-.015.031a1.748 1.748 0 0 1-2.285.832 1.748 1.748 0 0 0-1.425 0 1.748 1.748 0 0 1-2.289-.833l-.015-.031a1.748 1.748 0 0 0-1.075-.912l-.038-.011a1.748 1.748 0 0 1-1.2-2.085l.02-.083a1.748 1.748 0 0 0-.239-1.368l-.047-.073a1.748 1.748 0 0 1 .416-2.362l.055-.041A1.748 1.748 0 0 0 2.07 3.3l.007-.064A1.748 1.748 0 0 1 3.93 1.679h.012a1.748 1.748 0 0 0 1.333-.49z" class="cls-14" data-name="Polygon 2" transform="translate(300 561)"/>
                            <path id="Path_17983" d="M0 .158l.824 1.694L4.282 0" class="cls-15" data-name="Path 17983" transform="rotate(-18.01 1944.975 -677.476)"/>
                        </g>
                    </g>
                </g>
            </g>
        </g>
        <g id="Group_10720" data-name="Group 10720" transform="translate(-2 -49)">
            <path id="Union_23" d="M-378.232-7319.721l-1.112-1.279H-426a4 4 0 0 1-4-4v-18a4 4 0 0 1 4-4h101a4 4 0 0 1 4 4v18a4 4 0 0 1-4 4h-45.991l-.983 1.226L-375-7316z" class="cls-16" data-name="Union 23" transform="translate(558 7567)"/>
            <text id="Sent_on_Aadhar_linked_Mobile_number" class="cls-17" data-name="Sent on Aadhar linked Mobile number" transform="translate(132 224)">
                <tspan x="4.537" y="7">Sent on Aadhar linked </tspan><tspan x="19.527" y="16">Mobile number</tspan>
            </text>
        </g>
    </g>
</svg>
