<svg xmlns="http://www.w3.org/2000/svg" width="13.951" height="16" viewBox="0 0 13.951 16">
  <g>
    <g>
      <path fill="#fe9411" d="M92.95 11.717a1.342 1.342 0 0 0 1.176-.7l.018.049.005.015A5.239 5.239 0 0 0 97.1 14.2a1.877 1.877 0 0 1 1.591-.88h2.353a1.317 1.317 0 0 0 .645-.173 2.659 2.659 0 0 0 .76-.878 6.784 6.784 0 0 0 .588-1.244 1.349 1.349 0 0 0 .371.427v.577a2.367 2.367 0 0 1-2.364 2.364h-2.349a.805.805 0 0 0 0 1.611h2.353a3.979 3.979 0 0 0 3.975-3.975v-.577a1.34 1.34 0 0 0 .537-1.074V7.015a1.34 1.34 0 0 0-.56-1.088 6.439 6.439 0 0 0-12.837 0 1.34 1.34 0 0 0-.557 1.088v3.359a1.343 1.343 0 0 0 1.344 1.343zm5.634-10.106a4.835 4.835 0 0 1 4.8 4.349 1.347 1.347 0 0 0-.377.466 4.595 4.595 0 0 0-8.851-.008v.008a1.347 1.347 0 0 0-.377-.466 4.835 4.835 0 0 1 4.805-4.349z" transform="translate(-91.608)"/>
    </g>
  </g>
</svg>
