<svg width="14" height="14" viewBox="0 0 14 14" fill="none" xmlns="http://www.w3.org/2000/svg">
<g id="Group 10646">
<path id="Path 6628" d="M7 1C3.6865 1 1 3.6865 1 7C1 10.3135 3.6865 13 7 13C10.3135 13 13 10.3135 13 7C13 3.6865 10.3135 1 7 1Z" stroke="#FE9411"/>
<path id="Path 6413" fill-rule="evenodd" clip-rule="evenodd" d="M6.99951 10.8296C6.53051 10.8296 6.20951 10.4681 6.20951 9.99957C6.20951 9.51757 6.54401 9.16957 6.99951 9.16957C7.48101 9.16957 7.78951 9.51757 7.78951 9.99957C7.78951 10.4686 7.48101 10.8296 6.99951 10.8296ZM7.31051 7.66008C7.19101 8.06758 6.81451 8.07458 6.68901 7.66008C6.54451 7.18208 6.03101 5.36758 6.03101 4.18908C6.03101 2.63408 7.97651 2.62658 7.97651 4.18908C7.97601 5.37458 7.43501 7.23608 7.31051 7.66008Z" fill="#FE9411"/>
</g>
</svg>
