<svg xmlns="http://www.w3.org/2000/svg" width="16" height="16" viewBox="0 0 16 16">
  <g id="info-button" transform="translate(101)">
    <g id="Group_10475" data-name="Group 10475" transform="translate(-101)">
      <path id="Path_16464" fill="#969696" d="M13.657 2.343a8 8 0 1 0 0 11.314 8 8 0 0 0 0-11.314zm-4.614 9.135a1.043 1.043 0 0 1-2.087 0V7.3a1.043 1.043 0 0 1 2.087 0zM7.981 5.521a.931.931 0 0 1-.989-.951.93.93 0 0 1 1-.964.96.96 0 1 1-.012 1.915z" data-name="Path 16464"/>
    </g>
  </g>
</svg>