<svg xmlns="http://www.w3.org/2000/svg" width="16.001" height="16" viewBox="0 0 16.001 16">
  <defs>
    <style>
      .cls-4{stroke:none}.cls-5{fill:none}
    </style>
  </defs>
  <g id="Group_19857" transform="translate(-17 -430)">
    <g id="Group_20332">
      <g id="Rectangle_5517" fill="#ffeed9" stroke="#3f3f3f" stroke-dasharray="2" transform="translate(17 430)">
        <rect width="13" height="13" class="cls-4" rx="4"/>
        <rect width="12" height="12" x=".5" y=".5" class="cls-5" rx="3.5"/>
      </g>
      <g id="Path_12673" fill="#fe9411">
        <path d="M10 12.167H2.667C1.472 12.167.5 11.195.5 10V2.667C.5 1.472 1.472.5 2.667.5H10c1.195 0 2.167.972 2.167 2.167V10c0 1.195-.972 2.167-2.167 2.167z" class="cls-4" transform="translate(20.334 433.333)"/>
        <path fill="#3f3f3f" d="M2.667 1C1.747 1 1 1.748 1 2.667V10c0 .919.748 1.667 1.667 1.667H10c.919 0 1.667-.748 1.667-1.667V2.667C11.667 1.747 10.919 1 10 1H2.667m0-1H10c1.473 0 2.667 1.194 2.667 2.667V10c0 1.473-1.194 2.667-2.667 2.667H2.667C1.194 12.667 0 11.473 0 10V2.667C0 1.194 1.194 0 2.667 0z" transform="translate(20.334 433.333)"/>
      </g>
      <g id="Rectangle_5555" fill="#fff" stroke="#3f3f3f">
        <path d="M4 0h6v6a4 4 0 0 1-4 4H0V4a4 4 0 0 1 4-4z" class="cls-4" transform="translate(20 433)"/>
        <path d="M4 .5h5a.5.5 0 0 1 .5.5v5A3.5 3.5 0 0 1 6 9.5H1A.5.5 0 0 1 .5 9V4A3.5 3.5 0 0 1 4 .5z" class="cls-5" transform="translate(20 433)"/>
      </g>
    </g>
  </g>
</svg>