<svg xmlns="http://www.w3.org/2000/svg" xmlns:xlink="http://www.w3.org/1999/xlink" width="18.632" height="18.632" viewBox="0 0 18.632 18.632">
  <defs>
    <clipPath id="clip-path">
      <rect width="18.632" height="18.632" fill="none"/>
    </clipPath>
  </defs>
  <g id="icon_next_grey" clip-path="url(#clip-path)">
    <g id="Path_1033" data-name="Path 1033" fill="none">
      <path d="M9.316,0A9.316,9.316,0,1,1,0,9.316,9.316,9.316,0,0,1,9.316,0Z" stroke="none"/>
      <path d="M 9.315826416015625 0.9999961853027344 C 4.730466842651367 0.9999961853027344 0.9999961853027344 4.730466842651367 0.9999961853027344 9.315826416015625 C 0.9999961853027344 13.90118598937988 4.730466842651367 17.63165664672852 9.315826416015625 17.63165664672852 C 13.90118598937988 17.63165664672852 17.63165664672852 13.90118598937988 17.63165664672852 9.315826416015625 C 17.63165664672852 4.730466842651367 13.90118598937988 0.9999961853027344 9.315826416015625 0.9999961853027344 M 9.315826416015625 -3.814697265625e-06 C 14.46081638336182 -3.814697265625e-06 18.63165664672852 4.170836448669434 18.63165664672852 9.315826416015625 C 18.63165664672852 14.46081638336182 14.46081638336182 18.63165664672852 9.315826416015625 18.63165664672852 C 4.170836448669434 18.63165664672852 -3.814697265625e-06 14.46081638336182 -3.814697265625e-06 9.315826416015625 C -3.814697265625e-06 4.170836448669434 4.170836448669434 -3.814697265625e-06 9.315826416015625 -3.814697265625e-06 Z" stroke="none" fill="#484848"/>
    </g>
    <path id="Stroke_3" data-name="Stroke 3" d="M4.153,0,0,4.153,4.153,8.306" transform="translate(11.708 13.285) rotate(180)" fill="none" stroke="#484848" stroke-linecap="round" stroke-linejoin="round" stroke-width="1"/>
  </g>
</svg>
