<svg width="32" height="32" viewBox="0 0 20 20" fill="none" xmlns="http://www.w3.org/2000/svg">
<path d="M10 6.25V10" stroke="#F29974" stroke-width="2" stroke-linecap="round" stroke-linejoin="round"/>
<path d="M13.2476 11.875L10 10" stroke="#F29974" stroke-width="2" stroke-linecap="round" stroke-linejoin="round"/>
<path d="M14.3877 7.79028H17.5127V4.66528" stroke="#F29974" stroke-width="2" stroke-linecap="round" stroke-linejoin="round"/>
<path d="M14.8614 14.8614C13.8999 15.8229 12.6749 16.4776 11.3412 16.7429C10.0076 17.0082 8.62529 16.872 7.36905 16.3517C6.11281 15.8313 5.03908 14.9501 4.28365 13.8196C3.52821 12.689 3.125 11.3598 3.125 10C3.125 8.64026 3.52821 7.31105 4.28365 6.18046C5.03908 5.04987 6.11281 4.16868 7.36905 3.64833C8.62529 3.12798 10.0076 2.99183 11.3412 3.2571C12.6749 3.52238 13.8999 4.17716 14.8614 5.13864L17.513 7.79029" stroke="#F29974" stroke-width="2" stroke-linecap="round" stroke-linejoin="round"/>
</svg>
