<svg width="32" height="32" viewBox="0 0 24 24" fill="none" xmlns="http://www.w3.org/2000/svg">
<path d="M15.9999 11.1787C18.3076 11.1787 20.1784 9.30787 20.1784 7.0001C20.1784 4.69234 18.3076 2.82153 15.9999 2.82153C13.6921 2.82153 11.8213 4.69234 11.8213 7.0001C11.8213 9.30787 13.6921 11.1787 15.9999 11.1787Z" stroke="#F29974" stroke-width="1.5"/>
<path d="M17.4797 5.86283C17.4699 5.85302 17.4582 5.84535 17.4453 5.84027C17.4325 5.83519 17.4187 5.83283 17.4049 5.83331H16.8481C16.8156 5.6615 16.7443 5.49956 16.6398 5.36008H17.3981C17.4119 5.36064 17.4257 5.3583 17.4385 5.35322C17.4514 5.34814 17.4631 5.34042 17.4728 5.33056C17.4826 5.32069 17.4903 5.30889 17.4953 5.2959C17.5003 5.2829 17.5026 5.269 17.5021 5.25506V4.91957C17.5027 4.90561 17.5004 4.89168 17.4954 4.87866C17.4903 4.86563 17.4827 4.8538 17.4729 4.84391C17.4632 4.83402 17.4515 4.82628 17.4386 4.82118C17.4257 4.81609 17.4119 4.81374 17.3981 4.8143H14.6902C14.6764 4.81371 14.6625 4.81603 14.6496 4.82111C14.6367 4.82619 14.625 4.83392 14.6152 4.84382C14.6054 4.85371 14.5977 4.86556 14.5927 4.8786C14.5877 4.89164 14.5854 4.90559 14.586 4.91957V5.35541C14.5863 5.38323 14.5974 5.40982 14.6168 5.4295C14.6363 5.44917 14.6627 5.46036 14.6902 5.46068H15.1623C15.62 5.46068 15.9108 5.58448 16.0345 5.83208H14.6902C14.6764 5.83149 14.6625 5.83381 14.6496 5.83889C14.6367 5.84397 14.625 5.8517 14.6152 5.8616C14.6054 5.87149 14.5977 5.88334 14.5927 5.89638C14.5877 5.90942 14.5854 5.92337 14.586 5.93735V6.27358C14.5854 6.28754 14.5877 6.30147 14.5928 6.31448C14.5978 6.32749 14.6055 6.3393 14.6153 6.34917C14.6251 6.35904 14.6368 6.36675 14.6497 6.37181C14.6626 6.37688 14.6764 6.37919 14.6902 6.3786H16.0801C16.0567 6.46715 16.0148 6.54961 15.9573 6.62046C15.8997 6.69131 15.8278 6.74889 15.7464 6.78936C15.5306 6.89257 15.2931 6.94112 15.0546 6.93078H14.6892C14.6617 6.9311 14.6353 6.9423 14.6159 6.96197C14.5964 6.98164 14.5853 7.00823 14.585 7.03605V7.45418C14.5847 7.46761 14.5872 7.48096 14.5922 7.4934C14.5972 7.50583 14.6047 7.5171 14.6142 7.5265C15.0309 7.97349 15.5712 8.59904 16.2352 9.40317C16.2446 9.41596 16.2569 9.42624 16.271 9.4331C16.2852 9.43996 16.3009 9.4432 16.3166 9.44252H16.9514C16.9713 9.44401 16.9912 9.43907 17.0082 9.42842C17.0251 9.41776 17.0383 9.40195 17.0459 9.38325C17.0566 9.3659 17.0611 9.34538 17.0587 9.32508C17.0564 9.30477 17.0472 9.2859 17.0327 9.27158C16.3994 8.48713 15.9014 7.89986 15.5388 7.50977C15.8673 7.48251 16.1802 7.35658 16.4372 7.14821C16.6661 6.95277 16.8156 6.67892 16.8571 6.37909H17.4039C17.4177 6.37965 17.4315 6.37731 17.4444 6.37223C17.4573 6.36715 17.469 6.35944 17.4788 6.34958C17.4886 6.33972 17.4962 6.32792 17.5013 6.31493C17.5063 6.30193 17.5087 6.28802 17.5082 6.27407V5.93834C17.5088 5.92445 17.5065 5.9106 17.5016 5.89762C17.4967 5.88464 17.4893 5.8728 17.4797 5.86283Z" fill="#F29974"/>
<path d="M10.9522 14.6724L10.3811 15.1587L10.6057 15.4224H10.9522V14.6724ZM14.3459 15.838H15.0959H14.3459ZM13.1803 17.0035V17.7535V17.0035ZM8.75039 16.2535C8.33617 16.2535 8.00039 16.5893 8.00039 17.0035C8.00039 17.4177 8.33617 17.7535 8.75039 17.7535V16.2535ZM5.90436 14.9402C7.31981 13.9605 8.42661 14.0682 9.16766 14.3527C9.55755 14.5023 9.86917 14.7112 10.0838 14.8844C10.1902 14.9703 10.2701 15.0453 10.321 15.0961C10.3464 15.1214 10.3643 15.1404 10.3745 15.1515C10.3796 15.157 10.3827 15.1605 10.3838 15.1618C10.3844 15.1624 10.3844 15.1625 10.384 15.162C10.3838 15.1617 10.3834 15.1613 10.383 15.1608C10.3827 15.1605 10.3824 15.1602 10.3821 15.1598C10.382 15.1597 10.3817 15.1594 10.3817 15.1593C10.3814 15.159 10.3811 15.1587 10.9522 14.6724C11.5232 14.1861 11.5229 14.1858 11.5226 14.1855C11.5225 14.1853 11.5222 14.185 11.522 14.1847C11.5215 14.1842 11.5211 14.1837 11.5205 14.1831C11.5195 14.1819 11.5184 14.1806 11.5171 14.1791C11.5145 14.1761 11.5113 14.1725 11.5076 14.1682C11.5001 14.1598 11.4904 14.149 11.4785 14.136C11.4546 14.11 11.4217 14.0753 11.3801 14.0338C11.297 13.951 11.1782 13.8402 11.0259 13.7172C10.723 13.4727 10.2768 13.1717 9.70519 12.9523C8.52331 12.4986 6.8928 12.4318 5.05071 13.7068L5.90436 14.9402ZM10.9522 15.4224H13.1803V13.9224H10.9522V15.4224ZM13.1803 15.4224C13.2905 15.4224 13.3962 15.4662 13.4742 15.5441L14.5348 14.4835C14.1756 14.1242 13.6884 13.9224 13.1803 13.9224V15.4224ZM13.4742 15.5441C13.5521 15.622 13.5959 15.7277 13.5959 15.838H15.0959C15.0959 15.3299 14.8941 14.8427 14.5348 14.4835L13.4742 15.5441ZM13.5959 15.838C13.5959 15.9482 13.5521 16.0539 13.4742 16.1318L14.5348 17.1925C14.8941 16.8332 15.0959 16.346 15.0959 15.838H13.5959ZM13.4742 16.1318C13.3962 16.2097 13.2905 16.2535 13.1803 16.2535V17.7535C13.6884 17.7535 14.1756 17.5517 14.5348 17.1925L13.4742 16.1318ZM13.1803 16.2535H8.75039V17.7535H13.1803V16.2535Z" fill="#F29974"/>
<path d="M14.3459 15.8365L17.3289 14.2075C17.4615 14.1292 17.6083 14.078 17.7608 14.0568C17.9132 14.0356 18.0684 14.0447 18.2174 14.0838C18.3663 14.1229 18.5059 14.1911 18.6284 14.2845C18.7508 14.3779 18.8535 14.4946 18.9305 14.6279C19.0076 14.7612 19.0575 14.9084 19.0773 15.0611C19.0971 15.2137 19.0865 15.3688 19.0461 15.5174C19.0056 15.6659 18.9361 15.805 18.8416 15.9266C18.7472 16.0481 18.6295 16.1497 18.4955 16.2256L13.6889 19.3569C12.7833 19.9468 11.6776 20.1452 10.6235 19.9069L5.47754 18.7436" stroke="#F29974" stroke-width="1.5"/>
<path d="M4.47828 12.875H4.125C3.57272 12.875 3.125 13.3227 3.125 13.875V18.9992C3.125 19.5515 3.57271 19.9992 4.125 19.9992H4.47828C5.03056 19.9992 5.47828 19.5515 5.47828 18.9992V13.875C5.47828 13.3227 5.03056 12.875 4.47828 12.875Z" stroke="#F29974" stroke-width="1.5"/>
</svg>
