<svg id="Layer_1" data-name="Layer 1" xmlns="http://www.w3.org/2000/svg" width="32" height="32" viewBox="0 0 32 32"><title>BankFavicons</title><rect width="32" height="32" rx="8" fill="#fcee25" style="isolation:isolate"/><path d="M32,24V22.65H27.92a14.11,14.11,0,0,1-12.58,8.17c-6.94,0-12.72-5.35-14-12.42H0V24a8,8,0,0,0,8,8H24A8,8,0,0,0,32,24Z" fill="#00a958" style="isolation:isolate"/><path id="Fill-3" d="M7.72,4.55a12,12,0,0,1,16.13.39A11,11,0,0,0,7.47,7,13.5,13.5,0,0,0,9.31,24.81a10.93,10.93,0,0,0,14.45.07,12.81,12.81,0,0,0,4-6.34C26.21,26,19.43,30.61,12.62,28.91S1.54,19.83,3.1,12.41A14,14,0,0,1,7.72,4.54" fill="#0fab4d" fill-rule="evenodd"/><path id="Fill-4" d="M11,6A9.8,9.8,0,0,1,25.52,7.82a12,12,0,0,1-1.64,15.89l-.18.16a3,3,0,0,1-.39.32A12,12,0,0,0,24.53,8.25a9.79,9.79,0,0,0-14-1.89A3.09,3.09,0,0,0,11,6" fill="#0fab4d" fill-rule="evenodd"/><path id="Fill-2" d="M7.78,17.8v-3a2.6,2.6,0,0,0-.06-.56A.61.61,0,0,0,7.56,14l-.16-.1a.9.9,0,0,1-.22-.06H7.09s-.07,0-.1-.06a.16.16,0,0,1,0-.22.25.25,0,0,1,.16-.06H7.3s0,0,0,0c.31,0,.62,0,.9,0a5.21,5.21,0,0,0,1-.06h.16a.22.22,0,0,1,.15,0,.21.21,0,0,1,.07.12c0,.07-.07.13-.19.19h0s-.09,0-.13.06a.07.07,0,0,0-.06.07.43.43,0,0,0-.16.19c0,.09,0,.24,0,.46V16a.17.17,0,0,0,0,.1.07.07,0,0,0,.07.06l0,0s.06,0,.09-.07l1.47-1.34a2.43,2.43,0,0,0,.34-.38.48.48,0,0,0,.1-.28c0-.12-.06-.18-.25-.22v0h-.06c-.13,0-.19-.09-.19-.16s0-.09,0-.12a.22.22,0,0,1,.16,0h.24l.69,0c.23,0,.46,0,.68,0h.13a.33.33,0,0,1,.19,0s0,.06,0,.09,0,.13,0,.13-.07.06-.16.09h0a.44.44,0,0,1-.16.06,4.25,4.25,0,0,0-1,.75l0,0,0,0-.75.66-.13.12s0,0,0,.07,0,0,0,.06,0,.06.06.13l1.82,2.62a1,1,0,0,0,.22.28.94.94,0,0,0,.23.16s.06,0,.12,0,.09,0,.09.06,0,.06,0,.13,0,.12-.07.12a.22.22,0,0,1-.19.06h-.09a.08.08,0,0,1-.09,0h-.38a4.71,4.71,0,0,0-.53,0h-.09a.3.3,0,0,1-.25-.12,3.75,3.75,0,0,1-.35-.44L9.59,16.58s0-.06-.06-.1H9.47s0,0-.06,0a0,0,0,0,0,0,0l-.25.22c-.06.06-.09.09-.09.13A.2.2,0,0,0,9,17v1a1.84,1.84,0,0,0,.06.47,1.37,1.37,0,0,0,.23.25l.28.1h0a.6.6,0,0,1,.22.09.21.21,0,0,1,.07.12.21.21,0,0,1-.07.13.14.14,0,0,1-.12.06H9.57c-.06,0-.09,0-.12,0-.19,0-.35,0-.5,0a1.63,1.63,0,0,0-.44,0,1.86,1.86,0,0,0-.47,0c-.12,0-.28,0-.44,0s-.09,0-.15,0H7.32a.23.23,0,0,1-.12-.06.09.09,0,0,1,0-.09c0-.1.06-.16.18-.25h0l.16-.1.09-.09a.6.6,0,0,0,.13-.25A3.32,3.32,0,0,0,7.78,17.8ZM16,19.11l-2-4.56v-.07a1.49,1.49,0,0,0-.41-.53s-.06,0-.09-.06-.06,0-.09,0a.44.44,0,0,0-.16-.06s0-.07,0-.13a.11.11,0,0,1,.06-.12s.1,0,.19,0h.19a5.9,5.9,0,0,0,.59.06,2.34,2.34,0,0,0,.38,0h.47a.83.83,0,0,1,.22,0h.23a.2.2,0,0,1,.15,0s0,.06,0,.12a.1.1,0,0,1,0,.1s-.06.06-.12.09h0v0h0a.38.38,0,0,0-.25.31.41.41,0,0,0,0,.19l.09.28,1.19,2.85s0,.06.06.06,0,0,.06,0,0,0,.07,0,0,0,.06-.06L18,14.92a1,1,0,0,0,.13-.28c0-.09,0-.19,0-.25a.37.37,0,0,0-.13-.31.43.43,0,0,0-.31-.19s-.06,0-.1,0h0c-.18,0-.25-.13-.25-.23a.12.12,0,0,1,0-.09.2.2,0,0,1,.15-.06l.06,0h.13a4.34,4.34,0,0,0,.72,0h.31a.67.67,0,0,0,.28,0h.13c.06,0,.09,0,.12,0s0,.06,0,.09-.06.16-.19.25h0S19,14,19,14s-.25.28-.41.62c0,0,0,.06,0,.06v.07a.07.07,0,0,0,0,.06L16.76,18.6v.06s0,.06-.06.1a2.13,2.13,0,0,1-.25.5.34.34,0,0,1-.19.09s-.06,0-.09-.06Zm5.53-2.35v1.41c0,.28,0,.47.16.53s.28.13.59.13a1.29,1.29,0,0,0,.94-.31,1.15,1.15,0,0,0,.31-.91,1.19,1.19,0,0,0-.37-.94,1.67,1.67,0,0,0-1.1-.31c-.25,0-.4,0-.46.06a.61.61,0,0,0-.07.35Zm0-2.12v.81c0,.19,0,.34.13.41a.81.81,0,0,0,.53.12,1.07,1.07,0,0,0,.75-.22.81.81,0,0,0,.22-.65,1.35,1.35,0,0,0-.28-.91.85.85,0,0,0-.75-.35.66.66,0,0,0-.47.13c-.1.1-.13.32-.13.66ZM20.34,17.8v-3a2.09,2.09,0,0,0-.06-.56.61.61,0,0,0-.16-.28,1,1,0,0,0-.37-.13v0h-.13s-.06,0-.06-.06a.16.16,0,0,1,0-.09c0-.07,0-.1,0-.13a.29.29,0,0,1,.12-.07s0,0,.07,0h0c.19,0,.37,0,.53,0h.87c.13,0,.25,0,.41,0h.19a4.63,4.63,0,0,1,.65,0,2.76,2.76,0,0,1,1.47.35,1.21,1.21,0,0,1,.53,1,1.12,1.12,0,0,1-.28.81,2,2,0,0,1-.87.44,2,2,0,0,1,1.19.37,1.15,1.15,0,0,1,.4,1,1.55,1.55,0,0,1-.66,1.38,3.65,3.65,0,0,1-2,.43,4.71,4.71,0,0,1-.75,0h-.93c-.16,0-.28,0-.44,0a.12.12,0,0,1-.09,0h-.13a.19.19,0,0,1-.12-.07s-.07-.06-.07-.09a.15.15,0,0,1,.07-.12.64.64,0,0,1,.15-.13h0a.53.53,0,0,0,.25-.19.6.6,0,0,0,.13-.28C20.31,18.29,20.34,18.11,20.34,17.8Z" fill="#37342f" fill-rule="evenodd" style="isolation:isolate"/></svg>