<svg xmlns="http://www.w3.org/2000/svg" width="27" height="23.478" viewBox="0 0 27 23.478">
    <defs>
        <style>
            .cls-1{fill:#f8dab4}.cls-2{fill:#484848}
        </style>
    </defs>
    <g id="Group_7562" data-name="Group 7562" transform="translate(-15 -470)">
        <g id="Group_7561" data-name="Group 7561" transform="translate(15 470)">
            <path id="Path_14829" d="M29.788 141.212a11.33 11.33 0 0 1-11.48 11.173 11.177 11.177 0 1 1 0-22.346 11.329 11.329 0 0 1 11.48 11.173zm0 0" class="cls-1" data-name="Path 14829" transform="translate(-6.828 -128.906)"/>
            <path id="Path_14831" d="M77.28 199.4a1.093 1.093 0 1 1-1.093-1.093 1.093 1.093 0 0 1 1.093 1.093zm0 0" class="cls-2" data-name="Path 14831" transform="translate(-69.907 -189.587)"/>
            <path id="Path_14832" d="M200.16 199.4a1.093 1.093 0 1 1-1.094-1.093 1.093 1.093 0 0 1 1.094 1.093zm0 0" class="cls-2" data-name="Path 14832" transform="translate(-183.449 -189.587)"/>
            <path id="Path_14837" d="M109.773 281.32h5.467a.547.547 0 1 0 0-1.093h-5.467a.547.547 0 1 0 0 1.093" class="cls-2" data-name="Path 14837" transform="translate(-101.53 -265.109)"/>
            <g id="Group_7560" data-name="Group 7560" transform="translate(17.976)">
                <path id="Path_14835" d="M315.6 221.924a1.567 1.567 0 1 1 1.11-.459 1.983 1.983 0 0 1-.239.2 1.781 1.781 0 0 1-.271.141 1.5 1.5 0 0 1-.294.09 1.636 1.636 0 0 1-.306.028zm0 0" class="cls-2" data-name="Path 14835" transform="translate(-311.085 -206.622)"/>
                <path id="Path_14838" d="M267.34 18.146a1.569 1.569 0 0 1-1.569-1.57v-1.961a1.569 1.569 0 0 1 1.569-1.57 1.373 1.373 0 1 0-1.373-1.373 1.569 1.569 0 0 1-3.139 0 4.512 4.512 0 1 1 6.082 4.23v.674a1.57 1.57 0 0 1-1.57 1.57zm0 0" class="cls-2" data-name="Path 14838" transform="translate(-262.828 -7.16)"/>
            </g>
        </g>
    </g>
</svg>
