<svg xmlns="http://www.w3.org/2000/svg" width="124" height="124" viewBox="0 0 124 124">
    <defs>
        <style>
            .cls-1{fill:#ffeed9}.cls-2,.cls-4{fill:#fff}.cls-2{stroke:#aaa}.cls-3{fill:#d1544c}.cls-4{stroke:rgba(0,0,0,0)}.cls-5{stroke:none}.cls-6{fill:none}
        </style>
    </defs>
    <g id="Group_9931" data-name="Group 9931" transform="translate(-642 -285)">
        <circle id="Ellipse_423" cx="62" cy="62" r="62" class="cls-1" data-name="Ellipse 423" transform="translate(642 285)"/>
        <g id="Group_9930" data-name="Group 9930" transform="translate(655.671 318.37)">
            <g id="Rectangle_5959" class="cls-2" data-name="Rectangle 5959">
                <rect width="97.735" height="57.722" class="cls-5" rx="2"/>
                <rect width="96.735" height="56.722" x=".5" y=".5" class="cls-6" rx="1.5"/>
            </g>
            <path id="Polygon_1" d="M14.92 3.578a2 2 0 0 1 3.578 0l13.473 26.945a2 2 0 0 1-1.789 2.894H3.236a2 2 0 0 1-1.789-2.894z" class="cls-3" data-name="Polygon 1" transform="translate(32.983 9.114)"/>
            <path id="Path_16436" d="M2.349-7.843L1.3 4.55q-.043.369-.483.369T.362 4.55L-.689-7.886a.907.907 0 0 1 .426-.759A1.806 1.806 0 0 1 .816-8.95a1.865 1.865 0 0 1 1.1.305.939.939 0 0 1 .433.802zm-.028 15.9a1.45 1.45 0 0 1-.44 1.065 1.45 1.45 0 0 1-1.065.44 1.45 1.45 0 0 1-1.065-.44 1.45 1.45 0 0 1-.44-1.065 1.491 1.491 0 0 1 .44-1.086 1.439 1.439 0 0 1 1.065-.448 1.432 1.432 0 0 1 1.072.447 1.5 1.5 0 0 1 .433 1.087z" class="cls-4" data-name="Path 16436" transform="translate(49.339 30.292)"/>
            <g id="Rectangle_5961" class="cls-2" data-name="Rectangle 5961">
                <path d="M0 0h7.595v6.076H0z" class="cls-5" transform="translate(45.07 56.203)"/>
                <path d="M.5.5h6.595v5.076H.5z" class="cls-6" transform="translate(45.07 56.203)"/>
            </g>
            <g id="Rectangle_5962" class="cls-2" data-name="Rectangle 5962" transform="translate(35.956 60.76)">
                <rect width="25.823" height="6.076" class="cls-5" rx="2"/>
                <rect width="24.823" height="5.076" x=".5" y=".5" class="cls-6" rx="1.5"/>
            </g>
        </g>
    </g>
</svg>
