<svg xmlns="http://www.w3.org/2000/svg" width="16" height="16" viewBox="0 0 16 16">
    <defs>
        <style>
            .cls-1{fill:#fff}.cls-2{fill:none;stroke:#b3b3b3;stroke-linecap:round;stroke-linejoin:round}
        </style>
    </defs>
    <g id="Group_10708" data-name="Group 10708" transform="translate(-111 -331)">
        <path id="Rectangle_7260" d="M0 0h16v16H0z" class="cls-1" data-name="Rectangle 7260" transform="translate(111 331)"/>
        <path id="Path_13163" d="M12.981 10.073q-.055-.166-.7-.489-.175-.1-.5-.277t-.586-.323q-.264-.148-.494-.286-.037-.028-.231-.162a2.6 2.6 0 0 0-.328-.2.6.6 0 0 0-.263-.065.766.766 0 0 0-.461.263 4.5 4.5 0 0 0-.508.573 5.567 5.567 0 0 1-.489.572.7.7 0 0 1-.421.265.628.628 0 0 1-.212-.044c-.088-.033-.146-.059-.188-.08s-.117-.065-.221-.129-.163-.1-.176-.106a9.7 9.7 0 0 1-2.17-1.607 9.7 9.7 0 0 1-1.607-2.17q-.009-.018-.106-.175t-.13-.223a2 2 0 0 1-.078-.189.625.625 0 0 1-.046-.208.7.7 0 0 1 .263-.425A5.561 5.561 0 0 1 3.9 4.1a4.494 4.494 0 0 0 .572-.508.766.766 0 0 0 .263-.462.6.6 0 0 0-.065-.263 2.567 2.567 0 0 0-.2-.328q-.134-.194-.162-.231-.138-.231-.286-.494T3.7 1.228Q3.527.9 3.425.729 3.1.083 2.936.028A.517.517 0 0 0 2.742 0a3.042 3.042 0 0 0-.651.092 3.656 3.656 0 0 0-.633.194A2.475 2.475 0 0 0 .48 1.413 3.58 3.58 0 0 0 .009 3.13a3.566 3.566 0 0 0 .032.485 3.984 3.984 0 0 0 .115.531q.083.3.134.439t.19.515q.138.369.166.452a8.363 8.363 0 0 0 .766 1.616A13.691 13.691 0 0 0 3.4 9.607 13.7 13.7 0 0 0 5.844 11.6a8.376 8.376 0 0 0 1.616.766q.083.028.452.166t.512.189q.143.051.439.134a4.019 4.019 0 0 0 .531.116 3.425 3.425 0 0 0 2.2-.439 2.474 2.474 0 0 0 1.126-.979 3.637 3.637 0 0 0 .194-.632 3.035 3.035 0 0 0 .092-.651.515.515 0 0 0-.025-.197z" class="cls-2" data-name="Path 13163" transform="translate(112.491 332.5)"/>
    </g>
</svg>
