<svg xmlns="http://www.w3.org/2000/svg" width="13" height="13" viewBox="0 0 13 13">
    <defs>
        <style>
            .cls-1{fill:none;stroke:#fe9411}.cls-2{fill:#fe9411}
        </style>
    </defs>
    <g id="Group_7076" data-name="Group 7076" transform="translate(-25.5 -763.5)">
        <path id="Path_6628" d="M6 0a6 6 0 1 0 6 6 6 6 0 0 0-6-6z" class="cls-1" data-name="Path 6628" transform="translate(26 764)"/>
        <g id="icon" transform="translate(31.031 766.02)">
            <path id="Path_6413" d="M5.554 9.651a.785.785 0 0 1-.79-.83.785.785 0 0 1 .79-.83.77.77 0 0 1 .79.83.777.777 0 0 1-.79.83zm.311-3.169c-.119.407-.5.414-.622 0a15.022 15.022 0 0 1-.658-3.472c0-1.555 1.945-1.562 1.945 0a15.377 15.377 0 0 1-.665 3.471z" class="cls-2" data-name="Path 6413" transform="translate(-4.585 -1.841)"/>
        </g>
    </g>
</svg>
