<svg xmlns="http://www.w3.org/2000/svg" width="40" height="40" viewBox="0 0 40 40" fill="none">
<path opacity="0.2" d="M14.4494 19.5027C15.746 22.1535 17.8948 24.2925 20.5515 25.577C20.7459 25.6691 20.9609 25.709 21.1754 25.6928C21.3899 25.6766 21.5964 25.6048 21.7747 25.4845L25.6866 22.876C25.8596 22.7606 26.0586 22.6902 26.2657 22.6712C26.4728 22.6522 26.6813 22.6851 26.8724 22.767L34.1907 25.9034C34.4393 26.0091 34.6469 26.1926 34.7821 26.4264C34.9173 26.6602 34.9729 26.9317 34.9405 27.1998C34.7092 29.0098 33.826 30.6734 32.4564 31.8792C31.0869 33.085 29.3247 33.7502 27.5 33.7503C21.8641 33.7503 16.4591 31.5114 12.474 27.5263C8.48883 23.5411 6.25 18.1361 6.25 12.5003C6.2501 10.6755 6.9153 8.91342 8.12106 7.54383C9.32683 6.17424 10.9905 5.29112 12.8005 5.05981C13.0686 5.02736 13.34 5.08293 13.5739 5.21815C13.8077 5.35338 13.9912 5.56093 14.0968 5.80953L17.236 13.1342C17.3172 13.3237 17.3502 13.5303 17.3323 13.7356C17.3143 13.9409 17.2458 14.1386 17.1329 14.3111L14.5335 18.2829C14.4152 18.4616 14.3453 18.6679 14.3305 18.8817C14.3158 19.0955 14.3567 19.3094 14.4494 19.5027Z" fill="black"/>
<path d="M14.4494 19.5027C15.746 22.1535 17.8948 24.2925 20.5515 25.577C20.7459 25.6691 20.9609 25.709 21.1754 25.6928C21.3899 25.6766 21.5964 25.6048 21.7747 25.4845L25.6866 22.876C25.8596 22.7606 26.0586 22.6902 26.2657 22.6712C26.4728 22.6522 26.6813 22.6851 26.8724 22.767L34.1907 25.9034C34.4393 26.009 34.6469 26.1926 34.7821 26.4264C34.9173 26.6602 34.9729 26.9317 34.9405 27.1998C34.7092 29.0098 33.826 30.6734 32.4564 31.8792C31.0869 33.085 29.3247 33.7502 27.5 33.7503C21.8641 33.7503 16.4591 31.5114 12.474 27.5263C8.48883 23.5411 6.25 18.1361 6.25 12.5003C6.2501 10.6755 6.9153 8.91342 8.12106 7.54383C9.32683 6.17424 10.9905 5.29112 12.8005 5.05981C13.0686 5.02736 13.34 5.08293 13.5739 5.21815C13.8077 5.35338 13.9912 5.56093 14.0968 5.80953L17.236 13.1342C17.3172 13.3237 17.3502 13.5303 17.3323 13.7356C17.3143 13.9409 17.2458 14.1386 17.1329 14.3111L14.5335 18.2829C14.4152 18.4616 14.3453 18.6679 14.3305 18.8817C14.3158 19.0955 14.3567 19.3094 14.4494 19.5027V19.5027Z" stroke="black" stroke-width="2" stroke-linecap="round" stroke-linejoin="round"/>
<path d="M24.9092 6.25C27.0282 6.8199 28.9603 7.9366 30.512 9.48823C32.0636 11.0399 33.1803 12.972 33.7502 15.091" stroke="black" stroke-width="2" stroke-linecap="round" stroke-linejoin="round"/>
<path d="M23.6143 11.0811C24.8857 11.423 26.045 12.093 26.9759 13.024C27.9069 13.955 28.5769 15.1142 28.9189 16.3857" stroke="black" stroke-width="2" stroke-linecap="round" stroke-linejoin="round"/>
</svg>