<svg xmlns="http://www.w3.org/2000/svg" width="24.251" height="32" viewBox="0 0 24.251 32">
    <defs>
        <style>
            .prefix__cls-1{fill:#525252}
        </style>
    </defs>
    <g id="prefix__noun_agreement_1847099" transform="translate(-19.9 -14.4)">
        <g id="prefix__Group_10660" data-name="Group 10660" transform="translate(19.9 14.4)">
            <path id="prefix__Path_17951" d="M44.12 21.374c0-.015-.015-.046-.015-.061a.763.763 0 0 0-.122-.182l-6.549-6.549a.636.636 0 0 0-.182-.122.091.091 0 0 0-.061-.015.646.646 0 0 0-.167-.03c-.015 0-.03-.015-.046-.015H21.815a1.916 1.916 0 0 0-1.915 1.915v28.17a1.916 1.916 0 0 0 1.915 1.915h20.421a1.916 1.916 0 0 0 1.915-1.915V21.572a.056.056 0 0 0-.015-.046.274.274 0 0 0-.016-.152zm-2.142-.441h-3.723a.642.642 0 0 1-.638-.638v-3.722l2.173 2.173zm.258 24.19H21.815a.642.642 0 0 1-.638-.638v-28.17a.642.642 0 0 1 .638-.638h14.51V20.3a1.916 1.916 0 0 0 1.915 1.91h4.619v22.26a.615.615 0 0 1-.623.654z" class="prefix__cls-1" data-name="Path 17951" transform="translate(-19.9 -14.4)"/>
            <path id="prefix__Path_17952" d="M122.825 169.3a1.159 1.159 0 0 0 .015-.23 1.4 1.4 0 0 0-.413-1 1.451 1.451 0 0 0-1.225-.4.8.8 0 0 0-.153-.168 1.365 1.365 0 0 0-1-.413 1.394 1.394 0 0 0-1.148.6 1.406 1.406 0 0 0-1.225.4 1.434 1.434 0 0 0-.4 1.225 1.414 1.414 0 0 0-.582 1.133 7.821 7.821 0 0 1 1 2.373 1.42 1.42 0 0 0 1.225.4 1.435 1.435 0 0 0 1.148.6 1.394 1.394 0 0 0 1.148-.6 1.406 1.406 0 0 0 1.225-.4 1.434 1.434 0 0 0 .4-1.225.8.8 0 0 0 .168-.153 1.365 1.365 0 0 0 .413-1 1.478 1.478 0 0 0-.596-1.142zm-.735 1.225a.129.129 0 0 1-.092.031h-.092a.649.649 0 0 0-.6.4.633.633 0 0 0 .138.7l.077.077a.12.12 0 0 1 0 .168c-.046.061-.092.077-.2-.031l-.077-.061a.633.633 0 0 0-.689-.107.659.659 0 0 0-.383.6v.092c0 .138-.245.138-.245 0v-.107a.649.649 0 0 0-.4-.6.694.694 0 0 0-.245-.046.648.648 0 0 0-.459.184l-.077.077c-.046.046-.092.077-.168 0a.12.12 0 0 1 0-.168l.077-.077a.633.633 0 0 0 .138-.7.649.649 0 0 0-.6-.4h-.092a.122.122 0 1 1 0-.245h.092a.659.659 0 0 0 .6-.383.61.61 0 0 0-.122-.689l-.092-.092a.1.1 0 0 1 0-.153.115.115 0 0 1 .184 0l.077.077a.633.633 0 0 0 .7.138.649.649 0 0 0 .4-.6v-.107c0-.092.092-.2.214-.077a.117.117 0 0 1 .031.077v.107a.649.649 0 0 0 .4.6.633.633 0 0 0 .7-.138l.077-.077a.1.1 0 0 1 .168 0c.031.031.031.046.031.092 0 .015 0 .046-.061.107l-.077.077a.633.633 0 0 0-.107.689.659.659 0 0 0 .6.383h.092a.121.121 0 0 1 .122.122c-.009.004-.009.035-.04.065z" class="prefix__cls-1" data-name="Path 17952" transform="translate(-102.065 -143.966)"/>
            <path id="prefix__Path_17954" d="M42.187 132.586h15.054a.646.646 0 0 0 0-1.286H42.187a.646.646 0 0 0 0 1.286z" class="prefix__cls-1" data-name="Path 17954" transform="translate(-37.604 -113.543)"/>
            <path id="prefix__Path_17955" d="M57.827 150.043a.621.621 0 0 0-.587-.643H42.187a.646.646 0 0 0 0 1.286h15.054a.621.621 0 0 0 .586-.643z" class="prefix__cls-1" data-name="Path 17955" transform="translate(-37.604 -128.894)"/>
            <path id="prefix__Path_17956" d="M42.187 96.486h15.054a.646.646 0 0 0 0-1.286H42.187a.646.646 0 0 0 0 1.286z" class="prefix__cls-1" data-name="Path 17956" transform="translate(-37.604 -82.927)"/>
            <path id="prefix__Path_17957" d="M42.187 114.586h15.054a.646.646 0 0 0 0-1.286H42.187a.646.646 0 0 0 0 1.286z" class="prefix__cls-1" data-name="Path 17957" transform="translate(-37.604 -98.277)"/>
            <path id="prefix__Path_17958" d="M52.715 78.386h10.623a.659.659 0 0 0 0-1.286H52.715a.593.593 0 0 0-.515.643.585.585 0 0 0 .515.643z" class="prefix__cls-1" data-name="Path 17958" transform="translate(-45.999 -67.576)"/>
        </g>
    </g>
</svg>
