<svg xmlns="http://www.w3.org/2000/svg" width="18" height="18" viewBox="0 0 18 18">
    <defs>
        <style>
            .cls-1{fill:#fe9426}
        </style>
    </defs>
    <g id="Group_20331" transform="translate(-304 -313)">
        <path id="Path_18530" d="M12.627 91.133a.664.664 0 0 0-.665.665v5.317a.665.665 0 0 1-.665.665h-9.3a.665.665 0 0 1-.665-.665v-9.3a.665.665 0 0 1 .665-.665h5.314a.665.665 0 0 0 0-1.329H1.994A2 2 0 0 0 0 87.81v9.3a2 2 0 0 0 1.994 1.994h9.3a2 2 0 0 0 1.994-1.994V91.8a.664.664 0 0 0-.661-.667zm0 0" class="cls-1" transform="translate(304 231.892)"/>
        <g id="Group_20330" transform="translate(311.714 313)">
            <path id="Path_18531" d="M182.375 73.52a.336.336 0 0 0-.091.169l-.47 2.35a.332.332 0 0 0 .326.4.316.316 0 0 0 .065-.007l2.349-.47a.331.331 0 0 0 .17-.091l5.258-5.258-2.349-2.349zm0 0" class="cls-1" transform="translate(-181.808 -66.151)"/>
            <path id="Path_18532" d="M394.714.987a1.663 1.663 0 0 0-2.349 0l-.92.92 2.349 2.349.92-.92a1.661 1.661 0 0 0 0-2.349zm0 0" class="cls-1" transform="translate(-384.914 -.501)"/>
        </g>
    </g>
</svg>
