<svg width="14" height="14" viewBox="0 0 14 14" fill="none" xmlns="http://www.w3.org/2000/svg">
<path d="M7 0.5C5.71442 0.5 4.45772 0.881218 3.3888 1.59545C2.31988 2.30968 1.48676 3.32484 0.994786 4.51256C0.502816 5.70028 0.374095 7.00721 0.624899 8.26809C0.875703 9.52896 1.49477 10.6872 2.40381 11.5962C3.31285 12.5052 4.47104 13.1243 5.73192 13.3751C6.99279 13.6259 8.29973 13.4972 9.48744 13.0052C10.6752 12.5132 11.6903 11.6801 12.4046 10.6112C13.1188 9.54229 13.5 8.28558 13.5 7C13.4981 5.27669 12.8126 3.62452 11.594 2.40596C10.3755 1.1874 8.72331 0.50195 7 0.5ZM6.87504 3.50002C7.02337 3.50002 7.16838 3.54401 7.29171 3.62642C7.41505 3.70883 7.51118 3.82597 7.56795 3.96301C7.62471 4.10005 7.63956 4.25086 7.61063 4.39634C7.58169 4.54183 7.51026 4.67546 7.40537 4.78035C7.30048 4.88524 7.16684 4.95667 7.02135 4.98561C6.87587 5.01455 6.72507 4.9997 6.58802 4.94293C6.45098 4.88617 6.33385 4.79004 6.25143 4.6667C6.16902 4.54336 6.12504 4.39836 6.12504 4.25002C6.12504 4.05111 6.20405 3.86035 6.34471 3.71969C6.48536 3.57904 6.67612 3.50002 6.87504 3.50002ZM7.50001 10.5H7.00001C6.8674 10.5 6.74023 10.4473 6.64646 10.3535C6.55269 10.2598 6.50001 10.1326 6.50001 10V7C6.3674 7 6.24022 6.94732 6.14645 6.85355C6.05268 6.75979 6.00001 6.63261 6.00001 6.5C6.00001 6.36739 6.05268 6.24021 6.14645 6.14645C6.24022 6.05268 6.3674 6 6.50001 6H7.00001C7.13261 6.00001 7.25979 6.05269 7.35355 6.14645C7.44732 6.24022 7.5 6.36739 7.50001 6.5V9.5C7.63261 9.5 7.75979 9.55268 7.85356 9.64645C7.94733 9.74021 8.00001 9.86739 8.00001 10C8.00001 10.1326 7.94733 10.2598 7.85356 10.3536C7.75979 10.4473 7.63261 10.5 7.50001 10.5Z" fill="#788193"/>
</svg>
