<svg xmlns="http://www.w3.org/2000/svg" width="32" height="32" viewBox="0 0 32 32" fill="none">
<g clip-path="url(#clip0_2314_6561)">
<rect x="2.66699" y="8" width="18.6667" height="20.6667" fill="#3DBEF7"/>
<rect opacity="0.68" x="21.333" y="8" width="5.33333" height="20.6667" fill="#3DBEF7"/>
<path d="M1.33301 7.05749C1.33301 6.80746 1.43232 6.56766 1.60911 6.39085L3.7472 4.25241C4.12228 3.87726 4.63104 3.6665 5.16153 3.6665H23.5368C24.1922 3.6665 24.8059 3.98755 25.1797 4.52584L26.485 6.40583C26.6031 6.57587 26.6663 6.77793 26.6663 6.98494C26.6663 7.54572 26.2117 8.00033 25.651 8.00033H2.27585C1.75513 8.00033 1.33301 7.5782 1.33301 7.05749Z" fill="#0076D0"/>
<path d="M5.33301 21.0005C5.33301 20.4482 5.78072 20.0005 6.33301 20.0005H9.66634C10.2186 20.0005 10.6663 20.4482 10.6663 21.0005V28.6672H5.33301V21.0005Z" fill="white"/>
<rect x="6" y="11.3335" width="4" height="4" rx="1" fill="white"/>
<rect x="14" y="11.3335" width="4" height="4" rx="1" fill="white"/>
<rect x="14" y="20" width="4" height="4" rx="1" fill="white"/>
<path d="M25.4592 14.8565L29.4592 10.8215C30.5631 9.70825 31.1831 8.20429 31.1842 6.63651C31.1831 5.06872 30.5631 3.56476 29.4592 2.45151L28.9592 2.00151C28.5207 1.64128 28.0323 1.34655 27.5092 1.12651C26.7946 0.822378 26.0259 0.665909 25.2492 0.666506C24.4737 0.668677 23.7063 0.825443 22.992 1.12764C22.2778 1.42983 21.6309 1.8714 21.0892 2.42651L21.0592 2.45651C19.9537 3.56772 19.333 5.07148 19.333 6.63901C19.333 8.20653 19.9537 9.71029 21.0592 10.8215L25.2542 14.9315L25.4592 14.8565ZM25.2842 14.9315C25.2169 14.9303 25.1525 14.9035 25.1042 14.8565L21.1042 10.8215L25.2842 14.9315ZM25.2842 14.9315C25.3501 14.93 25.4128 14.9032 25.4592 14.8565L25.2842 14.9315Z" fill="#0076D0"/>
<path d="M25.2842 14.9315C25.3501 14.93 25.4128 14.9032 25.4592 14.8565M25.4592 14.8565L29.4592 10.8215C30.5631 9.70825 31.1831 8.20429 31.1842 6.63651C31.1831 5.06872 30.5631 3.56476 29.4592 2.45151V2.45151L28.9592 2.00151C28.5207 1.64128 28.0323 1.34655 27.5092 1.12651C26.7946 0.822378 26.0259 0.665909 25.2492 0.666506C24.4737 0.668677 23.7063 0.825443 22.992 1.12764C22.2778 1.42983 21.6309 1.8714 21.0892 2.42651L21.0592 2.45651C19.9537 3.56772 19.333 5.07148 19.333 6.63901C19.333 8.20653 19.9537 9.71029 21.0592 10.8215L25.2542 14.9315L25.4592 14.8565ZM25.2842 14.9315C25.2169 14.9303 25.1525 14.9035 25.1042 14.8565L21.1042 10.8215L25.2842 14.9315Z" stroke="white" stroke-width="2" stroke-linecap="round" stroke-linejoin="round"/>
<path d="M25.1668 8.57824C26.3705 8.57824 27.3463 7.60244 27.3463 6.39874C27.3463 5.19503 26.3705 4.21924 25.1668 4.21924C23.9631 4.21924 22.9873 5.19503 22.9873 6.39874C22.9873 7.60244 23.9631 8.57824 25.1668 8.57824Z" fill="white"/>
<path d="M2.66699 27.8335H26.667V28.8335C26.667 29.3858 26.2193 29.8335 25.667 29.8335H3.66699C3.11471 29.8335 2.66699 29.3858 2.66699 28.8335V27.8335Z" fill="#0076D0"/>
</g>
<defs>
<clipPath id="clip0_2314_6561">
<path d="M0 6C0 2.68629 2.68629 0 6 0H26C29.3137 0 32 2.68629 32 6V26C32 29.3137 29.3137 32 26 32H6C2.68629 32 0 29.3137 0 26V6Z" fill="white"/>
</clipPath>
</defs>
</svg>