<svg xmlns="http://www.w3.org/2000/svg" width="8.855" height="8.855" viewBox="0 0 8.855 8.855">
  <defs>
    <style>
      .cls-1{fill:none;stroke:#a0a0a0;stroke-width:.8px}.cls-2{fill:#a0a0a0;stroke:rgba(0,0,0,0)}
    </style>
  </defs>
  <g id="Group_10640" data-name="Group 10640" transform="translate(-14.6 -722.6)">
    <g id="Group_7076" data-name="Group 7076" transform="translate(-27 -44)">
      <path id="Path_6628" d="M4.027 0a4.027 4.027 0 1 0 4.028 4.027A4.027 4.027 0 0 0 4.027 0z" class="cls-1" data-name="Path 6628" transform="translate(42 767)"/>
    </g>
    <path id="Path_17917" d="M1.584-4.371a.4.4 0 0 1-.122.292.4.4 0 0 1-.294.124.4.4 0 0 1-.294-.124.4.4 0 0 1-.122-.292.4.4 0 0 1 .12-.3l.21-.112.086-.008a.4.4 0 0 1 .294.12.4.4 0 0 1 .122.3zm.544 4.307q0 .112-.064.112-.164 0-.42-.024Q1.356 0 1.16 0T.68.024Q.428.048.264.048.2.048.2-.064t.064-.108A.69.69 0 0 0 .7-.336a.89.89 0 0 0 .1-.512v-1.48a.723.723 0 0 0-.082-.42.55.55 0 0 0-.358-.132q-.06 0-.06-.104t.064-.1a4.249 4.249 0 0 0 .688-.23 1.086 1.086 0 0 0 .336-.2.114.114 0 0 1 .088-.048q.112 0 .112.064Q1.52-2.6 1.52-2.1v1.252a.89.89 0 0 0 .1.512.7.7 0 0 0 .446.164q.062.008.062.108z" class="cls-2" data-name="Path 17917" transform="translate(17.9 729.187)"/>
  </g>
</svg>