<svg xmlns="http://www.w3.org/2000/svg" width="17" height="16" viewBox="0 0 17 16" fill="none">
<path d="M8.5 1.5C7.21442 1.5 5.95772 1.88122 4.8888 2.59545C3.81988 3.30968 2.98676 4.32484 2.49479 5.51256C2.00282 6.70028 1.87409 8.00721 2.1249 9.26809C2.3757 10.529 2.99477 11.6872 3.90381 12.5962C4.81285 13.5052 5.97104 14.1243 7.23192 14.3751C8.49279 14.6259 9.79973 14.4972 10.9874 14.0052C12.1752 13.5132 13.1903 12.6801 13.9046 11.6112C14.6188 10.5423 15 9.28558 15 8C14.9981 6.27669 14.3126 4.62452 13.094 3.40596C11.8755 2.1874 10.2233 1.50195 8.5 1.5ZM8.37504 4.50002C8.52337 4.50002 8.66838 4.54401 8.79171 4.62642C8.91505 4.70883 9.01118 4.82597 9.06795 4.96301C9.12471 5.10005 9.13956 5.25086 9.11063 5.39634C9.08169 5.54183 9.01026 5.67546 8.90537 5.78035C8.80048 5.88524 8.66684 5.95667 8.52135 5.98561C8.37587 6.01455 8.22507 5.9997 8.08802 5.94293C7.95098 5.88617 7.83385 5.79004 7.75143 5.6667C7.66902 5.54336 7.62504 5.39836 7.62504 5.25002C7.62504 5.05111 7.70405 4.86035 7.84471 4.71969C7.98536 4.57904 8.17612 4.50002 8.37504 4.50002ZM9.00001 11.5H8.50001C8.3674 11.5 8.24023 11.4473 8.14646 11.3535C8.05269 11.2598 8.00001 11.1326 8.00001 11V8C7.8674 8 7.74022 7.94732 7.64645 7.85355C7.55268 7.75979 7.50001 7.63261 7.50001 7.5C7.50001 7.36739 7.55268 7.24021 7.64645 7.14645C7.74022 7.05268 7.8674 7 8.00001 7H8.50001C8.63261 7.00001 8.75979 7.05269 8.85355 7.14645C8.94732 7.24022 9 7.36739 9.00001 7.5V10.5C9.13261 10.5 9.25979 10.5527 9.35356 10.6464C9.44733 10.7402 9.50001 10.8674 9.50001 11C9.50001 11.1326 9.44733 11.2598 9.35356 11.3536C9.25979 11.4473 9.13261 11.5 9.00001 11.5Z" fill="#1E2D4B"/>
</svg>