<?xml version="1.0" encoding="UTF-8"?>
<svg width="469px" height="464px" viewBox="0 0 469 464" version="1.1" xmlns="http://www.w3.org/2000/svg" xmlns:xlink="http://www.w3.org/1999/xlink">
    <!-- Generator: Sketch 51.3 (57544) - http://www.bohemiancoding.com/sketch -->
    <title>logout</title>
    <desc>Created with Sketch.</desc>
    <defs></defs>
    <g id="Page-1" stroke="none" stroke-width="1" fill="none" fill-rule="evenodd">
        <g id="logout" transform="translate(234.500000, 231.500000) scale(-1, 1) rotate(270.000000) translate(-234.500000, -231.500000) translate(2.500000, -2.500000)" fill="#FFFFFF" fill-rule="nonzero">
            <path d="M456.651,221.741 L401.869,183.119 C391.953,176.129 378.225,183.235 378.225,195.379 L378.225,272.621 C378.225,284.815 391.982,291.848 401.868,284.881 L456.65,246.26 C465.129,240.282 465.106,227.704 456.651,221.741 Z" id="Shape"></path>
            <path d="M430.46,330.315 C423.291,326.169 414.114,328.617 409.965,335.789 C374.729,396.704 308.865,437.596 233.598,437.596 C121.334,437.597 30,346.263 30,234.001 C30,121.739 121.334,30.404 233.597,30.404 C308.914,30.404 374.75,71.336 409.963,132.21 C414.111,139.382 423.29,141.829 430.458,137.684 C437.629,133.536 440.079,124.36 435.932,117.189 C395.408,47.133 319.721,0.404 233.597,0.404 C104.487,0.404 0,104.88 0,234.001 C0,363.111 104.476,467.597 233.597,467.597 C319.758,467.597 395.426,420.835 435.934,350.81 C440.081,343.639 437.631,334.464 430.46,330.315 Z" id="Shape"></path>
            <path d="M113.192,219.001 C104.908,219.001 98.192,225.716 98.192,234.001 C98.192,242.285 104.908,249.001 113.192,249.001 L346.223,249.001 L346.223,219.001 L113.192,219.001 Z" id="Shape"></path>
        </g>
    </g>
</svg>