<svg xmlns="http://www.w3.org/2000/svg" width="20" height="37" viewBox="0 0 20 37" fill="none">
<path d="M8.88867 14.3821V33.9998L9.99979 36.5084V14.3821H8.88867Z" fill="#484848"/>
<path d="M10 14.3821V36.5084L11.1111 33.9998V14.3821H10Z" fill="#484848"/>
<path d="M20 9.95684C20 15.4591 15.5218 19.9137 10 19.9137C5.37829 19.9137 1.4869 16.7924 0.343473 12.5499C0.11737 11.7231 1.38423e-09 10.8573 1.38423e-09 9.95684C-9.09127e-05 4.45892 4.47815 0 9.99991 0C13.0955 0 15.8608 1.39829 17.6912 3.59742C19.1348 5.32041 20 7.54127 20 9.95684Z" fill="#FF4D4D"/>
<path d="M12.2143 4.76752C12.2928 4.14678 11.7557 3.58998 11.0579 3.46873C9.3619 3.17408 5.22636 2.91301 3.40764 6.84735C3.40764 6.84735 2.96421 7.85973 4.23913 7.73316C4.85356 7.67215 5.40272 7.3758 5.78947 6.95219C6.4175 6.2642 7.90791 5.14414 10.6785 5.67336C11.3291 5.79761 12.0236 5.48224 12.1844 4.91496C12.1976 4.86782 12.2078 4.81867 12.2143 4.76752Z" fill="#F2F2F2"/>
</svg>