<svg xmlns="http://www.w3.org/2000/svg" width="40" height="40" viewBox="0 0 40 40" fill="none">
<path d="M20 3.75C16.7861 3.75 13.6443 4.70305 10.972 6.48862C8.29969 8.27419 6.21689 10.8121 4.98696 13.7814C3.75704 16.7507 3.43524 20.018 4.06225 23.1702C4.68926 26.3224 6.23692 29.2179 8.50952 31.4905C10.7821 33.7631 13.6776 35.3107 16.8298 35.9378C19.982 36.5648 23.2493 36.243 26.2186 35.013C29.1879 33.7831 31.7258 31.7003 33.5114 29.028C35.297 26.3557 36.25 23.2139 36.25 20C36.245 15.6918 34.5314 11.5614 31.485 8.51501C28.4386 5.46863 24.3082 3.75498 20 3.75ZM25.8838 24.1162C26.0001 24.2322 26.0923 24.37 26.1553 24.5217C26.2183 24.6734 26.2507 24.836 26.2508 25.0003C26.2509 25.1645 26.2186 25.3272 26.1558 25.4789C26.093 25.6307 26.0009 25.7686 25.8847 25.8847C25.7686 26.0009 25.6307 26.093 25.4789 26.1558C25.3272 26.2186 25.1645 26.2509 25.0003 26.2508C24.836 26.2507 24.6734 26.2183 24.5217 26.1553C24.37 26.0923 24.2322 26.0001 24.1162 25.8838L20 21.7676L15.8838 25.8838C15.6493 26.1178 15.3315 26.2491 15.0003 26.2489C14.669 26.2487 14.3514 26.1171 14.1172 25.8828C13.8829 25.6486 13.7513 25.331 13.7511 24.9997C13.7509 24.6685 13.8822 24.3507 14.1162 24.1162L18.2324 20L14.1162 15.8838C13.8822 15.6493 13.7509 15.3315 13.7511 15.0003C13.7513 14.669 13.8829 14.3514 14.1172 14.1172C14.3514 13.8829 14.669 13.7513 15.0003 13.7511C15.3315 13.7509 15.6493 13.8822 15.8838 14.1162L20 18.2324L24.1162 14.1162C24.3507 13.8822 24.6685 13.7509 24.9997 13.7511C25.331 13.7513 25.6486 13.8829 25.8829 14.1172C26.1171 14.3514 26.2488 14.669 26.2489 15.0003C26.2491 15.3315 26.1178 15.6493 25.8838 15.8838L21.7676 20L25.8838 24.1162Z" fill="#F2F2F2"/>
</svg>