 <svg
            width="20px"
            height="20px"
            viewBox="0 0 20 20"
            version="1.1"
            xmlns="http://www.w3.org/2000/svg"
            xmlns:xlink="http://www.w3.org/1999/xlink"
          >
            <g
              id="Page-1"
              stroke="none"
              stroke-width="1"
              fill="none"
              fill-rule="evenodd"
            >
              <g id="info" transform="translate(1.000000, 1.000000)">
                <g id="Path_509">
                  <path
                    d="M9,0 C13.9705627,3.04359188e-16 18,4.02943725 18,9 C18,13.9705627 13.9705627,18 9,18 C4.02943725,18 6.08718376e-16,13.9705627 0,9 C-6.08718376e-16,4.02943725 4.02943725,2.91147901e-15 9,0 Z"
                    id="Path"
                  />
                  <path
                    d="M9,1 C4.589,1 1,4.589 1,9 C1,13.411 4.589,17 9,17 C13.411,17 17,13.411 17,9 C17,4.589 13.411,1 9,1 Z M9,0 C13.9705627,3.04359188e-16 18,4.02943725 18,9 C18,13.9705627 13.9705627,18 9,18 C4.02943725,18 6.08718376e-16,13.9705627 0,9 C-6.08718376e-16,4.02943725 4.02943725,9.13077564e-16 9,0 Z"
                    id="Shape"
                    stroke="#33B5E5"
                    stroke-width="0.5"
                    fill="#33B5E5"
                    fill-rule="nonzero"
                  />
                </g>
                <g
                  id="icon_forward"
                  transform="translate(8.842000, 8.842000) rotate(180.000000) translate(-8.842000, -8.842000) translate(0.842000, 0.842000)"
                >
                  <polygon
                    id="Rectangle_1"
                    points="0 0 15.842 0 15.842 15.842 0 15.842"
                  />
                </g>
                <g
                  id="Group_363"
                  transform="translate(8.842000, 9.356000) rotate(180.000000) translate(-8.842000, -9.356000) translate(7.842000, 4.856000)"
                  fill="#33B5E5"
                  stroke="#33B5E5"
                  stroke-width="0.5"
                >
                  <rect
                    id="Rectangle_3"
                    x="0"
                    y="0"
                    width="1.342"
                    height="6.44"
                    rx="0.671"
                  />
                  <rect
                    id="Rectangle_4"
                    x="0"
                    y="7.513"
                    width="1.342"
                    height="1.342"
                    rx="0.671"
                  />
                </g>
              </g>
            </g>
          </svg>