<svg width="24" height="24" viewBox="0 0 24 24" fill="none" xmlns="http://www.w3.org/2000/svg">
<path d="M22.4997 10.9395L13.0603 1.50015C12.7788 1.21927 12.3973 1.06152 11.9997 1.06152C11.602 1.06152 11.2205 1.21927 10.939 1.50015L1.49967 10.9395C1.21878 11.221 1.06104 11.6025 1.06104 12.0002C1.06104 12.3978 1.21878 12.7793 1.49967 13.0608L10.939 22.5002C11.2205 22.781 11.602 22.9388 11.9997 22.9388C12.3973 22.9388 12.7788 22.781 13.0603 22.5002L22.4997 13.0608C22.7806 12.7793 22.9383 12.3978 22.9383 12.0002C22.9383 11.6025 22.7806 11.221 22.4997 10.9395Z" fill="white" fill-opacity="0.8"/>
<path fill-rule="evenodd" clip-rule="evenodd" d="M22.4997 10.9395L13.0603 1.50015C12.7788 1.21927 12.3973 1.06152 11.9997 1.06152C11.602 1.06152 11.2205 1.21927 10.939 1.50015L1.49967 10.9395C1.21878 11.221 1.06104 11.6025 1.06104 12.0002C1.06104 12.3978 1.21878 12.7793 1.49967 13.0608L10.939 22.5002C11.2205 22.781 11.602 22.9388 11.9997 22.9388C12.3973 22.9388 12.7788 22.781 13.0603 22.5002L22.4997 13.0608C22.7806 12.7793 22.9383 12.3978 22.9383 12.0002C22.9383 11.6025 22.7806 11.221 22.4997 10.9395ZM20.7319 12.0002L11.9997 3.26794L3.26745 12.0002L11.9997 20.7324L20.7319 12.0002Z" fill="#D68902"/>
<path fill-rule="evenodd" clip-rule="evenodd" d="M12 6.2002C12.5523 6.2002 13 6.64791 13 7.2002V12.4002C13 12.9525 12.5523 13.4002 12 13.4002C11.4477 13.4002 11 12.9525 11 12.4002V7.2002C11 6.64791 11.4477 6.2002 12 6.2002Z" fill="#D68902"/>
<path d="M11.999 16.4004C12.5513 16.4004 12.999 15.9527 12.999 15.4004C12.999 14.8481 12.5513 14.4004 11.999 14.4004C11.4467 14.4004 10.999 14.8481 10.999 15.4004C10.999 15.9527 11.4467 16.4004 11.999 16.4004Z" fill="#D68902"/>
</svg>
