<svg width="24" height="24" viewBox="0 0 24 24" fill="none" xmlns="http://www.w3.org/2000/svg">
<path d="M18.75 0H5.25C2.35051 0 0 2.35051 0 5.25V18.75C0 21.6495 2.35051 24 5.25 24H18.75C21.6495 24 24 21.6495 24 18.75V5.25C24 2.35051 21.6495 0 18.75 0Z" fill="#FAFAFA"/>
<path d="M11.2035 4.92601C11.6737 4.56601 12.3274 4.56601 12.7976 4.92601L18.3799 9.19313C19.0909 9.73651 18.7095 10.8705 17.8163 10.875H6.18375C5.29162 10.8705 4.90912 9.73651 5.62125 9.19313L11.2035 4.92601V4.92601ZM12 8.90626C12.2238 8.90626 12.4384 8.81736 12.5966 8.65913C12.7549 8.50089 12.8438 8.28628 12.8438 8.06251C12.8438 7.83873 12.7549 7.62412 12.5966 7.46588C12.4384 7.30765 12.2238 7.21876 12 7.21876C11.7762 7.21876 11.5616 7.30765 11.4034 7.46588C11.2451 7.62412 11.1562 7.83873 11.1562 8.06251C11.1562 8.28628 11.2451 8.50089 11.4034 8.65913C11.5616 8.81736 11.7762 8.90626 12 8.90626ZM6.9375 12V15.375H8.625V12H6.9375ZM9.75 12V15.375H11.4375V12H9.75ZM12.5625 12V15.375H14.25V12H12.5625ZM15.375 12V15.375H17.0625V12H15.375ZM5.25 17.9063C5.25 17.13 5.88 16.5 6.65625 16.5H17.3438C18.12 16.5 18.75 17.13 18.75 17.9063V18.1875C18.75 18.3367 18.6907 18.4798 18.5852 18.5853C18.4798 18.6907 18.3367 18.75 18.1875 18.75H5.8125C5.66332 18.75 5.52024 18.6907 5.41475 18.5853C5.30926 18.4798 5.25 18.3367 5.25 18.1875V17.9063Z" fill="#EE7746"/>
</svg>