<svg width="24" height="24" viewBox="0 0 24 24" fill="none" xmlns="http://www.w3.org/2000/svg">
<path d="M12 23.5C5.64872 23.5 0.5 18.3513 0.5 12C0.5 5.64872 5.64872 0.5 12 0.5C18.3513 0.5 23.5 5.64872 23.5 12C23.5 18.3513 18.3513 23.5 12 23.5Z" fill="#FE9411" stroke="#FE9411"/>
<g clip-path="url(#clip0_508_8927)">
<path d="M15.9821 9.85362C15.9312 9.80272 15.8662 9.77732 15.7871 9.77732H14.3365C14.2403 9.30806 14.0593 8.90072 13.7935 8.55575H15.77C15.8493 8.55575 15.9142 8.53032 15.9652 8.47954C16.0159 8.42867 16.0413 8.36357 16.0413 8.28441V7.41892C16.0413 7.3397 16.0159 7.27472 15.9652 7.22379C15.9141 7.17298 15.8493 7.14746 15.77 7.14746L8.71187 7.14746C8.63265 7.14746 8.56768 7.17298 8.51674 7.22376C8.46598 7.27469 8.44043 7.33967 8.44043 7.41889V8.54716C8.44043 8.62067 8.46732 8.68429 8.52102 8.73801C8.57475 8.79173 8.63834 8.81859 8.71187 8.81859H9.94197C11.1352 8.81859 11.8931 9.13804 12.2154 9.77717H8.71187C8.63265 9.77717 8.56759 9.80258 8.51674 9.85347C8.46598 9.90443 8.44043 9.96938 8.44043 10.0486L8.44043 10.914C8.44043 10.9931 8.46584 11.0582 8.51674 11.109C8.56768 11.1599 8.63278 11.1853 8.71187 11.1853H12.3344C12.2099 11.6492 11.92 12.0026 11.4647 12.2458C11.0093 12.489 10.4086 12.6106 9.66201 12.6106H8.71187C8.63835 12.6106 8.57475 12.6375 8.52102 12.6912C8.46727 12.745 8.44043 12.8086 8.44043 12.8821V13.9595C8.44043 14.0332 8.46584 14.0954 8.51674 14.1462C9.60255 15.2999 11.0108 16.9144 12.7414 18.9902C12.7924 19.0581 12.863 19.092 12.9536 19.092H14.6077C14.7266 19.092 14.8087 19.0412 14.8538 18.9392C14.9104 18.8374 14.8993 18.7413 14.8198 18.6508C13.1686 16.626 11.8706 15.1104 10.9261 14.1037C11.8875 13.9906 12.668 13.6795 13.2675 13.1706C13.867 12.6616 14.2317 11.9998 14.3619 11.1854H15.7871C15.8662 11.1854 15.9313 11.1601 15.9821 11.1091C16.033 11.0583 16.0585 10.9933 16.0585 10.9141V10.0488C16.0585 9.96953 16.033 9.90454 15.9821 9.85361V9.85362Z" fill="white"/>
</g>
<defs>
<clipPath id="clip0_508_8927">
<rect width="7.61809" height="11.9445" fill="white" transform="translate(8.44043 7.14746)"/>
</clipPath>
</defs>
</svg>
