<svg xmlns="http://www.w3.org/2000/svg" width="295.612" height="132.629" viewBox="0 0 295.612 132.629">
    <defs>
        <linearGradient id="prefix__linear-gradient" x2=".744" y1=".071" y2=".974" gradientUnits="objectBoundingBox">
            <stop offset="0" stop-color="#b3b3b3"/>
            <stop offset="1" stop-color="#fafafa"/>
        </linearGradient>
        <linearGradient id="prefix__linear-gradient-2" x2=".744" y1=".071" y2=".974" gradientUnits="objectBoundingBox">
            <stop offset="0" stop-color="#fca942"/>
            <stop offset="1" stop-color="#fafafa"/>
        </linearGradient>
        <filter id="prefix__Union_38" width="62.319" height="61.219" x="142.427" y="71.41" filterUnits="userSpaceOnUse">
            <feOffset/>
            <feGaussianBlur result="blur" stdDeviation="5.5"/>
            <feFlood flood-opacity=".161"/>
            <feComposite in2="blur" operator="in"/>
            <feComposite in="SourceGraphic"/>
        </filter>
        <style>
            .prefix__cls-1{fill:#484848;font-size:9px;font-family:Gilroy-Bold,Gilroy;font-weight:700}.prefix__cls-2{fill:#efefef}.prefix__cls-3{fill:#fff}.prefix__cls-7{fill:none;stroke-linecap:round}.prefix__cls-5{fill:#f2f2f2}.prefix__cls-6,.prefix__cls-8{fill:#b3b3b3}.prefix__cls-7{stroke:#dedede;stroke-width:3px;stroke-linejoin:round}.prefix__cls-8{stroke:transparent;stroke-miterlimit:10}.prefix__cls-9{fill:#1287e5}.prefix__cls-14{fill:#7e493a}.prefix__cls-18{fill:#d9d9d9}
        </style>
    </defs>
    <g id="prefix__Group_11175" data-name="Group 11175" transform="translate(-32 -486)">
        <g id="prefix__Group_10751" data-name="Group 10751" transform="translate(0 -56)">
            <text id="prefix__Your_New_Pledge_Card_" class="prefix__cls-1" data-name="Your New Pledge Card" transform="translate(62 549)">
                <tspan x="-20.484" y="0">Your New </tspan><tspan x="-26.132" y="11">Pledge Card</tspan>
            </text>
            <text id="prefix__Sign_Pledge_card_by_Offline" class="prefix__cls-1" data-name="Sign Pledge card by Offline" transform="translate(180 549)">
                <tspan x="-36.644" y="0">Sign Pledge card </tspan><tspan x="-19.854" y="11">by Offline</tspan>
            </text>
            <g id="prefix__Group_10752" data-name="Group 10752" transform="translate(8 76)">
                <text id="prefix__Signed_New_Pledge_Card" class="prefix__cls-1" data-name="Signed New Pledge Card" transform="translate(291 473)">
                    <tspan x="-24.705" y="0">Signed New</tspan><tspan x="-26.132" y="11">Pledge Card</tspan>
                </text>
            </g>
            <g id="prefix__Group_10834" data-name="Group 10834">
                <g id="prefix__Group_10750" data-name="Group 10750" transform="translate(0 31)">
                    <g id="prefix__Group_10743" data-name="Group 10743" transform="translate(-492 -5306)">
                        <rect id="prefix__Rectangle_5914" width="58" height="96" class="prefix__cls-2" data-name="Rectangle 5914" rx="4" transform="translate(524 5848)"/>
                        <path id="prefix__Rectangle_5916" d="M0 0H50V82H0z" class="prefix__cls-3" data-name="Rectangle 5916" transform="translate(528 5855)"/>
                        <path id="prefix__Path_16420" d="M219.338 562.5h12.853" data-name="Path 16420" transform="translate(328.162 5351)" style="stroke:#fff;stroke-width:2px;fill:none;stroke-linecap:round"/>
                        <g id="prefix__Group_10755" data-name="Group 10755" transform="translate(493 5370)">
                            <g id="prefix__Group_10737" data-name="Group 10737" transform="translate(41 490)">
                                <g id="prefix__Group_10117" data-name="Group 10117" transform="translate(0 2)">
                                    <g id="prefix__invoice">
                                        <path id="prefix__Union_30" d="M-1555.556-8556.268a.529.529 0 0 1-.245-.086l-2.34-1.518-2.336 1.518a.539.539 0 0 1-.377.084.534.534 0 0 1-.262-.087l-2.34-1.52-2.336 1.52a.555.555 0 0 1-.377.085.637.637 0 0 1-.216-.062.521.521 0 0 1-.145-.113l-2.223-1.443-2.353 1.53a.547.547 0 0 1-.554.026.531.531 0 0 1-.286-.468c-.017-3.851-.03-4.68-.04-4.281.008-2.769.018-7.231.03-14.165-.067-39.984-.058-33.461.01-49.208a.531.531 0 0 1 .286-.468.543.543 0 0 1 .554.026l2.353 1.527 2.223-1.443a.511.511 0 0 1 .145-.11.528.528 0 0 1 .216-.062.57.57 0 0 1 .377.082l2.336 1.52 2.34-1.52a.566.566 0 0 1 .262-.087.566.566 0 0 1 .377.085l2.336 1.52 2.338-1.52a.572.572 0 0 1 .247-.087.566.566 0 0 1 .3.032.377.377 0 0 1 .05.024.322.322 0 0 1 .089.059l1.485.988.786.512 2.329-1.512a.316.316 0 0 1 .073-.047.545.545 0 0 1 .461-.024l.052.024a.4.4 0 0 1 .089.059l.621.415 1.66 1.078 2.34-1.52a.566.566 0 0 1 .264-.087.557.557 0 0 1 .372.085l2.338 1.52 2.333-1.518a.575.575 0 0 1 .258-.089.519.519 0 0 1 .078 0 .587.587 0 0 1 .258.064.5.5 0 0 1 .167.135l2.191 1.424 2.364-1.535a.562.562 0 0 1 .3-.086.588.588 0 0 1 .258.064.531.531 0 0 1 .286.468v67.668a.531.531 0 0 1-.286.467.617.617 0 0 1-.258.065.556.556 0 0 1-.3-.089l-2.364-1.532-2.191 1.422a.554.554 0 0 1-.167.137.629.629 0 0 1-.255.064.426.426 0 0 1-.08-.007.538.538 0 0 1-.258-.086l-2.333-1.518-2.338 1.518a.53.53 0 0 1-.372.084.535.535 0 0 1-.264-.087l-2.34-1.52-1.66 1.081-.621.415a.844.844 0 0 1-.089.059c-.017.009-.035.015-.052.021a.555.555 0 0 1-.461-.021.646.646 0 0 1-.073-.048l-2.329-1.511-.786.509-1.485.991a.548.548 0 0 1-.089.059.369.369 0 0 1-.05.021.532.532 0 0 1-.2.041.51.51 0 0 1-.101-.011zm-16.444-2.852c0-.846.007-1.691.014-1.963-.008 3.009-.013 4.017-.016 4.017s.002-1.028.002-2.054z" class="prefix__cls-5" data-name="Union 30" transform="translate(1572 8625)"/>
                                    </g>
                                </g>
                            </g>
                            <path id="prefix__Union_29" d="M1 36a1 1 0 0 1 0-2h23a1 1 0 0 1 0 2zm0-5a1 1 0 0 1 0-2h23a1 1 0 0 1 0 2zm0-5a1 1 0 1 1 0-2h23a1 1 0 0 1 0 2zm0-5a1 1 0 1 1 0-2h23a1 1 0 0 1 0 2zm0-5a1 1 0 1 1 0-2h23a1 1 0 0 1 0 2zm4.605-9.333a1 1 0 1 1 0-2H19.4a1 1 0 1 1 0 2zM10.526 0A1.987 1.987 0 0 1 12.5-2a1.987 1.987 0 0 1 1.974 2 1.974 1.974 0 1 1-3.947 0z" class="prefix__cls-6" data-name="Union 29" transform="translate(48 502)"/>
                        </g>
                    </g>
                </g>
                <path id="prefix__Path_16408" d="M191.61 536.046l4.338 4.526-4.338 4.484" class="prefix__cls-7" data-name="Path 16408" transform="translate(-73 82)"/>
                <path id="prefix__Path_16410" d="M191.61 536.046l4.338 4.526-4.338 4.484" class="prefix__cls-7" data-name="Path 16410" transform="translate(48 82)"/>
                <g id="prefix__Group_11014" data-name="Group 11014" transform="translate(117.859 56)">
                    <g id="prefix__OBJECTS" transform="translate(15 444)">
                        <g id="prefix__Group_45" data-name="Group 45" transform="translate(138.141 73)">
                            <g id="prefix__Group_18" data-name="Group 18">
                                <rect id="prefix__Rectangle_7" width="56.612" height="80.411" class="prefix__cls-2" data-name="Rectangle 7" rx="3" transform="translate(0 6.277)"/>
                                <path id="prefix__Rectangle_8" d="M0 0H50.056V74.603H0z" class="prefix__cls-3" data-name="Rectangle 8" transform="translate(3.278 9.182)"/>
                                <path id="prefix__Union_35" d="M-151.844-7827.237a1.3 1.3 0 0 1-1.3-1.3v-6.378a1.3 1.3 0 0 1 1.3-1.294h6.24a2.794 2.794 0 0 1 2.794-2.791 2.792 2.792 0 0 1 2.792 2.793h6.24a1.3 1.3 0 0 1 1.3 1.294v6.378a1.3 1.3 0 0 1-1.3 1.3zm7.936-8.969a1.1 1.1 0 0 0 1.1 1.1 1.1 1.1 0 0 0 1.1-1.1 1.1 1.1 0 0 0-1.1-1.1 1.1 1.1 0 0 0-1.1 1.099z" class="prefix__cls-8" data-name="Union 35" transform="translate(171.117 7839)"/>
                            </g>
                        </g>
                        <g id="prefix__Group_11008" data-name="Group 11008" transform="translate(106 -405)">
                            <g id="prefix__Group_10737-2" data-name="Group 10737" transform="translate(41 490)">
                                <g id="prefix__Group_10117-2" data-name="Group 10117" transform="translate(0 2)">
                                    <g id="prefix__invoice-2" data-name="invoice">
                                        <path id="prefix__Union_30-2" d="M-1572-8563.476c0-2.33.014-4.66.028-3.963-.013 6.034-.022 8.051-.027 8.052s-.001-2.045-.001-4.089zm21.553.154a.646.646 0 0 1-.073-.048l-2.329-1.511-.786.509-1.485.991a.548.548 0 0 1-.089.059l-.05.023a.556.556 0 0 1-.3.03.53.53 0 0 1-.245-.087l-2.34-1.517-2.336 1.517a.546.546 0 0 1-.377.087.568.568 0 0 1-.262-.089l-2.34-1.52-2.336 1.52a.566.566 0 0 1-.377.085.579.579 0 0 1-.216-.063.469.469 0 0 1-.145-.112l-2.223-1.443-2.353 1.53a.545.545 0 0 1-.554.025.53.53 0 0 1-.286-.467c-.01-2.2-.019-3.291-.026-3.637 0-2.1.01-4.7.016-7.862-.067-39.926-.058-33.415.01-49.155a.531.531 0 0 1 .286-.468.543.543 0 0 1 .554.026l2.353 1.527 2.223-1.443a.511.511 0 0 1 .145-.11.528.528 0 0 1 .216-.062.57.57 0 0 1 .377.082l2.336 1.52 2.34-1.52a.566.566 0 0 1 .262-.087.566.566 0 0 1 .377.085l2.336 1.52 2.338-1.52a.572.572 0 0 1 .247-.087.566.566 0 0 1 .3.032.377.377 0 0 1 .05.024.322.322 0 0 1 .089.059l1.485.988.786.512 2.329-1.512a.316.316 0 0 1 .073-.047.545.545 0 0 1 .461-.024l.052.024a.4.4 0 0 1 .089.059l.621.415 1.66 1.078 2.34-1.52a.566.566 0 0 1 .264-.087.557.557 0 0 1 .372.085l2.338 1.52 2.333-1.518a.575.575 0 0 1 .258-.089.519.519 0 0 1 .078 0 .587.587 0 0 1 .258.064.5.5 0 0 1 .167.135l2.191 1.424 2.364-1.535a.562.562 0 0 1 .3-.086.588.588 0 0 1 .258.064.531.531 0 0 1 .286.468v60.667a.527.527 0 0 1-.286.468.616.616 0 0 1-.258.064.564.564 0 0 1-.3-.088l-2.364-1.533-2.191 1.423a.536.536 0 0 1-.167.136.63.63 0 0 1-.255.065.527.527 0 0 1-.08-.007.55.55 0 0 1-.258-.087l-2.333-1.517-2.338 1.517a.537.537 0 0 1-.372.087.568.568 0 0 1-.264-.089l-2.34-1.52-1.66 1.08-.621.416a.844.844 0 0 1-.089.059l-.052.023a.564.564 0 0 1-.2.038.565.565 0 0 1-.26-.062z" class="prefix__cls-5" data-name="Union 30" transform="translate(1572 8625)"/>
                                    </g>
                                </g>
                            </g>
                            <path id="prefix__Union_29-2" d="M1 36a1 1 0 0 1 0-2h23a1 1 0 0 1 0 2zm0-5a1 1 0 0 1 0-2h23a1 1 0 0 1 0 2zm0-5a1 1 0 1 1 0-2h23a1 1 0 0 1 0 2zm0-5a1 1 0 1 1 0-2h23a1 1 0 0 1 0 2zm0-5a1 1 0 1 1 0-2h23a1 1 0 0 1 0 2zm4.605-9.333a1 1 0 1 1 0-2H19.4a1 1 0 1 1 0 2zM10.526 0A1.987 1.987 0 0 1 12.5-2a1.987 1.987 0 0 1 1.974 2 1.974 1.974 0 1 1-3.947 0z" class="prefix__cls-6" data-name="Union 29" transform="translate(48 502)"/>
                        </g>
                    </g>
                    <path id="prefix__Union_36" d="M122.177-7488.1c-.058-.09-.021-.177.1-.25a8.356 8.356 0 0 0 1.53-1.217c.235-.228.465-.461.7-.69.049-.051.092-.1.151-.164a5.624 5.624 0 0 0-1.7-.34 14.115 14.115 0 0 0-3.362.344c-.457.086-.909.194-1.364.29-.053.013-.107.017-.171.026v-.293c.521-.113 1.044-.22 1.562-.339q2.119-.488 4.233-.987c.773-.183 1.548-.373 2.32-.564a.274.274 0 0 0 .156-.1c.356-.474.724-.94 1.054-1.432.35-.521.664-1.069.992-1.6.023-.038.034-.09.064-.117.053-.038.128-.1.175-.084.088.026.109.118.071.208-.1.237-.209.471-.3.709-.267.673-.529 1.351-.805 2.064.241-.06.438-.113.636-.164 1-.254 1.989-.535 2.991-.756 1.191-.264 2.4-.48 3.6-.709 1.407-.269 2.82-.519 4.226-.805 1.144-.231 2.28-.5 3.415-.771 1.033-.247 2.06-.521 3.091-.783.087-.021.182-.058.222.062s-.008.19-.156.228c-1.3.325-2.6.664-3.9.969-1.332.311-2.672.6-4.013.875-.833.171-1.674.3-2.512.459-.912.166-1.834.309-2.741.512-1.311.293-2.613.632-3.919.954-.3.074-.6.149-.9.233a.248.248 0 0 0-.149.132c-.231.824-.453 1.656-.675 2.481-.021.077-.023.158-.041.235-.041.175-.151.216-.293.109-.192-.139-.369-.3-.57-.427-.271-.167-.564-.307-.841-.465-.09-.047-.128.007-.177.055-.361.361-.706.737-1.087 1.074-.4.355-.845.668-1.27 1a.647.647 0 0 1-.077.045.332.332 0 0 1-.142.057.123.123 0 0 1-.124-.064zm4.269-3.93c-.107.041-.171.182-.254.28l-1.008 1.2 1.3.783.655-2.448a5.133 5.133 0 0 0-.693.186zm-3.9.931a6.8 6.8 0 0 1 2.256.41.171.171 0 0 0 .145-.051c.192-.209.378-.419.561-.634.145-.169.284-.344.453-.543zm4.216-1.377c-.008.012-.011.025-.024.051a1.787 1.787 0 0 1 .246-.061.4.4 0 0 0 .384-.344c.077-.282.192-.551.29-.828h-.013c-.296.394-.589.787-.883 1.182zm1.172 1.7a1.952 1.952 0 0 1 .7-1.629.816.816 0 0 1 1.237.105 3.055 3.055 0 0 1 .479-.249c.329-.1.523.088.472.425a1.971 1.971 0 0 1-.754 1.187c-.085.075-.173.145-.262.216a.229.229 0 0 0 .331.138 3.7 3.7 0 0 0 .963-.546 1.236 1.236 0 0 0 .5-.7 2.473 2.473 0 0 1 .331-.591.2.2 0 0 1 .267-.1.224.224 0 0 1 .124.261 1.289 1.289 0 0 1-.145.4 3.156 3.156 0 0 1-.374.478.183.183 0 0 0-.03.241.239.239 0 0 0 .192.059 2.335 2.335 0 0 0 1.178-.655.178.178 0 0 0 .03-.107 1.579 1.579 0 0 1 .485-.959c.149-.149.3-.194.41-.128s.145.235.03.433c-.171.3-.378.574-.587.89.032.075.117.12.248.092a2.687 2.687 0 0 0 .849-.414l.011-.011a.9.9 0 0 0 .516-.764.816.816 0 0 1 .282-.525c.087-.067.188-.128.282-.058a.424.424 0 0 1 .167.237.868.868 0 0 1-.363.785 1.6 1.6 0 0 0-.141.132c-.026.024-.055.073-.043.092.021.038.066.088.1.088a.785.785 0 0 0 .273-.045 4.008 4.008 0 0 0 1.242-.8c.041-.038.047-.115.068-.175.081-.226.162-.448.423-.532.107-.036.216-.032.263.064a.3.3 0 0 1 0 .256 3.366 3.366 0 0 1-.363.427.438.438 0 0 0-.006.547.181.181 0 0 0 .166.021c.357-.239.709-.483 1.059-.734.032-.022.041-.094.047-.146a.794.794 0 0 1 .352-.666.237.237 0 0 1 .3.013.231.231 0 0 1 .075.3 1.971 1.971 0 0 1-.31.446c-.141.134-.092.235-.019.35.446-.375.879-.741 1.317-1.1a.557.557 0 0 1 .516-.147c.158.032.331 0 .468.121a.908.908 0 0 1-.045 1.411 1.345 1.345 0 0 1-.815.327.533.533 0 0 1-.563-.647c.026-.143.081-.281.134-.459-.294.266-.563.508-.824.756-.021.021 0 .09.013.132a1.381 1.381 0 0 1-.182 1.327.792.792 0 0 1-.619.361.574.574 0 0 1-.564-.783 1.691 1.691 0 0 1 .478-.636c.1-.1.209-.194.316-.29.175-.156.175-.156.041-.367-.19.139-.376.284-.572.418a4.32 4.32 0 0 1-.467.286.417.417 0 0 1-.611-.248 2 2 0 0 1-.073-.247l-.339.245a3.156 3.156 0 0 1-.9.476.488.488 0 0 1-.643-.187c-.254.154-.5.32-.762.459a2.044 2.044 0 0 1-.523.193.426.426 0 0 1-.495-.224 3.805 3.805 0 0 1-.435.307 4.222 4.222 0 0 1-.77.337.42.42 0 0 1-.578-.228c-.352.217-.7.446-1.061.64a.59.59 0 0 1-.881-.133c-.228.1-.452.205-.675.3a.537.537 0 0 1-.145.042 1.012 1.012 0 0 1-.2.022.575.575 0 0 1-.595-.611zm.753.3c.246-.107.493-.22.736-.338a.133.133 0 0 0 .049-.107 1.935 1.935 0 0 1 .205-1.02.191.191 0 0 0-.017-.156.53.53 0 0 0-.822-.1 1.611 1.611 0 0 0-.611 1.278 1.543 1.543 0 0 0 0 .162c.021.218.109.3.327.293a.349.349 0 0 0 .133-.008zm9.733-1.182a2.115 2.115 0 0 0-.28.343.281.281 0 0 0 .006.371.335.335 0 0 0 .41.054.991.991 0 0 0 .371-1.24c-.178.167-.349.317-.507.477zm-8.662.583c.44-.309.826-.791.777-1.195a.278.278 0 0 0-.057-.005c-.358.005-.754.639-.72 1.205zm.119-1.224s.007.008 0 .005zm10.789-1.143a1.738 1.738 0 0 0-.489.711.417.417 0 0 0-.021.16c0 .177.1.28.265.257a1.559 1.559 0 0 0 .463-.139.661.661 0 0 0 .438-.63v-.058a.46.46 0 0 0-.252-.41.287.287 0 0 0-.119-.027.453.453 0 0 0-.285.141zm-5.281.832l.055.028.19-.378-.062-.034z" class="prefix__cls-9" data-name="Union 36" transform="translate(47.943 8075.644)"/>
                </g>
                <g id="prefix__Group_10815" data-name="Group 10815" transform="translate(7 77)" style="opacity:.923">
                    <path id="prefix__Polygon_2" d="M6.106 1.354a2 2 0 0 1 2.787 0l.024.024a2 2 0 0 0 1.526.561h.038A2 2 0 0 1 12.6 3.716l.011.1a2 2 0 0 0 .795 1.384l.082.061a2 2 0 0 1 .476 2.7l-.068.1a2 2 0 0 0-.273 1.567l.028.118a2 2 0 0 1-1.376 2.385l-.066.02a2 2 0 0 0-1.23 1.043l-.028.057a2 2 0 0 1-2.614.952l-.022-.01a2 2 0 0 0-1.63 0l-.022.01a2 2 0 0 1-2.614-.952l-.028-.051a2 2 0 0 0-1.23-1.043l-.066-.02a2 2 0 0 1-1.376-2.383l.028-.118A2 2 0 0 0 1.1 8.069l-.068-.1a2 2 0 0 1 .476-2.7l.086-.069a2 2 0 0 0 .793-1.389l.011-.1a2 2 0 0 1 2.121-1.78h.038a2 2 0 0 0 1.526-.561z" data-name="Polygon 2" transform="translate(300 561)" style="fill:#55bb7d"/>
                    <path id="prefix__Path_17983" d="M0 .181l.941 1.935L4.891 0" data-name="Path 17983" transform="rotate(-18.01 1948.355 -679.076)" style="stroke-linejoin:round;stroke:#fff;stroke-width:2px;fill:none;stroke-linecap:round"/>
                </g>
            </g>
        </g>
        <g id="prefix__Group_11174" data-name="Group 11174" transform="translate(-13.141) translate(12)">
            <g id="prefix__Group_11013" data-name="Group 11013">
                <g id="prefix__OBJECTS-2" data-name="OBJECTS" transform="translate(15 444)">
                    <g id="prefix__Group_45-2" data-name="Group 45" transform="translate(138.141 73)">
                        <g id="prefix__Group_18-2" data-name="Group 18">
                            <rect id="prefix__Rectangle_7-2" width="56.612" height="80.411" class="prefix__cls-2" data-name="Rectangle 7" rx="3" transform="translate(0 6.277)"/>
                            <path id="prefix__Rectangle_8-2" d="M0 0H50.056V74.603H0z" class="prefix__cls-3" data-name="Rectangle 8" transform="translate(3.278 9.182)"/>
                            <path id="prefix__Union_35-2" d="M-151.844-7827.237a1.3 1.3 0 0 1-1.3-1.3v-6.378a1.3 1.3 0 0 1 1.3-1.294h6.24a2.794 2.794 0 0 1 2.794-2.791 2.792 2.792 0 0 1 2.792 2.793h6.24a1.3 1.3 0 0 1 1.3 1.294v6.378a1.3 1.3 0 0 1-1.3 1.3zm7.936-8.969a1.1 1.1 0 0 0 1.1 1.1 1.1 1.1 0 0 0 1.1-1.1 1.1 1.1 0 0 0-1.1-1.1 1.1 1.1 0 0 0-1.1 1.099z" class="prefix__cls-8" data-name="Union 35" transform="translate(171.117 7839)"/>
                        </g>
                    </g>
                    <g id="prefix__Group_11008-2" data-name="Group 11008" transform="translate(106 -405)">
                        <g id="prefix__Group_10737-3" data-name="Group 10737" transform="translate(41 490)">
                            <g id="prefix__Group_10117-3" data-name="Group 10117" transform="translate(0 2)">
                                <g id="prefix__invoice-3" data-name="invoice">
                                    <path id="prefix__Union_30-3" d="M-1572-8563.476c0-2.33.014-4.66.028-3.963-.013 6.034-.022 8.051-.027 8.052s-.001-2.045-.001-4.089zm21.553.154a.646.646 0 0 1-.073-.048l-2.329-1.511-.786.509-1.485.991a.548.548 0 0 1-.089.059l-.05.023a.556.556 0 0 1-.3.03.53.53 0 0 1-.245-.087l-2.34-1.517-2.336 1.517a.546.546 0 0 1-.377.087.568.568 0 0 1-.262-.089l-2.34-1.52-2.336 1.52a.566.566 0 0 1-.377.085.579.579 0 0 1-.216-.063.469.469 0 0 1-.145-.112l-2.223-1.443-2.353 1.53a.545.545 0 0 1-.554.025.53.53 0 0 1-.286-.467c-.01-2.2-.019-3.291-.026-3.637 0-2.1.01-4.7.016-7.862-.067-39.926-.058-33.415.01-49.155a.531.531 0 0 1 .286-.468.543.543 0 0 1 .554.026l2.353 1.527 2.223-1.443a.511.511 0 0 1 .145-.11.528.528 0 0 1 .216-.062.57.57 0 0 1 .377.082l2.336 1.52 2.34-1.52a.566.566 0 0 1 .262-.087.566.566 0 0 1 .377.085l2.336 1.52 2.338-1.52a.572.572 0 0 1 .247-.087.566.566 0 0 1 .3.032.377.377 0 0 1 .05.024.322.322 0 0 1 .089.059l1.485.988.786.512 2.329-1.512a.316.316 0 0 1 .073-.047.545.545 0 0 1 .461-.024l.052.024a.4.4 0 0 1 .089.059l.621.415 1.66 1.078 2.34-1.52a.566.566 0 0 1 .264-.087.557.557 0 0 1 .372.085l2.338 1.52 2.333-1.518a.575.575 0 0 1 .258-.089.519.519 0 0 1 .078 0 .587.587 0 0 1 .258.064.5.5 0 0 1 .167.135l2.191 1.424 2.364-1.535a.562.562 0 0 1 .3-.086.588.588 0 0 1 .258.064.531.531 0 0 1 .286.468v60.667a.527.527 0 0 1-.286.468.616.616 0 0 1-.258.064.564.564 0 0 1-.3-.088l-2.364-1.533-2.191 1.423a.536.536 0 0 1-.167.136.63.63 0 0 1-.255.065.527.527 0 0 1-.08-.007.55.55 0 0 1-.258-.087l-2.333-1.517-2.338 1.517a.537.537 0 0 1-.372.087.568.568 0 0 1-.264-.089l-2.34-1.52-1.66 1.08-.621.416a.844.844 0 0 1-.089.059l-.052.023a.564.564 0 0 1-.2.038.565.565 0 0 1-.26-.062z" class="prefix__cls-5" data-name="Union 30" transform="translate(1572 8625)"/>
                                </g>
                            </g>
                        </g>
                        <path id="prefix__Union_29-3" d="M1 36a1 1 0 0 1 0-2h23a1 1 0 0 1 0 2zm0-5a1 1 0 0 1 0-2h23a1 1 0 0 1 0 2zm0-5a1 1 0 1 1 0-2h23a1 1 0 0 1 0 2zm0-5a1 1 0 1 1 0-2h23a1 1 0 0 1 0 2zm0-5a1 1 0 1 1 0-2h23a1 1 0 0 1 0 2zm4.605-9.333a1 1 0 1 1 0-2H19.4a1 1 0 1 1 0 2zM10.526 0A1.987 1.987 0 0 1 12.5-2a1.987 1.987 0 0 1 1.974 2 1.974 1.974 0 1 1-3.947 0z" class="prefix__cls-6" data-name="Union 29" transform="translate(48 502)"/>
                    </g>
                </g>
                <path id="prefix__Union_36-2" d="M122.177-7488.1c-.058-.09-.021-.177.1-.25a8.356 8.356 0 0 0 1.53-1.217c.235-.228.465-.461.7-.69.049-.051.092-.1.151-.164a5.624 5.624 0 0 0-1.7-.34 14.115 14.115 0 0 0-3.362.344c-.457.086-.909.194-1.364.29-.053.013-.107.017-.171.026v-.293c.521-.113 1.044-.22 1.562-.339q2.119-.488 4.233-.987c.773-.183 1.548-.373 2.32-.564a.274.274 0 0 0 .156-.1c.356-.474.724-.94 1.054-1.432.35-.521.664-1.069.992-1.6.023-.038.034-.09.064-.117.053-.038.128-.1.175-.084.088.026.109.118.071.208-.1.237-.209.471-.3.709-.267.673-.529 1.351-.805 2.064.241-.06.438-.113.636-.164 1-.254 1.989-.535 2.991-.756 1.191-.264 2.4-.48 3.6-.709 1.407-.269 2.82-.519 4.226-.805 1.144-.231 2.28-.5 3.415-.771 1.033-.247 2.06-.521 3.091-.783.087-.021.182-.058.222.062s-.008.19-.156.228c-1.3.325-2.6.664-3.9.969-1.332.311-2.672.6-4.013.875-.833.171-1.674.3-2.512.459-.912.166-1.834.309-2.741.512-1.311.293-2.613.632-3.919.954-.3.074-.6.149-.9.233a.248.248 0 0 0-.149.132c-.231.824-.453 1.656-.675 2.481-.021.077-.023.158-.041.235-.041.175-.151.216-.293.109-.192-.139-.369-.3-.57-.427-.271-.167-.564-.307-.841-.465-.09-.047-.128.007-.177.055-.361.361-.706.737-1.087 1.074-.4.355-.845.668-1.27 1a.647.647 0 0 1-.077.045.332.332 0 0 1-.142.057.123.123 0 0 1-.124-.064zm4.269-3.93c-.107.041-.171.182-.254.28l-1.008 1.2 1.3.783.655-2.448a5.133 5.133 0 0 0-.693.186zm-3.9.931a6.8 6.8 0 0 1 2.256.41.171.171 0 0 0 .145-.051c.192-.209.378-.419.561-.634.145-.169.284-.344.453-.543zm4.216-1.377c-.008.012-.011.025-.024.051a1.787 1.787 0 0 1 .246-.061.4.4 0 0 0 .384-.344c.077-.282.192-.551.29-.828h-.013c-.296.394-.589.787-.883 1.182zm1.172 1.7a1.952 1.952 0 0 1 .7-1.629.816.816 0 0 1 1.237.105 3.055 3.055 0 0 1 .479-.249c.329-.1.523.088.472.425a1.971 1.971 0 0 1-.754 1.187c-.085.075-.173.145-.262.216a.229.229 0 0 0 .331.138 3.7 3.7 0 0 0 .963-.546 1.236 1.236 0 0 0 .5-.7 2.473 2.473 0 0 1 .331-.591.2.2 0 0 1 .267-.1.224.224 0 0 1 .124.261 1.289 1.289 0 0 1-.145.4 3.156 3.156 0 0 1-.374.478.183.183 0 0 0-.03.241.239.239 0 0 0 .192.059 2.335 2.335 0 0 0 1.178-.655.178.178 0 0 0 .03-.107 1.579 1.579 0 0 1 .485-.959c.149-.149.3-.194.41-.128s.145.235.03.433c-.171.3-.378.574-.587.89.032.075.117.12.248.092a2.687 2.687 0 0 0 .849-.414l.011-.011a.9.9 0 0 0 .516-.764.816.816 0 0 1 .282-.525c.087-.067.188-.128.282-.058a.424.424 0 0 1 .167.237.868.868 0 0 1-.363.785 1.6 1.6 0 0 0-.141.132c-.026.024-.055.073-.043.092.021.038.066.088.1.088a.785.785 0 0 0 .273-.045 4.008 4.008 0 0 0 1.242-.8c.041-.038.047-.115.068-.175.081-.226.162-.448.423-.532.107-.036.216-.032.263.064a.3.3 0 0 1 0 .256 3.366 3.366 0 0 1-.363.427.438.438 0 0 0-.006.547.181.181 0 0 0 .166.021c.357-.239.709-.483 1.059-.734.032-.022.041-.094.047-.146a.794.794 0 0 1 .352-.666.237.237 0 0 1 .3.013.231.231 0 0 1 .075.3 1.971 1.971 0 0 1-.31.446c-.141.134-.092.235-.019.35.446-.375.879-.741 1.317-1.1a.557.557 0 0 1 .516-.147c.158.032.331 0 .468.121a.908.908 0 0 1-.045 1.411 1.345 1.345 0 0 1-.815.327.533.533 0 0 1-.563-.647c.026-.143.081-.281.134-.459-.294.266-.563.508-.824.756-.021.021 0 .09.013.132a1.381 1.381 0 0 1-.182 1.327.792.792 0 0 1-.619.361.574.574 0 0 1-.564-.783 1.691 1.691 0 0 1 .478-.636c.1-.1.209-.194.316-.29.175-.156.175-.156.041-.367-.19.139-.376.284-.572.418a4.32 4.32 0 0 1-.467.286.417.417 0 0 1-.611-.248 2 2 0 0 1-.073-.247l-.339.245a3.156 3.156 0 0 1-.9.476.488.488 0 0 1-.643-.187c-.254.154-.5.32-.762.459a2.044 2.044 0 0 1-.523.193.426.426 0 0 1-.495-.224 3.805 3.805 0 0 1-.435.307 4.222 4.222 0 0 1-.77.337.42.42 0 0 1-.578-.228c-.352.217-.7.446-1.061.64a.59.59 0 0 1-.881-.133c-.228.1-.452.205-.675.3a.537.537 0 0 1-.145.042 1.012 1.012 0 0 1-.2.022.575.575 0 0 1-.595-.611zm.753.3c.246-.107.493-.22.736-.338a.133.133 0 0 0 .049-.107 1.935 1.935 0 0 1 .205-1.02.191.191 0 0 0-.017-.156.53.53 0 0 0-.822-.1 1.611 1.611 0 0 0-.611 1.278 1.543 1.543 0 0 0 0 .162c.021.218.109.3.327.293a.349.349 0 0 0 .133-.008zm9.733-1.182a2.115 2.115 0 0 0-.28.343.281.281 0 0 0 .006.371.335.335 0 0 0 .41.054.991.991 0 0 0 .371-1.24c-.178.167-.349.317-.507.477zm-8.662.583c.44-.309.826-.791.777-1.195a.278.278 0 0 0-.057-.005c-.358.005-.754.639-.72 1.205zm.119-1.224s.007.008 0 .005zm10.789-1.143a1.738 1.738 0 0 0-.489.711.417.417 0 0 0-.021.16c0 .177.1.28.265.257a1.559 1.559 0 0 0 .463-.139.661.661 0 0 0 .438-.63v-.058a.46.46 0 0 0-.252-.41.287.287 0 0 0-.119-.027.453.453 0 0 0-.285.141zm-5.281.832l.055.028.19-.378-.062-.034z" class="prefix__cls-9" data-name="Union 36" transform="translate(47.943 8075.644)"/>
            </g>
            <g id="prefix__Group_11011" data-name="Group 11011">
                <g id="prefix__Group_11009" data-name="Group 11009" transform="translate(183.713 576)">
                    <g id="prefix__Group_28" data-name="Group 28" transform="translate(5.687 -2.089)">
                        <g transform="translate(-156.26 -87.91)">
                            <path id="prefix__Union_38-2" d="M.206 6.58a19.155 19.155 0 0 0 2.718-2.76c.461-.829 2.719-5.575 3.776-5.806s4.377 2.4 5.76 3.179 5.3-.134 6.313 1.108a50.028 50.028 0 0 1 4.47 7.785c1.659 3.41 2.672 7.1 3.64 8.8s-.986-1.06 1.871 3c2.64 3.747-4.6 2.617-9.11 4.336a2.557 2.557 0 0 1-.455-.512c-2.258-3.272-3.778-3.225-5.668-3.825s-6.433-2.358-8.861-5.1-3.324-1.078-4.528-3.657c-.608-1.3 1.109-1.517.556-3.373s2.646-1.933 3.557-1a2.453 2.453 0 0 1 .668 2.745 3.62 3.62 0 0 1 2.385.7 3.6 3.6 0 0 1 1.754.2s2.35-1.953 2.3-4.073S10.71 5.207 7.3 3.59c0 0-1.227 1.613-2.155 1.7A16.8 16.8 0 0 1 3.29 7.063c-.619.42-2.531 1.08-3.084-.483z" data-name="Union 38" transform="translate(158.93 89.91)"/>
                        </g>
                        <path id="prefix__Path_25" d="M308.729 299.471v-1.181h-3.614c-.4.658-.635 1.115-.75 1.323a19.155 19.155 0 0 1-2.719 2.76c.553 1.562 2.465.9 3.085.483a16.786 16.786 0 0 0 1.853-1.769c.058-.005 2.829-1.918 2.145-1.616z" class="prefix__cls-14" data-name="Path 25" transform="translate(-295.287 -293.776)"/>
                        <path id="prefix__Path_26" d="M323.146 299.986v-1.7h-3.287c-.613.936-.934 1.578-1.078 1.838a19.156 19.156 0 0 1-2.718 2.76c.553 1.562 2.465.9 3.085.483A16.789 16.789 0 0 0 321 301.6c.059 0 2.829-1.916 2.146-1.614z" class="prefix__cls-14" data-name="Path 26" transform="translate(-306.933 -293.776)"/>
                        <path id="prefix__Path_27" d="M338.472 301.032v-2.742h-2.143a22.967 22.967 0 0 0-1.513 2.884 17.957 17.957 0 0 1-2.277 2.76c.463 1.562 2.065.9 2.584.483a15.585 15.585 0 0 0 1.552-1.769c.049-.005 2.37-1.918 1.797-1.616z" class="prefix__cls-14" data-name="Path 27" transform="translate(-320.242 -293.776)"/>
                        <path id="prefix__Union_34" d="M.206 8.58a19.155 19.155 0 0 0 2.718-2.76C3.385 4.991 5.643.245 6.7.014s4.377 2.4 5.76 3.179 5.3-.134 6.313 1.108a50.028 50.028 0 0 1 4.47 7.785c1.659 3.41 2.672 7.1 3.64 8.8s2.212 3.594 5.068 7.649 9.861 14.745 9.861 14.745H25.548s-4.1-12.3-6.359-15.574-3.778-3.225-5.668-3.825-6.433-2.358-8.861-5.1-3.324-1.074-4.528-3.653c-.608-1.3 1.109-1.517.556-3.373s2.646-1.933 3.557-1a2.453 2.453 0 0 1 .668 2.745 3.62 3.62 0 0 1 2.385.7 3.6 3.6 0 0 1 1.754.2s2.35-1.953 2.3-4.073S10.71 7.207 7.3 5.59c0 0-1.227 1.613-2.155 1.7A16.8 16.8 0 0 1 3.29 9.063c-.619.42-2.531 1.08-3.084-.483z" data-name="Union 34" transform="translate(2.667)"/>
                        <g id="prefix__Group_23" data-name="Group 23" transform="translate(3.293 9.021)">
                            <g id="prefix__Group_22" data-name="Group 22">
                                <g id="prefix__Group_19" data-name="Group 19" transform="translate(0 1.147)">
                                    <path id="prefix__Path_29" d="M289.312 328.292c-.877-.893-3.869-.855-3.6.8l.134.049a.192.192 0 0 0 .217-.1l4.005 1.572a2.335 2.335 0 0 0-.756-2.321z" class="prefix__cls-6" data-name="Path 29" transform="translate(-285.693 -327.711)"/>
                                </g>
                                <g id="prefix__Group_21" data-name="Group 21" transform="translate(.195)">
                                    <path id="prefix__Path_31" d="M288.01 322.239l-.355-.122a.193.193 0 0 0-.1-.218l-.406-.149a.214.214 0 0 0-.249.161l-.073.2-.12-.022a1.9 1.9 0 0 0 1.303.15z" data-name="Path 31" transform="translate(-286.709 -321.74)" style="fill:#d38d67"/>
                                </g>
                            </g>
                        </g>
                        <g id="prefix__Group_27" data-name="Group 27" transform="translate(0 8.136)">
                            <path id="prefix__Path_33" d="M396.511 351.076l1.951.564a1 1 0 0 0 .511-1.9l-1.971-.49z" data-name="Path 33" transform="translate(-371.92 -343.077)" style="fill:#7f7f7f"/>
                            <path id="prefix__Path_34" d="M396.511 351.076l1.951.564a1 1 0 0 0 .511-1.9l-1.971-.49z" class="prefix__cls-18" data-name="Path 34" transform="translate(-371.92 -343.077)"/>
                            <path id="prefix__Path_37" d="M268.736 318.917l.571.251.148-.549-.62-.07c-.122-.03-.23-.019-.269.125s.049.208.17.243z" class="prefix__cls-9" data-name="Path 37" transform="translate(-268.557 -318.266)"/>
                            <path id="prefix__Union_37" d="M23.495 8.318L2.619 2.279 3.2.125l21.09 5.247.029.008.018.006h.01l.021.007h.007a.1.1 0 0 1 .023.008 1.448 1.448 0 0 1 .756 1.778A1.494 1.494 0 0 1 23.8 8.362a1.066 1.066 0 0 1-.305-.044zM.549 1.176C.177 1.067-.09.87.028.429s.45-.481.826-.387l1.9.215-.254.949-.2.737z" data-name="Union 37" transform="translate(.62 .152)" style="stroke:transparent;stroke-miterlimit:10;fill:#484848"/>
                            <path id="prefix__Path_42" d="M357.528 342.128l7.172 2.072a.53.53 0 0 0 .272-1.011l-7.241-1.8z" class="prefix__cls-18" data-name="Path 42" transform="translate(-340.429 -336.727)"/>
                            <path id="prefix__Path_43" d="M341.42 331.669l.58.156a.246.246 0 0 1 .147.313l-.655 2.436a.246.246 0 0 1-.284.2l-.58-.156a.246.246 0 0 1-.147-.313l.655-2.436a.246.246 0 0 1 .284-.2z" class="prefix__cls-18" data-name="Path 43" transform="translate(-326.65 -328.87)"/>
                            <path id="prefix__Path_44" d="M283.269 317.138l.47.126a.221.221 0 0 1 .132.281l-.548 2.036a.221.221 0 0 1-.255.177l-.469-.126a.221.221 0 0 1-.132-.281l.547-2.036a.221.221 0 0 1 .255-.177z" class="prefix__cls-18" data-name="Path 44" transform="translate(-279.786 -317.133)"/>
                        </g>
                        <path id="prefix__Path_47" d="M340.47 287.034a19.585 19.585 0 0 0 4.852 2.685c3.364 1.405-.254-1.461-.254-1.461a8.4 8.4 0 0 1-3.289-.382c-.34-.192-.797-.496-1.309-.842z" class="prefix__cls-14" data-name="Path 47" transform="translate(-326.649 -284.683)"/>
                        <path id="prefix__Path_18276" d="M287.76 331.051c-.246-.014-.411-.007-.411-.007a2.453 2.453 0 0 0-.668-2.753c-.911-.928-4.11-.851-3.557 1s-1.164 2.071-.556 3.373c1.2 2.579 2.1.922 4.529 3.659.206.232.429.456.663.674z" data-name="Path 18276" transform="translate(-279.769 -317.541)" style="fill:#fcbf73;stroke:transparent;stroke-miterlimit:10"/>
                        <path id="prefix__Path_18277" d="M288.624 282.526c-1.009 1.535-2.1 3.788-2.4 4.335a19.158 19.158 0 0 1-2.719 2.76c.553 1.562 2.465.9 3.084.483a16.8 16.8 0 0 0 1.853-1.769.992.992 0 0 0 .181-.038z" data-name="Path 18277" transform="translate(-280.633 -281.041)" style="fill:#fbb052;stroke:transparent;stroke-miterlimit:10"/>
                    </g>
                </g>
            </g>
        </g>
    </g>
</svg>
