<svg width="78" height="78" viewBox="0 0 78 78" fill="none" xmlns="http://www.w3.org/2000/svg">
    <rect width="78" height="78" rx="8" fill="white"/>
    <g clip-path="url(#clip0)">
        <path d="M39.0389 12C33.6926 12.0049 28.4678 13.5925 24.025 16.562C19.5821 19.5316 16.1206 23.7498 14.078 28.6834C12.0355 33.6171 11.5036 39.0447 12.5496 44.2801C13.5956 49.5156 16.1726 54.3239 19.9547 58.0971C23.7368 61.8704 28.5543 64.4392 33.7982 65.4789C39.0421 66.5187 44.477 65.9826 49.4159 63.9384C54.3547 61.8943 58.5758 58.4339 61.5455 53.9946C64.5152 49.5554 66.1003 44.3366 66.1003 38.998C66.1003 35.4505 65.4002 31.9377 64.0399 28.6606C62.6796 25.3834 60.6859 22.4061 58.1727 19.8988C55.6595 17.3915 52.6761 15.4033 49.393 14.048C46.1099 12.6927 42.5915 11.9968 39.0389 12ZM47.1701 29.1959C47.5089 30.4468 47.5947 31.7526 47.4224 33.037C47.2501 34.3213 46.8232 35.5585 46.1666 36.6763L45.7537 37.2165L47.5459 40.2887V45.4722L42.1568 40.1114H38.2006L47.5459 51.5134V57.2041L25.3782 34.9361H39.138C39.9621 34.9064 40.7425 34.5587 41.3149 33.9661C41.8874 33.3735 42.2073 32.5822 42.2073 31.7588C42.2073 30.9354 41.8874 30.1441 41.3149 29.5515C40.7425 28.9588 39.9621 28.6111 39.138 28.5815H30.5856L25.3864 23.3897H47.6863L52.8855 28.5567H47.0008L47.1701 29.1959Z" fill="url(#paint0_linear)"/>
    </g>
    <defs>
        <linearGradient id="paint0_linear" x1="11.1434" y1="38.998" x2="221.77" y2="38.998" gradientUnits="userSpaceOnUse">
            <stop stop-color="#E84A0F"/>
            <stop offset="0.28" stop-color="#E52B12"/>
            <stop offset="0.64" stop-color="#B31477"/>
            <stop offset="1" stop-color="#235EAA"/>
        </linearGradient>
        <clipPath id="clip0">
            <rect width="54.0773" height="54" fill="white" transform="translate(12 12)"/>
        </clipPath>
    </defs>
</svg>
