<svg xmlns="http://www.w3.org/2000/svg" width="150" height="38" fill="none">
    <g clip-path="url(#a)">
        <path fill-rule="evenodd" clip-rule="evenodd" d="M54.977 4.633h-8.536V28.87h3.29V18.195H53.4l6.169 10.675h4.113l-6.876-11.063a6.562 6.562 0 0 0 2.485-.734 6.741 6.741 0 0 0 1.883-1.472 6.288 6.288 0 0 0 1.596-4.191 8.616 8.616 0 0 0-.345-2.346 5.494 5.494 0 0 0-1.217-2.19 6.518 6.518 0 0 0-2.38-1.608 9.985 9.985 0 0 0-3.85-.633zm-.927 10.678h-4.318V7.508h4.318c.638 0 1.274.051 1.903.153.588.091 1.156.282 1.68.564.494.28.902.687 1.182 1.18a4.72 4.72 0 0 1 0 4.006c-.28.493-.688.901-1.182 1.18a5.07 5.07 0 0 1-1.68.564 11.62 11.62 0 0 1-1.903.156zm21.866 13.564H79l.02-16.229h-3.084v8.345a7.7 7.7 0 0 1-.342 2.43 4.606 4.606 0 0 1-.959 1.694c-.398.435-.894.77-1.448.975a5.06 5.06 0 0 1-1.784.306 4.397 4.397 0 0 1-1.388-.22 3.118 3.118 0 0 1-1.181-.72 3.526 3.526 0 0 1-.823-1.301 5.4 5.4 0 0 1-.307-1.932v-9.577H64.62V23.09a7.401 7.401 0 0 0 .46 2.791 5.42 5.42 0 0 0 1.286 1.935c.535.5 1.173.88 1.868 1.111.73.243 1.494.364 2.262.359a6.69 6.69 0 0 0 3.325-.804 4.546 4.546 0 0 0 2.028-2.103h.067v2.496zm5.758-16.229h3.084v2.314h.07a5.893 5.893 0 0 1 2.45-2.025 7.61 7.61 0 0 1 3.204-.717 8.612 8.612 0 0 1 3.412.65 7.53 7.53 0 0 1 2.606 1.814 8.158 8.158 0 0 1 1.663 2.72 9.46 9.46 0 0 1 .58 3.337 9.561 9.561 0 0 1-.58 3.372 7.967 7.967 0 0 1-1.663 2.701 7.642 7.642 0 0 1-2.606 1.8 8.664 8.664 0 0 1-3.412.647 7.54 7.54 0 0 1-3.29-.734 5.614 5.614 0 0 1-2.364-2.002h-.07v9.4h-3.084V12.646zm8.434 2.464a5.562 5.562 0 0 0-2.227.428 4.88 4.88 0 0 0-1.68 1.157 5.159 5.159 0 0 0-1.063 1.78 7.069 7.069 0 0 0 0 4.551 5.102 5.102 0 0 0 1.06 1.8 4.923 4.923 0 0 0 1.68 1.156 6.047 6.047 0 0 0 4.454 0 4.923 4.923 0 0 0 1.68-1.156 5.1 5.1 0 0 0 1.063-1.78 7.068 7.068 0 0 0 0-4.552 5.156 5.156 0 0 0-1.063-1.778 4.877 4.877 0 0 0-1.68-1.157 5.562 5.562 0 0 0-2.224-.449zm13.312 8.709a4.074 4.074 0 0 1-.464-1.932h13.029V20.79a11.464 11.464 0 0 0-.429-3.098 7.863 7.863 0 0 0-1.387-2.74 7.246 7.246 0 0 0-2.451-1.966 8.073 8.073 0 0 0-3.652-.752 8.542 8.542 0 0 0-3.386.65 7.925 7.925 0 0 0-2.656 1.797 8.32 8.32 0 0 0-1.738 2.704 8.845 8.845 0 0 0-.634 3.37 9.495 9.495 0 0 0 .579 3.372 7.954 7.954 0 0 0 1.66 2.702 7.542 7.542 0 0 0 2.641 1.799 8.993 8.993 0 0 0 3.476.647c3.084 0 5.482-1.105 7.195-3.317l-2.318-1.782a7.994 7.994 0 0 1-1.955 1.765 4.588 4.588 0 0 1-2.499.665 6.253 6.253 0 0 1-2.057-.341 5.668 5.668 0 0 1-1.738-.958 4.87 4.87 0 0 1-1.216-1.49zm8.953-6.28c.201.609.311 1.243.327 1.883h-9.712a4.186 4.186 0 0 1 .362-1.66 5.046 5.046 0 0 1 4.678-3.063 5.328 5.328 0 0 1 2.028.359c.549.22 1.044.56 1.448.992.391.43.687.938.869 1.49zm7.652 4.348c-.009.672.15 1.336.463 1.932.301.573.714 1.08 1.217 1.49.517.42 1.106.743 1.738.957a6.269 6.269 0 0 0 2.056.341 4.59 4.59 0 0 0 2.502-.665 8.062 8.062 0 0 0 1.956-1.765l2.317 1.782c-1.711 2.212-4.11 3.317-7.198 3.317a8.995 8.995 0 0 1-3.476-.647 7.569 7.569 0 0 1-2.638-1.8 7.975 7.975 0 0 1-1.663-2.7 9.575 9.575 0 0 1-.579-3.373 8.856 8.856 0 0 1 .634-3.37 8.32 8.32 0 0 1 1.738-2.704 7.945 7.945 0 0 1 2.656-1.796 8.547 8.547 0 0 1 3.357-.65 8.053 8.053 0 0 1 3.65.751 7.211 7.211 0 0 1 2.45 1.967 7.805 7.805 0 0 1 1.39 2.739c.284 1.008.428 2.05.429 3.098v1.096h-12.999zm9.735-2.465a6.486 6.486 0 0 0-.328-1.882 4.149 4.149 0 0 0-.869-1.49 4.015 4.015 0 0 0-1.448-.992 5.336 5.336 0 0 0-2.027-.359 4.931 4.931 0 0 0-2.074.428 5.01 5.01 0 0 0-1.596 1.111c-.426.444-.768.96-1.011 1.524a4.166 4.166 0 0 0-.359 1.66h9.712zm8.087-11.843h-3.085v21.296h3.093v-8.417l7.531 8.417h4.388l-8.226-8.836 7.586-7.361h-4.284l-7.003 7.017V7.579z" fill="url(#b)"/>
    </g>
    <g clip-path="url(#c)">
        <path d="M18.585 0A18.594 18.594 0 0 0 8.27 3.134a18.554 18.554 0 0 0-6.834 8.328A18.524 18.524 0 0 0 5.474 31.67a18.6 18.6 0 0 0 20.24 4.013 18.57 18.57 0 0 0 8.334-6.831 18.53 18.53 0 0 0-2.317-23.425A18.578 18.578 0 0 0 18.585 0zm5.587 11.814a6.69 6.69 0 0 1-.69 5.14l-.283.37 1.231 2.111v3.562l-3.703-3.683H18.01l6.421 7.833v3.91L9.2 15.757h9.454a2.188 2.188 0 0 0 2.108-2.182 2.183 2.183 0 0 0-2.108-2.183h-5.876L9.206 7.825h15.32l3.573 3.55h-4.043l.116.44z" fill="url(#d)"/>
    </g>
    <defs>
        <linearGradient id="b" x1="0" y1="17.389" x2="149.773" y2="17.389" gradientUnits="userSpaceOnUse">
            <stop stop-color="#E84A0F"/>
            <stop offset=".261" stop-color="#E52B12"/>
            <stop offset=".633" stop-color="#B31477"/>
            <stop offset="1" stop-color="#235EAA"/>
        </linearGradient>
        <linearGradient id="d" x1="-.58" y1="18.549" x2="144.129" y2="18.549" gradientUnits="userSpaceOnUse">
            <stop stop-color="#E84A0F"/>
            <stop offset=".28" stop-color="#E52B12"/>
            <stop offset=".64" stop-color="#B31477"/>
            <stop offset="1" stop-color="#235EAA"/>
        </linearGradient>
        <clipPath id="a">
            <path fill="#fff" transform="translate(46.441 4.637)" d="M0 0h103.333v31.303H0z"/>
        </clipPath>
        <clipPath id="c">
            <path fill="#fff" d="M0 0h37.153v37.1H0z"/>
        </clipPath>
    </defs>
</svg>
