<svg xmlns="http://www.w3.org/2000/svg" width="24" height="24" viewBox="0 0 24 24" fill="none">
<path d="M19.5 3.75H4.5C4.10233 3.75052 3.7211 3.90872 3.43991 4.18991C3.15872 4.4711 3.00052 4.85233 3 5.25V10.7498C3 19.1367 10.1082 21.9177 11.5342 22.3901C11.8363 22.4927 12.1637 22.4927 12.4658 22.3901C13.8911 21.9177 21 19.1375 21 10.7498V5.25C20.9995 4.85233 20.8413 4.4711 20.5601 4.18991C20.2789 3.90872 19.8977 3.75052 19.5 3.75ZM16.6428 10.2927L11.1423 15.5427C11.0028 15.6758 10.8173 15.75 10.6245 15.75C10.4317 15.75 10.2463 15.6758 10.1067 15.5427L7.35718 12.9177C7.2858 12.8497 7.22853 12.7684 7.18862 12.6782C7.14871 12.5881 7.12696 12.491 7.1246 12.3925C7.12224 12.2939 7.13933 12.1959 7.17488 12.104C7.21043 12.012 7.26375 11.928 7.33179 11.8567C7.39983 11.7854 7.48126 11.7282 7.57142 11.6884C7.66158 11.6485 7.7587 11.6269 7.85724 11.6246C7.95578 11.6223 8.0538 11.6395 8.1457 11.6751C8.2376 11.7108 8.32157 11.7642 8.39282 11.8323L10.6245 13.9629L15.6072 9.20728C15.6784 9.13917 15.7624 9.08578 15.8543 9.05014C15.9462 9.01451 16.0442 8.99734 16.1428 8.99961C16.2413 9.00188 16.3384 9.02354 16.4286 9.06337C16.5187 9.10319 16.6002 9.1604 16.6682 9.23171C16.7363 9.30302 16.7896 9.38705 16.8251 9.47898C16.8607 9.57091 16.8778 9.66894 16.8754 9.76748C16.873 9.86602 16.8513 9.96312 16.8114 10.0532C16.7715 10.1434 16.7142 10.2247 16.6428 10.2927H16.6428Z" fill="url(#paint0_linear_2269_813)"/>
<defs>
<linearGradient id="paint0_linear_2269_813" x1="2.25" y1="13.1085" x2="21.75" y2="13.1085" gradientUnits="userSpaceOnUse">
<stop stop-color="#EA5518"/>
<stop offset="0.23782" stop-color="#E63918"/>
<stop offset="0.519826" stop-color="#B01280"/>
<stop offset="1" stop-color="#1E65AF"/>
</linearGradient>
</defs>
</svg>