<svg width="24" height="24" viewBox="0 0 24 24" fill="none" xmlns="http://www.w3.org/2000/svg">
<path d="M12 10.5625C12.7939 10.5625 13.4375 11.2061 13.4375 12C13.4375 12.7939 12.7939 13.4375 12 13.4375C11.2061 13.4375 10.5625 12.7939 10.5625 12C10.5625 11.2061 11.2061 10.5625 12 10.5625Z" fill="black" stroke="#1E2D4B" stroke-width="0.125"/>
<path d="M12 16.5625C12.7939 16.5625 13.4375 17.2061 13.4375 18C13.4375 18.7939 12.7939 19.4375 12 19.4375C11.2061 19.4375 10.5625 18.7939 10.5625 18C10.5625 17.2061 11.2061 16.5625 12 16.5625Z" fill="black" stroke="#1E2D4B" stroke-width="0.125"/>
<path d="M13.5 6C13.5 5.17157 12.8284 4.5 12 4.5C11.1716 4.5 10.5 5.17157 10.5 6C10.5 6.82843 11.1716 7.5 12 7.5C12.8284 7.5 13.5 6.82843 13.5 6Z" fill="black"/>
</svg>
